<svg width="26" height="26" viewBox="0 0 26 26" fill="none" xmlns="http://www.w3.org/2000/svg">
<path d="M1.7793 0.203125L3.82172 23.1325L12.9863 25.6878L22.1765 23.1231L24.2205 0.203125H1.7793ZM19.9775 5.45634L19.2976 13.0949L19.2996 13.1361L19.2968 13.231V13.2301L18.8138 18.5711L18.7605 19.0456L12.9999 20.6389V20.6391L12.9955 20.643L7.24478 19.0407L6.85539 14.625H9.67538L9.87545 16.8703L13.0007 17.7174L12.9999 17.719V17.7186L16.1368 16.8596L16.4683 13.2031H9.9108L9.85453 12.585L9.72636 11.1369L9.65912 10.3594H16.7175L16.9743 7.51562H6.22367L6.16741 6.89792L6.03944 5.44944L5.972 4.67188H20.0447L19.9775 5.45634V5.45634Z" fill="#1572B6"/>
</svg>
