<svg width="27" height="26" viewBox="0 0 27 26" fill="none" xmlns="http://www.w3.org/2000/svg">
<path d="M25.8383 11.858L14.6427 0.662982C13.9984 0.0182637 12.9527 0.0182637 12.3073 0.662982L9.98298 2.98795L12.9319 5.93692C13.6175 5.70556 14.4032 5.86075 14.9494 6.40695C15.2097 6.66748 15.3914 6.99602 15.4738 7.35497C15.5562 7.71393 15.5358 8.08883 15.4152 8.43678L18.2573 11.2793C18.9449 11.0423 19.7385 11.1954 20.2873 11.7455C21.0551 12.5127 21.0551 13.7564 20.2873 14.524C20.1048 14.7066 19.8882 14.8514 19.6498 14.9502C19.4113 15.049 19.1557 15.0999 18.8976 15.0999C18.6395 15.0999 18.3839 15.049 18.1455 14.9502C17.9071 14.8514 17.6904 14.7066 17.508 14.524C17.2338 14.2497 17.0469 13.9004 16.9709 13.5202C16.8948 13.1399 16.9329 12.7456 17.0804 12.387L14.43 9.73637L14.4296 16.7119C14.6219 16.8066 14.7975 16.932 14.9494 17.0832C15.717 17.8504 15.717 19.0937 14.9494 19.8626C14.1818 20.6298 12.9376 20.6298 12.1708 19.8626C11.4034 19.0939 11.3405 17.8506 12.1077 17.0832C12.2974 16.8937 12.4845 16.7505 12.6876 16.6546V9.6145C12.4845 9.51862 12.2976 9.37644 12.1075 9.1857C11.5263 8.60476 11.4177 7.75164 11.7158 7.03745L8.82476 4.13012L1.15598 11.8062C0.511059 12.4515 0.515122 13.4972 1.16004 14.1422L12.3575 25.3372C13.002 25.9819 14.0485 25.9819 14.6941 25.3372L25.8375 14.1942C26.4824 13.549 26.483 12.5027 25.8383 11.858V11.858Z" fill="#F34F29"/>
</svg>
