<svg width="27" height="26" viewBox="0 0 27 26" fill="none" xmlns="http://www.w3.org/2000/svg">
<path fill-rule="evenodd" clip-rule="evenodd" d="M13.5002 1.0365C6.72659 1.0365 1.23389 6.52798 1.23389 13.3028C1.23389 18.7226 4.74856 23.3203 9.62234 24.9425C10.2352 25.0562 10.4602 24.6764 10.4602 24.3524C10.4602 24.0599 10.4489 23.0936 10.4436 22.0687C7.03107 22.8107 6.311 20.6214 6.311 20.6214C5.75301 19.2036 4.94904 18.8266 4.94904 18.8266C3.83592 18.0653 5.03293 18.0811 5.03293 18.0811C6.26448 18.1675 6.91326 19.3452 6.91326 19.3452C8.00729 21.22 9.78281 20.6781 10.4828 20.3649C10.5929 19.5721 10.9108 19.0307 11.2616 18.7244C8.53704 18.4147 5.67278 17.3627 5.67278 12.6626C5.67278 11.3234 6.15215 10.2291 6.93682 9.36991C6.80926 9.06116 6.3894 7.81356 7.05545 6.12397C7.05545 6.12397 8.08529 5.7943 10.4294 7.38131C11.408 7.10933 12.4576 6.97262 13.5002 6.96795C14.5422 6.97262 15.5924 7.10892 16.5729 7.38091C18.9141 5.79389 19.9427 6.12356 19.9427 6.12356C20.6104 7.81295 20.1905 9.06075 20.0632 9.3695C20.8497 10.2287 21.3256 11.323 21.3256 12.6622C21.3256 17.3734 18.456 18.4106 15.7246 18.7145C16.1648 19.0951 16.5568 19.8418 16.5568 20.986C16.5568 22.6273 16.5426 23.9482 16.5426 24.3522C16.5426 24.6786 16.7636 25.0611 17.3852 24.9407C22.2561 23.3169 25.7667 18.7206 25.7667 13.3028C25.7665 6.52839 20.2744 1.0367 13.5002 1.0367V1.0365Z" fill="white"/>
<path d="M5.88 18.6481C5.85298 18.709 5.75711 18.7273 5.66976 18.6856C5.58039 18.6458 5.53062 18.5628 5.55947 18.5016C5.58587 18.4386 5.68195 18.4214 5.77072 18.4634C5.86009 18.5034 5.91087 18.5873 5.87979 18.6483L5.88 18.6481ZM6.37684 19.2024C6.31854 19.2566 6.20418 19.2314 6.12659 19.1455C6.04615 19.0602 6.03112 18.9459 6.09064 18.8908C6.15117 18.8368 6.26208 18.8624 6.34251 18.9477C6.42254 19.0342 6.43839 19.1476 6.37704 19.2026L6.37684 19.2024ZM6.86068 19.9087C6.78553 19.9611 6.66243 19.9121 6.58647 19.803C6.51131 19.6938 6.51131 19.5627 6.5885 19.5105C6.66426 19.4581 6.78553 19.5055 6.86272 19.6135C6.93747 19.7242 6.93747 19.8552 6.86068 19.9085V19.9087ZM7.52308 20.5914C7.45604 20.6655 7.31264 20.6456 7.20783 20.5446C7.10078 20.4457 7.07092 20.305 7.13815 20.231C7.2064 20.1567 7.35042 20.1774 7.45584 20.2777C7.56289 20.3765 7.59519 20.5174 7.52348 20.5912L7.52308 20.5914ZM8.43714 20.9877C8.40728 21.0837 8.26956 21.1274 8.13042 21.0864C7.99168 21.0443 7.90089 20.932 7.92933 20.8349C7.95776 20.738 8.0965 20.6927 8.23645 20.7364C8.37518 20.7782 8.46598 20.89 8.43714 20.9877ZM9.44118 21.061C9.44464 21.1621 9.32683 21.2458 9.18118 21.2479C9.03433 21.2513 8.9155 21.1693 8.91408 21.0697C8.91408 20.9676 9.02945 20.8849 9.17611 20.882C9.32175 20.8794 9.44139 20.9606 9.44139 21.0608L9.44118 21.061ZM10.3752 20.9021C10.3926 21.0007 10.2913 21.102 10.1464 21.129C10.0042 21.1554 9.87222 21.0941 9.85393 20.9964C9.83647 20.8952 9.93965 20.7939 10.0818 20.7677C10.2269 20.7427 10.3569 20.8022 10.3752 20.9024V20.9021Z" fill="white"/>
</svg>
