<svg width="26" height="26" viewBox="0 0 26 26" fill="none" xmlns="http://www.w3.org/2000/svg">
<path fill-rule="evenodd" clip-rule="evenodd" d="M16.9786 6.64527C16.4276 4.91453 15.5437 3.38273 14.2982 2.0646C13.9833 1.73117 13.6333 1.42571 13.4137 1.01095C13.2749 0.748396 13.1426 0.48221 13.0074 0.217944L12.9215 0L12.8976 0.0858116C12.8864 0.517004 12.6443 0.809233 12.343 1.08225C12.0035 1.38921 11.6878 1.72264 11.3619 2.04475L10.3598 3.3744L9.54953 4.8776L9.00761 6.35369L8.99131 6.37653C8.69316 7.36464 8.54609 8.38072 8.47394 9.40661C8.44664 9.79234 8.47796 10.1834 8.49933 10.571C8.53001 11.1252 8.62545 11.6697 8.76849 12.2062C9.28841 14.1542 10.3437 15.7699 11.7866 17.1429C12.0545 17.398 12.3442 17.63 12.6238 17.8725L12.7476 18.3011L12.8627 18.9663L12.9177 19.6607C12.917 19.8016 12.9113 19.9431 12.9196 20.0835C12.9219 20.1196 12.9685 20.1529 12.9947 20.1875L13.2283 20.2703L13.4715 20.3657L13.4298 19.7486L13.4279 19.1407L13.5119 18.2147L13.5728 18.0132L13.7474 17.7013C13.9628 17.5267 14.1937 17.3679 14.3898 17.1734C14.7447 16.8218 15.0989 16.4654 15.4166 16.0801C15.8298 15.5806 16.1827 15.0335 16.468 14.4501C16.6583 14.0588 16.8377 13.6596 16.986 13.2508C17.1168 12.8905 17.1979 12.5116 17.3009 12.1408L17.328 12.0608C17.5407 11.0601 17.5764 10.0491 17.4983 9.03177C17.4355 8.21187 17.2444 7.42057 16.9786 6.64527V6.64527ZM12.7677 17.3771C12.8002 17.2125 12.8407 17.0488 12.8701 16.8835C12.8407 17.0488 12.8005 17.2125 12.7677 17.3771ZM13.4907 17.4906L13.354 17.1886L13.4907 17.4906L13.6915 17.6637L13.4907 17.4906ZM21.9876 21.3173C21.8128 20.9794 21.5563 20.7229 21.2173 20.5544C20.9334 20.4135 20.628 20.3516 20.314 20.3427C20.0787 20.3358 19.8425 20.348 19.6068 20.351C19.3975 20.3536 19.188 20.3572 18.9787 20.3553C18.7326 20.3527 18.4865 20.3452 18.2404 20.3382C18.1996 20.3369 18.1706 20.3452 18.1516 20.3871C18.1217 20.4522 18.0864 20.5149 18.0498 20.5862L18.0908 20.5995C18.2129 20.6212 18.3357 20.6398 18.4571 20.6644C18.6133 20.6957 18.6836 20.7863 18.6907 20.919C18.7013 21.1082 18.7056 21.2977 18.7049 21.4873C18.7018 22.2374 18.6965 22.9875 18.691 23.7374C18.6905 23.7869 18.6897 23.8385 18.6764 23.8851C18.6609 23.9389 18.6442 24.0085 18.6044 24.0349C18.5328 24.0813 18.4525 24.1122 18.3685 24.1256C18.2498 24.1453 18.2299 24.1506 18.1928 24.2685L18.1768 24.3274C18.159 24.3916 18.1685 24.4042 18.2349 24.4049C18.6163 24.4091 18.9974 24.4174 19.3785 24.4162C19.7261 24.4149 20.0738 24.4362 20.4202 24.3703C20.7476 24.3082 21.0531 24.1993 21.332 24.0151C21.6939 23.7758 21.9542 23.456 22.0915 23.0387C22.2024 22.7016 22.2271 22.3578 22.1895 22.0053C22.166 21.7652 22.0975 21.5317 21.9876 21.3173V21.3173ZM21.3195 23.3796C21.1156 23.7625 20.8113 24.0183 20.3764 24.0857C20.1041 24.1278 19.8313 24.1156 19.5717 24.0117C19.4072 23.9459 19.3461 23.8027 19.341 23.6334C19.3364 23.4675 19.334 23.3016 19.334 23.1356C19.3332 22.552 19.3332 21.9684 19.334 21.385C19.3345 21.2012 19.3376 21.017 19.3406 20.833C19.3427 20.7036 19.3696 20.6603 19.4946 20.6499C20.044 20.6033 20.5681 20.6631 21.0034 21.0531C21.2726 21.2943 21.4258 21.6019 21.4895 21.9552C21.5159 22.1025 21.524 22.2532 21.5405 22.4026C21.5271 22.7437 21.4814 23.0756 21.3195 23.3796ZM25.9302 22.7475C25.8219 22.4816 25.6166 22.3149 25.3587 22.2081C25.2707 22.1716 25.1799 22.1415 25.0849 22.1061L25.1181 22.0847C25.2207 22.0184 25.335 21.9648 25.4235 21.883C25.6384 21.6843 25.7277 21.4343 25.6858 21.1374C25.6461 20.855 25.5064 20.6477 25.2569 20.5132C25.0305 20.3916 24.7863 20.3472 24.5336 20.3474C24.0965 20.3478 23.6591 20.3544 23.2219 20.3553C23.0712 20.3555 22.9206 20.3442 22.7699 20.342C22.7407 20.3416 22.6973 20.3491 22.6848 20.3687C22.6503 20.4221 22.6275 20.4836 22.6029 20.5429C22.5888 20.5775 22.6027 20.5965 22.6419 20.6016C22.747 20.6161 22.852 20.6343 22.9574 20.6501C23.103 20.6721 23.1734 20.7485 23.1823 20.8964L23.1842 20.9841C23.1844 21.4441 23.1859 21.9042 23.184 22.3642C23.1813 22.8235 23.177 23.2829 23.1711 23.7423C23.1705 23.8001 23.1626 23.8582 23.1544 23.9156C23.1419 24.0023 23.096 24.062 23.008 24.0808L22.7589 24.1303C22.7295 24.1363 22.6869 24.1355 22.6749 24.1538C22.6292 24.2228 22.5924 24.2981 22.5974 24.3891L22.623 24.3961L23.4595 24.4168L23.6273 24.4162C23.9168 24.4128 24.2067 24.4185 24.4958 24.4036C24.8087 24.3878 25.1027 24.2941 25.3744 24.1329C25.6636 23.9611 25.8862 23.7346 25.9654 23.3939C26.0162 23.1764 26.0164 22.9576 25.9302 22.7475V22.7475ZM23.8051 20.7877C23.8063 20.6953 23.8468 20.6552 23.9378 20.6528C24.1618 20.6466 24.3845 20.6479 24.6007 20.7258C24.8805 20.8266 25.0525 21.0699 25.0493 21.3673C25.0478 21.4815 25.0495 21.5946 25.0079 21.7044C24.9255 21.9204 24.7677 22.0344 24.5438 22.0566C24.427 22.0685 24.3091 22.0698 24.205 22.0753L23.8576 22.06C23.8114 22.0583 23.7913 22.0378 23.7915 21.99L23.8051 20.7877V20.7877ZM25.2453 23.6682C25.1333 23.9139 24.9293 24.043 24.6739 24.0879C24.4704 24.1231 24.2617 24.1138 24.062 24.0608C23.9126 24.0221 23.8516 23.9011 23.8218 23.7668C23.8017 23.677 23.8051 23.57 23.8034 23.4765C23.8006 23.3322 23.8028 23.0327 23.8028 23.0327H23.7998C23.7998 22.8193 23.8004 22.6344 23.7992 22.4297C23.7989 22.3855 23.8063 22.3635 23.8599 22.3652C24.0499 22.371 24.2406 22.3742 24.4306 22.3817C24.6005 22.3883 24.7596 22.4391 24.9092 22.5204C25.1369 22.6442 25.2741 22.8338 25.3117 23.0942C25.3405 23.2917 25.3282 23.4859 25.2453 23.6682V23.6682ZM4.38357 23.8983L4.38759 22.7377C4.38823 22.5631 4.36622 22.3919 4.30951 22.2263C4.15313 21.7701 3.72188 21.5624 3.27284 21.7261C3.06864 21.8006 2.8856 21.9135 2.71082 22.0416C2.60903 22.1163 2.60903 22.1163 2.53539 22.0098C2.32696 21.7084 2.02923 21.6053 1.68262 21.7165C1.45853 21.7882 1.26258 21.911 1.077 22.0536C1.05965 22.0668 1.02473 22.0815 1.01436 22.0736C0.99701 22.0606 0.984949 22.0297 0.985372 22.0064L0.998068 21.8002C0.999126 21.7569 0.990874 21.7133 0.986642 21.6678C0.902845 21.6971 0.835977 21.7263 0.765935 21.7434C0.549461 21.7968 0.331506 21.8459 0.113762 21.896C0.0610723 21.9082 0.00541959 21.9242 0.000341023 21.9853C-0.00494915 22.0452 0.0523963 22.0553 0.0968338 22.0732C0.190364 22.1112 0.28326 22.1516 0.375732 22.1925C0.453392 22.2271 0.482382 22.2897 0.481959 22.3738C0.480477 22.7334 0.482805 23.0927 0.480689 23.4524C0.479843 23.5986 0.473071 23.7446 0.466511 23.8908C0.460586 24.0204 0.416784 24.0746 0.292359 24.1073C0.226337 24.1248 0.159258 24.1365 0.0928133 24.1523C0.0782124 24.1557 0.0532428 24.1651 0.0530312 24.1724C0.0502803 24.2358 0.0468946 24.3007 0.0574749 24.3624C0.059591 24.3735 0.126036 24.3735 0.162855 24.3777L0.187613 24.3762C0.444081 24.3724 0.700549 24.3684 0.957228 24.3656C1.09329 24.3641 1.22914 24.3654 1.37685 24.3654L1.39272 24.1583C1.30807 24.1427 1.23253 24.131 1.15804 24.1145C1.04187 24.0889 0.992355 24.0268 0.989393 23.9086L0.987276 23.7393C0.986007 23.3002 0.984314 22.8613 0.984314 22.4222C0.984314 22.3584 1.01055 22.3078 1.06621 22.2696C1.18407 22.1893 1.3085 22.1255 1.44625 22.0899C1.73658 22.0149 1.98839 22.1191 2.10012 22.3682C2.13546 22.4468 2.16318 22.5336 2.17101 22.619C2.21206 23.0592 2.19428 23.4998 2.16953 23.9399C2.16424 24.0349 2.12001 24.0827 2.02711 24.106L1.80874 24.1525C1.79117 24.157 1.76557 24.1451 1.7643 24.1598C1.75943 24.2206 1.76218 24.3139 1.76218 24.3139H1.81424L2.47911 24.3359C2.6613 24.3355 2.84371 24.3577 3.02569 24.3624C3.05828 24.363 3.08727 24.3679 3.08917 24.3299C3.09125 24.2709 3.09047 24.2119 3.08684 24.153L3.05214 24.1468L2.86487 24.1043C2.73854 24.0742 2.69495 24.0257 2.69452 23.8968C2.69304 23.579 2.69727 23.2613 2.69452 22.9437C2.6929 22.762 2.6862 22.5805 2.67442 22.3992C2.67125 22.3509 2.67865 22.3193 2.71674 22.2922C2.82714 22.2108 2.95134 22.1504 3.08324 22.114C3.4927 22.0051 3.82789 22.2316 3.84905 22.6575C3.86979 23.0682 3.86111 23.4804 3.85794 23.8919C3.85688 24.0351 3.8099 24.0785 3.67003 24.1169L3.62178 24.1295C3.47853 24.1641 3.4798 24.1641 3.48826 24.3175C3.49101 24.3656 3.50413 24.378 3.55492 24.3767C3.84672 24.3701 4.13853 24.3684 4.43034 24.3658C4.54968 24.3647 4.66903 24.3658 4.79895 24.3658L4.82541 24.166C4.71135 24.1355 4.60618 24.1128 4.50461 24.0793C4.41489 24.0486 4.38315 23.9939 4.38357 23.8983V23.8983ZM14.4326 22.1392C14.5528 22.0267 14.5536 21.8781 14.52 21.7131C14.4247 21.8136 14.3181 21.86 14.1964 21.8687C14.0333 21.8805 13.8731 21.8662 13.7212 21.8006C13.3102 21.6226 12.9056 21.6352 12.5023 21.8305C12.1631 21.9944 11.9544 22.25 11.9335 22.6374C11.9202 22.8856 11.9663 23.1207 12.1305 23.3181C12.2289 23.4364 12.3552 23.513 12.4976 23.566C12.559 23.5888 12.5637 23.6182 12.5122 23.6577C12.4743 23.6867 12.4349 23.7137 12.3944 23.7389C12.3084 23.7934 12.2219 23.847 12.1349 23.8998C12.084 23.931 12.0666 23.9707 12.0833 24.0315C12.1322 24.2104 12.2581 24.3137 12.4155 24.3891L12.4729 24.4294L12.4227 24.48C12.2685 24.6061 12.1081 24.7253 11.9604 24.8591C11.8364 24.9716 11.7964 25.1223 11.8338 25.2886C11.9094 25.6205 12.1275 25.8259 12.4371 25.9202C12.9782 26.0854 13.4863 25.9907 13.9495 25.6673C14.2241 25.4754 14.4212 25.2256 14.481 24.8819C14.5481 24.4958 14.3355 24.1607 13.9548 24.0915C13.703 24.0454 13.4452 24.0321 13.1904 24.0027C13.0715 23.989 12.9509 23.9809 12.8352 23.9534C12.7368 23.9299 12.6879 23.849 12.697 23.77C12.7061 23.6923 12.788 23.62 12.8817 23.6125C13.0705 23.5971 13.2554 23.5674 13.4293 23.4872C13.8902 23.2746 14.1042 22.9023 14.0506 22.4011C14.0436 22.3336 14.0284 22.267 14.0147 22.1885C14.1621 22.2135 14.313 22.2512 14.4326 22.1392V22.1392ZM13.0341 24.4909C13.2216 24.4964 13.4349 24.5082 13.641 24.569C13.8223 24.6224 13.9715 24.7159 14.0155 24.9202C14.0686 25.1669 13.951 25.4124 13.7142 25.5443C13.4924 25.6677 13.2516 25.6779 13.0074 25.6525C12.7983 25.6308 12.6102 25.5578 12.4596 25.4019C12.2611 25.1968 12.26 24.9129 12.4587 24.7084C12.6362 24.5257 12.7313 24.4879 13.0341 24.4909V24.4909ZM13.5032 23.0048C13.394 23.3572 13.0762 23.4059 12.8271 23.2931C12.6149 23.1973 12.5224 23.0086 12.4739 22.7932C12.4551 22.7104 12.4507 22.6244 12.4397 22.5396C12.4441 22.4182 12.464 22.3016 12.5158 22.1923C12.6748 21.8557 13.0652 21.8758 13.2812 22.0282C13.3739 22.0935 13.4384 22.1823 13.4789 22.2875C13.5688 22.5166 13.5774 22.77 13.5032 23.0048V23.0048ZM11.5204 24.1282C11.4448 24.1165 11.3701 24.0997 11.2968 24.0778C11.1681 24.0381 11.1525 24.0138 11.151 23.8765C11.1472 23.494 11.1446 23.1115 11.1404 22.7292C11.1383 22.5571 11.118 22.3874 11.0657 22.2231C10.9282 21.7897 10.5068 21.5571 10.0853 21.6849C9.85171 21.756 9.65111 21.8881 9.46426 22.0433L9.39612 22.0961L9.39633 22.0254C9.40077 21.9441 9.40945 21.8627 9.40882 21.7814C9.40839 21.7389 9.39231 21.6962 9.38448 21.6589C9.22514 21.7073 9.08231 21.756 8.93651 21.7932C8.79029 21.8303 8.6411 21.8555 8.49319 21.8858C8.41976 21.9007 8.3658 21.9456 8.36707 21.9966C8.36898 22.0685 8.42802 22.0824 8.47965 22.104C8.57318 22.1426 8.6665 22.1817 8.75897 22.2231C8.82499 22.2527 8.85187 22.3078 8.85123 22.3793C8.84658 22.8765 8.84361 23.3738 8.83642 23.8712C8.8343 24.0283 8.79494 24.0697 8.64174 24.1043L8.57487 24.1177C8.4331 24.1423 8.42907 24.1481 8.43881 24.299L8.43966 24.324C8.43796 24.382 8.46314 24.4008 8.52239 24.4002C8.89905 24.3957 9.27593 24.3935 9.65259 24.395C9.81404 24.3957 9.8314 24.3829 9.82801 24.2155L9.82039 24.1436C9.72813 24.128 9.63989 24.1167 9.55355 24.0975C9.4632 24.0772 9.43082 24.0398 9.42236 23.9472C9.41453 23.8624 9.41199 23.7764 9.41114 23.691C9.40691 23.3002 9.40352 22.9093 9.40162 22.5187C9.4012 22.4203 9.41918 22.3289 9.50891 22.2655C9.64096 22.1703 9.79664 22.114 9.95857 22.1029C10.2946 22.0796 10.55 22.2805 10.5682 22.6184C10.5906 23.0353 10.5839 23.4537 10.5892 23.8714C10.5896 23.9026 10.5841 23.934 10.5798 23.9649C10.5718 24.026 10.5422 24.0719 10.4808 24.0877C10.4209 24.1034 10.3602 24.1175 10.299 24.1269C10.2078 24.1406 10.2059 24.1399 10.199 24.2328L10.2013 24.2953C10.2121 24.4034 10.2123 24.4002 10.3206 24.3991C10.685 24.3961 11.0492 24.3942 11.4134 24.3946C11.5657 24.395 11.5765 24.3878 11.5778 24.2294L11.5774 24.1918C11.5797 24.1513 11.5617 24.1348 11.5204 24.1282V24.1282ZM16.61 21.7112C16.2281 21.617 15.8658 21.6871 15.5217 21.8666C15.1874 22.041 14.9639 22.3106 14.8789 22.6829C14.7929 23.0592 14.834 23.4263 14.9988 23.7758C15.1061 24.0027 15.2712 24.1782 15.4959 24.2921C16.022 24.5594 16.6655 24.4382 17.0781 24.0806C17.4038 23.7986 17.5233 23.4231 17.5305 22.9584C17.5261 22.9119 17.5216 22.8222 17.5093 22.7334C17.4401 22.2275 17.0929 21.8303 16.61 21.7112V21.7112ZM16.8993 23.6654C16.7979 24.068 16.4528 24.2469 16.0634 24.1086C15.8647 24.0381 15.7162 23.9034 15.6163 23.7213C15.3865 23.303 15.3423 22.8581 15.4731 22.4017C15.5602 22.0978 15.8082 21.9315 16.1032 21.9524C16.3669 21.971 16.5696 22.0986 16.7184 22.3151C16.8752 22.5435 16.9357 22.8033 16.9518 23.0761C16.9545 23.1198 16.9522 23.1636 16.9522 23.2075L16.9708 23.2097C16.9475 23.3619 16.9365 23.5171 16.8993 23.6654V23.6654ZM7.00369 21.7046C6.60185 21.6119 6.2254 21.7035 5.87667 21.9095C5.57513 22.0875 5.38024 22.3535 5.30554 22.701C5.2355 23.0257 5.26407 23.3448 5.37812 23.6558C5.44753 23.8454 5.5527 24.0121 5.70696 24.1421C6.03178 24.4155 6.4114 24.4847 6.81536 24.4085C7.15732 24.3438 7.4578 24.1905 7.67618 23.9039C7.88059 23.6358 7.95846 23.3279 7.9665 22.9943C7.95444 22.8886 7.95148 22.7811 7.92926 22.6779C7.8188 22.1633 7.52043 21.8235 7.00369 21.7046V21.7046ZM7.33147 23.6641C7.23349 24.0646 6.88286 24.248 6.49625 24.1096C6.24804 24.0206 6.08637 23.8373 5.98417 23.6022C5.82038 23.2246 5.78695 22.8316 5.89296 22.4333C5.97422 22.1287 6.21905 21.9044 6.59381 21.9582C6.82382 21.991 7.00327 22.1095 7.137 22.298C7.31771 22.5522 7.37718 22.8434 7.38543 23.1493V23.2118L7.40066 23.2142C7.37845 23.3644 7.36744 23.5173 7.33147 23.6641V23.6641Z" fill="#4FAA41"/>
</svg>
