<svg width="27" height="26" viewBox="0 0 27 26" fill="none" xmlns="http://www.w3.org/2000/svg">
<g clip-path="url(#clip0_149_1495)">
<path d="M26.3937 14.6507C27.3035 7.52799 22.2734 1.01616 15.1637 0.106324C8.05398 -0.803512 1.51616 4.22658 0.606324 11.3363C-0.303512 18.446 4.72658 24.9708 11.8363 25.8937C18.959 26.8035 25.4708 21.7734 26.3937 14.6507Z" fill="#FF6C37"/>
<path d="M18.1924 8.34689L12.7074 13.8319L11.1606 12.2852C16.5547 6.89116 17.0876 7.35907 18.1924 8.34689Z" fill="white"/>
<path d="M12.7073 13.9619C12.6683 13.9619 12.6423 13.9489 12.6163 13.9229L11.0566 12.3762C11.0046 12.3242 11.0046 12.2462 11.0566 12.1943C16.5416 6.70925 17.1135 7.22915 18.2703 8.26897C18.2963 8.29496 18.3093 8.32096 18.3093 8.35995C18.3093 8.39894 18.2963 8.42494 18.2703 8.45093L12.7853 13.9229C12.7723 13.9489 12.7333 13.9619 12.7073 13.9619ZM11.3425 12.2852L12.7073 13.65L17.9973 8.35995C17.0355 7.5021 16.3856 7.24215 11.3425 12.2852Z" fill="#FF6C37"/>
<path d="M14.2799 15.4047L12.7852 13.9099L18.2702 8.42493C19.7389 9.90666 17.5423 12.3112 14.2799 15.4047Z" fill="white"/>
<path d="M14.2802 15.5346C14.2412 15.5346 14.2152 15.5216 14.1892 15.4956L12.6945 14.0009C12.6685 13.9749 12.6685 13.9489 12.6685 13.9099C12.6685 13.8709 12.6815 13.8449 12.7075 13.8189L18.1925 8.33391C18.2445 8.28192 18.3224 8.28192 18.3744 8.33391C18.7124 8.64586 18.8943 9.08778 18.8813 9.5427C18.8553 10.9854 17.2176 12.8181 14.3841 15.4956C14.3452 15.5216 14.3062 15.5346 14.2802 15.5346ZM12.9674 13.9099C13.7993 14.7548 14.1502 15.0927 14.2802 15.2227C16.4638 13.143 18.5824 11.0114 18.5954 9.5427C18.6084 9.20476 18.4784 8.86682 18.2574 8.60687L12.9674 13.9099Z" fill="#FF6C37"/>
<path d="M11.1867 12.3242L12.2915 13.429C12.3175 13.455 12.3175 13.481 12.2915 13.507C12.2785 13.52 12.2785 13.52 12.2655 13.52L9.97788 14.0139C9.8609 14.0269 9.75692 13.9489 9.73092 13.832C9.71792 13.767 9.74392 13.702 9.78291 13.663L11.1087 12.3372C11.1347 12.3112 11.1737 12.2982 11.1867 12.3242Z" fill="white"/>
<path d="M9.93901 14.1439C9.74405 14.1439 9.60107 13.9879 9.60107 13.793C9.60107 13.702 9.64007 13.611 9.70506 13.546L11.0308 12.2203C11.1088 12.1553 11.2128 12.1553 11.2908 12.2203L12.3956 13.3251C12.4736 13.39 12.4736 13.507 12.3956 13.585C12.3696 13.611 12.3436 13.624 12.3046 13.637L10.017 14.1309C9.991 14.1309 9.96501 14.1439 9.93901 14.1439ZM11.1478 12.4672L9.87402 13.741C9.84803 13.767 9.83503 13.806 9.86103 13.845C9.87403 13.884 9.91302 13.8969 9.95201 13.884L12.0966 13.416L11.1478 12.4672Z" fill="#FF6C37"/>
<path d="M21.0908 5.3055C20.2589 4.49964 18.9202 4.52564 18.1143 5.37048C17.3085 6.21533 17.3345 7.54109 18.1793 8.34695C18.8682 9.00983 19.908 9.12681 20.7269 8.6329L19.2451 7.15116L21.0908 5.3055Z" fill="white"/>
<path d="M19.635 9.06177C18.4002 9.06177 17.3994 8.06095 17.3994 6.82617C17.3994 5.5914 18.4002 4.59058 19.635 4.59058C20.2069 4.59058 20.7658 4.81154 21.1817 5.21446C21.2077 5.24046 21.2207 5.26645 21.2207 5.30545C21.2207 5.34444 21.2077 5.37044 21.1817 5.39643L19.427 7.15111L20.8048 8.52887C20.8568 8.58086 20.8568 8.65884 20.8048 8.71083C20.7918 8.72383 20.7918 8.72383 20.7788 8.73683C20.4409 8.94479 20.0379 9.06177 19.635 9.06177ZM19.635 4.86353C18.5432 4.86353 17.6594 5.74737 17.6724 6.83917C17.6724 7.93097 18.5562 8.81482 19.648 8.80182C19.947 8.80182 20.2459 8.73683 20.5189 8.59386L19.1541 7.2421C19.1281 7.2161 19.1151 7.19011 19.1151 7.15111C19.1151 7.11212 19.1281 7.08613 19.1541 7.06013L20.8958 5.31845C20.5448 5.0195 20.1029 4.86353 19.635 4.86353Z" fill="#FF6C37"/>
<path d="M21.1298 5.34448L21.1038 5.31848L19.2451 7.15115L20.7139 8.61989C20.8568 8.5289 20.9998 8.42492 21.1168 8.30794C21.9486 7.48909 21.9486 6.16333 21.1298 5.34448Z" fill="white"/>
<path d="M20.7269 8.76277C20.688 8.76277 20.662 8.74977 20.636 8.72378L19.1542 7.24204C19.1282 7.21605 19.1152 7.19005 19.1152 7.15106C19.1152 7.11207 19.1282 7.08607 19.1542 7.06008L20.9999 5.21441C21.0519 5.16242 21.1299 5.16242 21.1819 5.21441L21.2209 5.2404C22.0917 6.11125 22.0917 7.51499 21.2339 8.39883C21.1039 8.52881 20.9609 8.64579 20.8049 8.73677C20.7659 8.74977 20.7399 8.76277 20.7269 8.76277ZM19.4272 7.15106L20.7399 8.46382C20.8439 8.39883 20.9479 8.30785 21.0259 8.22986C21.7668 7.489 21.8057 6.28022 21.0909 5.50036L19.4272 7.15106Z" fill="#FF6C37"/>
<path d="M18.4132 8.58088C18.1013 8.26894 17.5944 8.26894 17.2824 8.58088L12.3823 13.481L13.2012 14.2999L18.3872 9.75067C18.7252 9.46472 18.7512 8.95781 18.4652 8.61987C18.4392 8.60688 18.4262 8.59388 18.4132 8.58088Z" fill="white"/>
<path d="M13.1881 14.4298C13.1491 14.4298 13.1231 14.4168 13.0971 14.3908L12.2783 13.572C12.2263 13.52 12.2263 13.442 12.2783 13.39L17.1784 8.48987C17.5423 8.12594 18.1272 8.12594 18.4911 8.48987C18.8551 8.8538 18.8551 9.4387 18.4911 9.80263C18.4781 9.81563 18.4651 9.82863 18.4521 9.84163L13.2661 14.3908C13.2531 14.4168 13.2271 14.4298 13.1881 14.4298ZM12.5642 13.481L13.2011 14.1179L18.2962 9.64666C18.5821 9.4127 18.6081 8.98378 18.3742 8.69783C18.1402 8.41188 17.7113 8.38589 17.4253 8.61985C17.4123 8.63284 17.3993 8.64584 17.3733 8.65884L12.5642 13.481Z" fill="#FF6C37"/>
<path d="M8.62615 19.057C8.57416 19.083 8.54816 19.135 8.56116 19.187L8.78212 20.1228C8.83411 20.2528 8.75613 20.4088 8.61315 20.4478C8.50917 20.4867 8.39219 20.4478 8.3272 20.3698L6.89746 18.953L11.5636 14.2869L13.1753 14.3129L14.2671 15.4047C14.0072 15.6256 12.4345 17.1463 8.62615 19.057Z" fill="white"/>
<path d="M8.52215 20.5777C8.41816 20.5777 8.31418 20.5387 8.24919 20.4607L6.83245 19.044C6.80645 19.018 6.79346 18.992 6.79346 18.953C6.79346 18.914 6.80645 18.888 6.83245 18.862L11.4986 14.1959C11.5246 14.1699 11.5636 14.1569 11.5896 14.1569L13.2013 14.1829C13.2403 14.1829 13.2663 14.1959 13.2923 14.2218L14.3841 15.3137C14.4101 15.3396 14.4231 15.3786 14.4231 15.4176C14.4231 15.4566 14.4101 15.4826 14.3711 15.5086L14.2801 15.5866C12.9024 16.7954 11.0307 18.0042 8.70411 19.161L8.92507 20.0838C8.96407 20.2528 8.88608 20.4347 8.73011 20.5257C8.65212 20.5647 8.58713 20.5777 8.52215 20.5777ZM7.0924 18.953L8.43116 20.2788C8.47015 20.3437 8.54814 20.3697 8.61313 20.3307C8.67812 20.2918 8.70411 20.2138 8.66512 20.1488L8.44416 19.2129C8.41816 19.096 8.47015 18.992 8.57414 18.94C10.8747 17.7832 12.7334 16.5874 14.0981 15.4046L13.1363 14.4428L11.6416 14.4168L7.0924 18.953Z" fill="#FF6C37"/>
<path d="M5.79266 20.0708L6.91046 18.953L8.57416 20.6167L5.92264 20.4347C5.80566 20.4217 5.72767 20.3178 5.74067 20.2008C5.74067 20.1488 5.75367 20.0968 5.79266 20.0708Z" fill="white"/>
<path d="M8.57404 20.7337L5.90952 20.5517C5.71455 20.5387 5.58458 20.3698 5.59757 20.1748C5.61057 20.0968 5.63657 20.0188 5.70155 19.9668L6.81935 18.8491C6.87134 18.7971 6.94933 18.7971 7.00132 18.8491L8.66502 20.5128C8.70401 20.5517 8.71701 20.6037 8.69102 20.6557C8.66502 20.7077 8.62603 20.7337 8.57404 20.7337ZM6.91034 19.135L5.88352 20.1618C5.84453 20.1878 5.84453 20.2528 5.88352 20.2788C5.89652 20.2918 5.90952 20.3048 5.93551 20.3048L8.2361 20.4608L6.91034 19.135Z" fill="#FF6C37"/>
<path d="M11.1085 14.8847C11.0305 14.8847 10.9785 14.8198 10.9785 14.7548C10.9785 14.7158 10.9915 14.6898 11.0175 14.6638L12.2783 13.403C12.3303 13.351 12.4083 13.351 12.4602 13.403L13.2791 14.2219C13.3181 14.2609 13.3311 14.2998 13.3181 14.3518C13.3051 14.3908 13.2661 14.4298 13.2141 14.4428L11.1345 14.8847C11.1215 14.8847 11.1085 14.8847 11.1085 14.8847ZM12.3693 13.676L11.5114 14.5338L12.9152 14.2349L12.3693 13.676Z" fill="#FF6C37"/>
<path d="M13.1752 14.3128L11.7455 14.6248C11.6415 14.6508 11.5375 14.5858 11.5115 14.4818C11.4985 14.4168 11.5115 14.3518 11.5635 14.2998L12.3564 13.507L13.1752 14.3128Z" fill="white"/>
<path d="M11.7195 14.7548C11.5375 14.7548 11.3945 14.6118 11.3945 14.4298C11.3945 14.3388 11.4335 14.2609 11.4855 14.1959L12.2784 13.403C12.3304 13.351 12.4083 13.351 12.4603 13.403L13.2792 14.2219C13.3182 14.2609 13.3312 14.2998 13.3182 14.3518C13.3052 14.3908 13.2662 14.4298 13.2142 14.4428L11.7845 14.7548C11.7585 14.7548 11.7325 14.7548 11.7195 14.7548ZM12.3694 13.676L11.6675 14.3778C11.6415 14.4038 11.6415 14.4298 11.6545 14.4558C11.6675 14.4818 11.6935 14.4948 11.7325 14.4948L12.9283 14.2349L12.3694 13.676Z" fill="#FF6C37"/>
<path d="M21.1427 6.59217C21.1167 6.51418 21.0257 6.47519 20.9477 6.50118C20.8698 6.52718 20.8308 6.61816 20.8568 6.69615C20.8568 6.70915 20.8698 6.72214 20.8698 6.73514C20.9477 6.89111 20.9217 7.08608 20.8178 7.22905C20.7658 7.29404 20.7788 7.38502 20.8308 7.43702C20.8958 7.48901 20.9867 7.47601 21.0387 7.41102C21.2337 7.16406 21.2727 6.85212 21.1427 6.59217Z" fill="#FF6C37"/>
</g>
<defs>
<clipPath id="clip0_149_1495">
<rect width="26" height="26" fill="white" transform="translate(0.5)"/>
</clipPath>
</defs>
</svg>
