<svg width="27" height="26" viewBox="0 0 27 26" fill="none" xmlns="http://www.w3.org/2000/svg">
<path d="M0.90625 12.9817V25.677H26.2969V0.286377H0.90625V12.9817ZM21.367 11.9661C21.9752 12.1072 22.5279 12.4253 22.9555 12.8801C23.1909 13.1252 23.3955 13.398 23.5648 13.6926C23.5648 13.7251 22.468 14.4665 21.7997 14.8809C21.7753 14.8972 21.6778 14.7915 21.5702 14.6311C21.4482 14.4206 21.2748 14.2444 21.0663 14.119C20.8578 13.9936 20.6209 13.9231 20.3778 13.914C19.608 13.8612 19.1123 14.2654 19.1164 14.9297C19.11 15.095 19.1479 15.2591 19.2261 15.405C19.3947 15.7564 19.7095 15.9656 20.6967 16.3922C22.5147 17.1742 23.2927 17.6901 23.7761 18.4234C24.3164 19.2359 24.4363 20.5481 24.0706 21.519C23.6644 22.5753 22.6691 23.2923 21.2614 23.53C20.6185 23.6036 19.9689 23.5968 19.3277 23.5097C18.349 23.3509 17.4463 22.8849 16.75 22.1792C16.5164 21.9212 16.0614 21.2489 16.0898 21.2001C16.164 21.1451 16.2421 21.0955 16.3234 21.0518L17.2578 20.5156L17.987 20.0931L18.1394 20.3186C18.3965 20.6863 18.7237 20.9997 19.1022 21.2408C19.9147 21.6673 21.0237 21.6084 21.5722 21.1148C21.7563 20.9339 21.8712 20.6942 21.8968 20.4374C21.9224 20.1805 21.8571 19.9229 21.7123 19.7092C21.5092 19.4268 21.103 19.1892 19.9675 18.6936C18.6573 18.1289 18.0927 17.7795 17.5767 17.2229C17.2546 16.8557 17.0168 16.4224 16.88 15.9534C16.7779 15.4177 16.7628 14.869 16.8353 14.3284C17.1055 13.0629 18.0541 12.1793 19.4394 11.9173C20.0809 11.8379 20.7308 11.8557 21.367 11.9701V11.9661ZM15.4073 13.0304V14.0704H12.1106V23.4609H9.77266V14.0684H6.46781V13.0528C6.45894 12.7032 6.46843 12.3533 6.49625 12.0047C6.50844 11.9884 8.5275 11.9803 10.965 11.9843H15.3952L15.4073 13.0304Z" fill="#007ACC"/>
</svg>
