<svg width="20" height="19" viewBox="0 0 20 19" fill="none" xmlns="http://www.w3.org/2000/svg">
<path fill-rule="evenodd" clip-rule="evenodd" d="M9.77109 0.4021C4.52493 0.4021 0.271484 4.65476 0.271484 9.9017C0.271484 14.0989 2.99312 17.6597 6.76763 18.916C7.24261 19.0039 7.41677 18.7102 7.41677 18.4593C7.41677 18.2329 7.40806 17.4848 7.4041 16.6908C4.76163 17.2655 4.20353 15.5698 4.20353 15.5698C3.7713 14.4718 3.14907 14.1797 3.14907 14.1797C2.28698 13.5899 3.21399 13.6026 3.21399 13.6026C4.16791 13.6699 4.6698 14.5818 4.6698 14.5818C5.51685 16.0337 6.89192 15.6141 7.43419 15.3711C7.51968 14.7568 7.76588 14.338 8.03741 14.1005C5.92771 13.8607 3.70955 13.0461 3.70955 9.40614C3.70955 8.3691 4.08083 7.52126 4.6888 6.85629C4.58985 6.61642 4.26448 5.65063 4.78063 4.34206C4.78063 4.34206 5.5786 4.08715 7.39381 5.31577C8.15141 5.1052 8.96362 4.99991 9.77109 4.99595C10.5786 4.99991 11.3916 5.1052 12.1507 5.31577C13.9636 4.08636 14.7608 4.34206 14.7608 4.34206C15.2777 5.65063 14.9523 6.61642 14.8542 6.85629C15.4629 7.52126 15.8318 8.3691 15.8318 9.40614C15.8318 13.0548 13.6097 13.8583 11.4945 14.0934C11.8349 14.3879 12.1389 14.9666 12.1389 15.8524C12.1389 17.1238 12.1278 18.1466 12.1278 18.4593C12.1278 18.7118 12.2988 19.0087 12.7801 18.9152C16.553 17.6573 19.2715 14.0982 19.2715 9.90249C19.2707 4.65555 15.0172 0.4021 9.77109 0.4021Z" fill="white"/>
<path d="M3.86956 14.0421C3.84898 14.0896 3.77457 14.1038 3.70649 14.0714C3.63762 14.0405 3.59883 13.9756 3.62099 13.9289C3.64157 13.8806 3.71599 13.8671 3.78486 13.8996C3.85373 13.9296 3.89331 13.9946 3.86956 14.0421Z" fill="white"/>
<path d="M4.25417 14.4709C4.20904 14.5129 4.12038 14.4931 4.06021 14.4274C3.99768 14.3609 3.98659 14.2722 4.03251 14.2303C4.07921 14.1883 4.16471 14.2081 4.22725 14.2746C4.28979 14.3403 4.30166 14.4282 4.25417 14.4709Z" fill="white"/>
<path d="M4.62846 15.018C4.56988 15.0584 4.47488 15.0204 4.4163 14.9365C4.35772 14.8518 4.35772 14.7505 4.41788 14.7101C4.47646 14.6697 4.57067 14.7061 4.63004 14.7901C4.68783 14.8756 4.68783 14.9769 4.62846 15.018Z" fill="white"/>
<path d="M5.14146 15.5468C5.08921 15.6046 4.97839 15.5888 4.89764 15.5104C4.81452 15.4336 4.79156 15.3252 4.84381 15.2674C4.89685 15.2096 5.00847 15.2262 5.09001 15.3038C5.17234 15.3806 5.19688 15.4899 5.14146 15.5468Z" fill="white"/>
<path d="M5.85016 15.8533C5.8272 15.9277 5.72033 15.9617 5.61267 15.9301C5.50501 15.8976 5.43455 15.8105 5.45672 15.7353C5.47888 15.6601 5.58654 15.6253 5.695 15.6593C5.80187 15.691 5.87232 15.7781 5.85016 15.8533Z" fill="white"/>
<path d="M6.62772 15.9103C6.6301 15.9887 6.53906 16.0536 6.42585 16.0552C6.31265 16.0576 6.22003 15.9942 6.21924 15.9175C6.21924 15.8383 6.30869 15.7742 6.4219 15.7718C6.5351 15.7694 6.62772 15.8327 6.62772 15.9103Z" fill="white"/>
<path d="M7.35101 15.7876C7.36447 15.8636 7.2861 15.9427 7.17369 15.9633C7.06365 15.9839 6.96153 15.9364 6.94728 15.8604C6.93382 15.782 7.01378 15.7036 7.12381 15.6831C7.23543 15.6633 7.33676 15.7092 7.35101 15.7876Z" fill="white"/>
</svg>
