<svg width="19" height="19" viewBox="0 0 19 19" fill="none" xmlns="http://www.w3.org/2000/svg">
<path fill-rule="evenodd" clip-rule="evenodd" d="M9.4996 0C4.25345 0 0 4.25266 0 9.4996C0 13.6968 2.72164 17.2576 6.49615 18.5139C6.97113 18.6018 7.14529 18.3081 7.14529 18.0572C7.14529 17.8308 7.13658 17.0827 7.13262 16.2887C4.49015 16.8634 3.93204 15.1677 3.93204 15.1677C3.49981 14.0697 2.87759 13.7776 2.87759 13.7776C2.0155 13.1878 2.9425 13.2005 2.9425 13.2005C3.89642 13.2678 4.39832 14.1797 4.39832 14.1797C5.24537 15.6316 6.62043 15.212 7.1627 14.969C7.2482 14.3547 7.4944 13.9359 7.76593 13.6984C5.65622 13.4586 3.43807 12.644 3.43807 9.00404C3.43807 7.967 3.80934 7.11916 4.41732 6.45419C4.31836 6.21432 3.993 5.24853 4.50915 3.93996C4.50915 3.93996 5.30711 3.68505 7.12233 4.91367C7.87992 4.7031 8.69214 4.59781 9.4996 4.59385C10.3071 4.59781 11.1201 4.7031 11.8793 4.91367C13.6921 3.68426 14.4893 3.93996 14.4893 3.93996C15.0062 5.24853 14.6808 6.21432 14.5827 6.45419C15.1915 7.11916 15.5604 7.967 15.5604 9.00404C15.5604 12.6527 13.3382 13.4562 11.223 13.6913C11.5634 13.9858 11.8674 14.5645 11.8674 15.4503C11.8674 16.7217 11.8563 17.7445 11.8563 18.0572C11.8563 18.3097 12.0273 18.6066 12.5086 18.5131C16.2815 17.2552 19 13.6961 19 9.5004C18.9992 4.25345 14.7458 0 9.4996 0Z" fill="#111111"/>
<path d="M3.59808 13.6397C3.5775 13.6872 3.50308 13.7015 3.435 13.669C3.36613 13.6381 3.32734 13.5732 3.34951 13.5265C3.37009 13.4782 3.4445 13.4648 3.51337 13.4972C3.58225 13.5273 3.62183 13.5922 3.59808 13.6397Z" fill="#111111"/>
<path d="M3.98268 14.0688C3.93756 14.1108 3.84889 14.091 3.78873 14.0253C3.72619 13.9588 3.71511 13.8701 3.76102 13.8282C3.80773 13.7862 3.89323 13.806 3.95577 13.8725C4.0183 13.9382 4.03018 14.0261 3.98268 14.0688Z" fill="#111111"/>
<path d="M4.35722 14.6159C4.29864 14.6563 4.20364 14.6183 4.14506 14.5344C4.08648 14.4497 4.08648 14.3484 4.14664 14.308C4.20522 14.2676 4.29943 14.304 4.3588 14.388C4.41659 14.4735 4.41659 14.5748 4.35722 14.6159Z" fill="#111111"/>
<path d="M4.87022 15.1445C4.81797 15.2023 4.70715 15.1865 4.6264 15.1081C4.54328 15.0313 4.52032 14.9228 4.57257 14.8651C4.62561 14.8073 4.73723 14.8239 4.81877 14.9015C4.9011 14.9783 4.92564 15.0875 4.87022 15.1445Z" fill="#111111"/>
<path d="M5.57867 15.4512C5.55572 15.5256 5.44885 15.5596 5.34118 15.528C5.23352 15.4955 5.16307 15.4084 5.18523 15.3332C5.2074 15.258 5.31506 15.2232 5.42351 15.2572C5.53038 15.2889 5.60084 15.376 5.57867 15.4512Z" fill="#111111"/>
<path d="M6.35599 15.5082C6.35837 15.5866 6.26733 15.6515 6.15413 15.6531C6.04092 15.6555 5.9483 15.5921 5.94751 15.5154C5.94751 15.4362 6.03696 15.3721 6.15017 15.3697C6.26337 15.3673 6.35599 15.4306 6.35599 15.5082Z" fill="#111111"/>
<path d="M7.07953 15.3855C7.09299 15.4615 7.01461 15.5406 6.9022 15.5612C6.79217 15.5818 6.69004 15.5343 6.6758 15.4583C6.66234 15.3799 6.74229 15.3015 6.85233 15.281C6.96395 15.2612 7.06528 15.3071 7.07953 15.3855Z" fill="#111111"/>
</svg>
