<svg width="20" height="20" viewBox="0 0 20 20" fill="none" xmlns="http://www.w3.org/2000/svg">
<path d="M16.4608 16.3575H13.6454V11.9484C13.6454 10.8969 13.6266 9.5439 12.181 9.5439C10.7148 9.5439 10.4901 10.689 10.4901 11.8725V16.3575H7.67561V7.29018H10.3787V8.52893H10.4161C10.9676 7.58699 11.9919 7.02427 13.0827 7.06453C15.9364 7.06453 16.4617 8.94185 16.4617 11.3828L16.4608 16.3575ZM4.4988 6.05049C3.59623 6.05049 2.86499 5.31923 2.86499 4.41662C2.86499 3.51401 3.59623 2.78274 4.4988 2.78274C5.40138 2.78274 6.13262 3.51401 6.13262 4.41662C6.13262 5.31923 5.40138 6.05049 4.4988 6.05049ZM5.90604 16.3575H3.08782V7.29018H5.90604V16.3575ZM17.8643 0.168545H1.6731C0.908157 0.160118 0.280847 0.773406 0.271484 1.53838V17.7966C0.280847 18.5625 0.908157 19.1758 1.6731 19.1674H17.8643C18.6311 19.1767 19.2612 18.5634 19.2715 17.7966V1.53744C19.2602 0.770597 18.6301 0.157309 17.8643 0.167608" fill="white"/>
</svg>
