<svg width="19" height="19" viewBox="0 0 19 19" fill="none" xmlns="http://www.w3.org/2000/svg">
<path d="M16.1893 16.19H13.3739V11.7809C13.3739 10.7294 13.3551 9.37642 11.9095 9.37642C10.4433 9.37642 10.2186 10.5215 10.2186 11.705V16.19H7.40413V7.1227H10.1072V8.36145H10.1446C10.6961 7.41951 11.7204 6.85678 12.8112 6.89705C15.665 6.89705 16.1902 8.77436 16.1902 11.2153L16.1893 16.19ZM4.22732 5.88301C3.32474 5.88301 2.59351 5.15175 2.59351 4.24914C2.59351 3.34653 3.32474 2.61526 4.22732 2.61526C5.1299 2.61526 5.86113 3.34653 5.86113 4.24914C5.86113 5.15175 5.1299 5.88301 4.22732 5.88301ZM5.63455 16.19H2.81634V7.1227H5.63455V16.19ZM17.5928 0.00106421H1.40162C0.636673 -0.00736265 0.00936283 0.605926 0 1.3709V17.6291C0.00936283 18.395 0.636673 19.0083 1.40162 18.9999H17.5928C18.3596 19.0093 18.9897 18.396 19 17.6291V1.36996C18.9888 0.603117 18.3586 -0.0101716 17.5928 0.00012785" fill="#111111"/>
</svg>
