<svg width="19" height="20" viewBox="0 0 19 20" fill="none" xmlns="http://www.w3.org/2000/svg">
<path d="M9.13586 0C6.65661 0 6.34485 0.0120842 5.37074 0.0580044C4.39663 0.106341 3.73314 0.26827 3.15187 0.507538C2.54216 0.750213 1.98989 1.13088 1.53368 1.62291C1.06898 2.10592 0.709293 2.69024 0.479632 3.33525C0.25352 3.94913 0.0993524 4.65243 0.0548151 5.6796C0.0114198 6.7128 0 7.04149 0 9.66861C0 12.2933 0.0114198 12.622 0.0548151 13.6528C0.100494 14.6824 0.25352 15.3845 0.479632 15.9995C0.713739 16.6352 1.0255 17.1741 1.53368 17.7119C2.04072 18.2496 2.55005 18.5807 3.15073 18.8273C3.73314 19.0665 4.39549 19.2297 5.36846 19.2768C6.34371 19.3227 6.65433 19.3348 9.13586 19.3348C11.6174 19.3348 11.9269 19.3227 12.9021 19.2768C13.8739 19.2285 14.5397 19.0665 15.121 18.8273C15.7303 18.5845 16.2822 18.2038 16.738 17.7119C17.2462 17.1741 17.558 16.6352 17.7921 15.9995C18.0171 15.3845 18.1712 14.6824 18.2169 13.6528C18.2603 12.622 18.2717 12.2933 18.2717 9.6674C18.2717 7.04149 18.2603 6.7128 18.2169 5.6808C18.1712 4.65244 18.0171 3.94913 17.7921 3.33525C17.5625 2.69023 17.2028 2.10589 16.738 1.62291C16.282 1.13069 15.7297 0.750003 15.1198 0.507538C14.5374 0.26827 13.8728 0.105133 12.901 0.0580044C11.9257 0.0120842 11.6162 0 9.13357 0H9.137H9.13586ZM8.31706 1.74255H9.137C11.5763 1.74255 11.8652 1.75101 12.8279 1.79814C13.7186 1.84043 14.2028 1.99873 14.5249 2.13045C14.9508 2.30567 15.2557 2.51594 15.5755 2.8543C15.8952 3.19266 16.0928 3.5141 16.2584 3.96605C16.384 4.30562 16.5325 4.81799 16.5724 5.76056C16.617 6.77926 16.6261 7.08499 16.6261 9.66498C16.6261 12.245 16.617 12.5519 16.5724 13.5706C16.5325 14.5132 16.3829 15.0243 16.2584 15.3651C16.1119 15.7849 15.8781 16.1644 15.5744 16.4757C15.2546 16.814 14.9508 17.0231 14.5237 17.1983C14.204 17.3312 13.7198 17.4883 12.8279 17.5318C11.8652 17.5777 11.5763 17.5886 9.137 17.5886C6.69773 17.5886 6.40766 17.5777 5.44497 17.5318C4.55422 17.4883 4.07117 17.3312 3.74913 17.1983C3.35229 17.0435 2.99328 16.7966 2.6985 16.4757C2.39445 16.1639 2.16031 15.784 2.01331 15.3639C1.88884 15.0243 1.73924 14.512 1.69927 13.5694C1.65587 12.5507 1.64674 12.245 1.64674 9.66256C1.64674 7.08137 1.65587 6.77685 1.69927 5.75814C1.74038 4.81557 1.88884 4.3032 2.01446 3.96242C2.18004 3.51168 2.37875 3.18903 2.6985 2.85067C3.01826 2.51231 3.32203 2.30326 3.74913 2.12804C4.07117 1.99511 4.55422 1.83801 5.44497 1.79451C6.28775 1.75342 6.61436 1.74134 8.31706 1.74013V1.74255ZM14.0133 3.34734C13.8693 3.34734 13.7267 3.37734 13.5937 3.43564C13.4607 3.49394 13.3399 3.57939 13.2381 3.68712C13.1363 3.79484 13.0555 3.92273 13.0004 4.06348C12.9453 4.20423 12.917 4.35508 12.917 4.50742C12.917 4.65977 12.9453 4.81062 13.0004 4.95137C13.0555 5.09212 13.1363 5.22001 13.2381 5.32773C13.3399 5.43545 13.4607 5.52091 13.5937 5.57921C13.7267 5.63751 13.8693 5.66751 14.0133 5.66751C14.304 5.66751 14.5829 5.54529 14.7885 5.32773C14.9941 5.11017 15.1096 4.8151 15.1096 4.50742C15.1096 4.19975 14.9941 3.90468 14.7885 3.68712C14.5829 3.46956 14.304 3.34734 14.0133 3.34734ZM9.137 4.70319C8.5147 4.69291 7.89669 4.81374 7.31894 5.05864C6.74119 5.30353 6.21525 5.6676 5.77175 6.12964C5.32824 6.59169 4.97603 7.14247 4.73562 7.74994C4.4952 8.35741 4.37139 9.00942 4.37139 9.668C4.37139 10.3266 4.4952 10.9786 4.73562 11.5861C4.97603 12.1935 5.32824 12.7443 5.77175 13.2064C6.21525 13.6684 6.74119 14.0325 7.31894 14.2774C7.89669 14.5223 8.5147 14.6431 9.137 14.6328C10.3687 14.6125 11.5434 14.0805 12.4076 13.1516C13.2718 12.2227 13.7562 10.9715 13.7562 9.668C13.7562 8.36451 13.2718 7.11329 12.4076 6.18441C11.5434 5.25554 10.3687 4.72352 9.137 4.70319ZM9.137 6.44453C9.94476 6.44453 10.7194 6.78408 11.2906 7.38848C11.8618 7.99289 12.1827 8.81264 12.1827 9.6674C12.1827 10.5222 11.8618 11.3419 11.2906 11.9463C10.7194 12.5507 9.94476 12.8903 9.137 12.8903C8.32924 12.8903 7.55456 12.5507 6.98339 11.9463C6.41221 11.3419 6.09133 10.5222 6.09133 9.6674C6.09133 8.81264 6.41221 7.99289 6.98339 7.38848C7.55456 6.78408 8.32924 6.44453 9.137 6.44453Z" fill="white"/>
</svg>
