<svg width="99" height="50" viewBox="0 0 99 50" fill="none" xmlns="http://www.w3.org/2000/svg">
<path d="M18.464 3.796C17.3547 4.884 14.9653 8.16933 11.296 13.652C14.304 13.0973 16.16 12.82 16.864 12.82C17.5893 12.82 18.336 12.9587 19.104 13.236C19.872 13.5133 20.256 13.8227 20.256 14.164C20.256 14.292 20.192 14.3987 20.064 14.484C19.9573 14.5693 19.84 14.612 19.712 14.612C19.6053 14.612 19.0613 14.4627 18.08 14.164C17.0987 13.8653 16.1493 13.716 15.232 13.716C14.336 13.716 12.8853 13.8973 10.88 14.26C6.976 19.9773 4.39467 23.4013 3.136 24.532C2.496 25.108 1.97333 25.396 1.568 25.396C1.20533 25.396 1.024 25.14 1.024 24.628C1.024 24.3507 1.09867 24.0093 1.248 23.604C1.39733 23.1987 1.6 22.996 1.856 22.996C1.94133 22.996 1.99467 23.092 2.016 23.284C2.03733 23.4547 2.06933 23.54 2.112 23.54C2.53867 23.54 3.328 22.7827 4.48 21.268C5.65333 19.732 7.25333 17.492 9.28 14.548C6.82667 15.0173 4.96 15.252 3.68 15.252C1.22667 15.252 0 14.612 0 13.332C0 12.0307 1.088 10.388 3.264 8.404C5.44 6.39867 8.08533 4.63867 11.2 3.124C14.3147 1.588 17.0347 0.82 19.36 0.82C21.0027 0.82 21.824 1.268 21.824 2.164C21.824 2.84667 21.408 3.604 20.576 4.436C19.744 5.268 19.0827 5.684 18.592 5.684C18.464 5.684 18.4 5.60933 18.4 5.46C18.4 5.28933 18.4427 5.172 18.528 5.108C18.976 4.89467 19.392 4.55333 19.776 4.084C20.1813 3.61467 20.384 3.17733 20.384 2.772C20.384 2.004 19.584 1.62 17.984 1.62C16.384 1.62 14.272 2.292 11.648 3.636C9.024 4.98 6.74133 6.53733 4.8 8.308C2.85867 10.0787 1.888 11.54 1.888 12.692C1.888 13.8227 3.008 14.388 5.248 14.388C6.10133 14.388 7.59467 14.2173 9.728 13.876C12.0107 10.612 13.664 8.308 14.688 6.964C16.5653 4.532 17.856 3.316 18.56 3.316C18.6667 3.316 18.72 3.348 18.72 3.412L18.464 3.796ZM20.5748 19.412L20.0628 19.188C19.6574 19.188 17.4494 20.9267 13.4388 24.404C13.0548 24.7453 12.7668 24.916 12.5748 24.916C12.4041 24.916 12.2654 24.852 12.1588 24.724C12.0734 24.596 12.0308 24.4573 12.0308 24.308C12.0308 24.1373 12.3934 23.412 13.1188 22.132C13.8441 20.8307 14.2068 20.1373 14.2068 20.052C14.2068 19.9453 14.1641 19.892 14.0788 19.892C13.7801 20.0413 13.5561 20.116 13.4068 20.116C13.2574 20.116 13.1828 20.0733 13.1828 19.988C13.1828 19.8813 13.2254 19.7853 13.3108 19.7C14.2068 18.996 14.8254 18.644 15.1668 18.644C15.5294 18.644 15.7108 18.8467 15.7108 19.252C15.7108 19.6573 15.4441 20.3187 14.9108 21.236C14.3774 22.132 14.1108 22.6547 14.1108 22.804C14.1108 22.9533 14.1428 23.028 14.2068 23.028C14.2921 23.028 14.3881 22.9853 14.4948 22.9C14.6014 22.8147 15.1668 22.324 16.1908 21.428C19.6681 18.6973 21.5668 17.332 21.8868 17.332C21.9081 17.332 21.9188 17.332 21.9188 17.332C22.0468 17.332 22.1748 17.3747 22.3028 17.46C22.4308 17.5453 22.4948 17.6733 22.4948 17.844C22.4948 18.0147 22.2494 18.324 21.7588 18.772C21.2681 19.1987 20.8734 19.412 20.5748 19.412ZM27.0663 20.66C26.9383 20.66 26.8743 20.6173 26.8743 20.532C26.8743 20.4253 26.9489 20.308 27.0983 20.18C27.8023 19.604 28.1543 19.0813 28.1543 18.612C28.1543 18.3133 27.8876 18.1427 27.3543 18.1C26.3943 18.1213 25.2423 18.8147 23.8983 20.18C22.5756 21.5453 21.9143 22.5693 21.9143 23.252C21.9143 23.4867 22.0423 23.604 22.2983 23.604C22.5756 23.604 22.9383 23.4227 23.3863 23.06C23.7916 22.804 24.5489 22.164 25.6583 21.14C25.9143 20.884 26.1596 20.756 26.3943 20.756C26.6929 20.756 26.8423 20.8947 26.8423 21.172C26.8423 21.2787 26.8103 21.364 26.7463 21.428C26.6823 21.492 26.5649 21.6307 26.3943 21.844C26.2236 22.036 26.0743 22.2173 25.9463 22.388C25.5623 22.9427 25.3703 23.3053 25.3703 23.476C25.3703 23.9027 25.5409 24.116 25.8823 24.116C26.3303 24.116 27.1729 23.7107 28.4103 22.9C29.6476 22.068 30.7783 21.236 31.8023 20.404L33.3383 19.188C33.4876 19.0813 33.6263 19.028 33.7543 19.028C33.8823 19.028 33.9463 19.1027 33.9463 19.252V19.316C32.3036 20.7027 30.5649 22.004 28.7303 23.22C26.9169 24.436 25.7223 25.044 25.1463 25.044C24.4636 25.044 24.1223 24.6813 24.1223 23.956C24.1223 23.7853 24.1543 23.6253 24.2183 23.476C24.2823 23.3267 24.3143 23.22 24.3143 23.156C24.3143 23.092 24.2929 23.0493 24.2503 23.028C24.1863 23.028 23.7703 23.316 23.0023 23.892C22.2556 24.468 21.5943 24.756 21.0183 24.756C20.4636 24.756 20.1863 24.4573 20.1863 23.86C20.1863 23.2627 20.5809 22.4627 21.3703 21.46C22.1809 20.436 23.2583 19.508 24.6023 18.676C25.9463 17.844 27.2583 17.428 28.5383 17.428C28.8369 17.428 29.0823 17.5027 29.2743 17.652C29.4876 17.8013 29.5943 18.036 29.5943 18.356C29.5943 18.6547 29.2849 19.1133 28.6663 19.732C28.0476 20.3507 27.5143 20.66 27.0663 20.66ZM46.9648 19.284C42.4634 23.0387 39.6794 24.916 38.6128 24.916C37.9941 24.916 37.6848 24.66 37.6848 24.148C37.6848 23.636 37.9088 23.028 38.3568 22.324C38.8261 21.62 39.2848 21.0013 39.7328 20.468C40.2021 19.9133 40.4368 19.5827 40.4368 19.476C40.4368 19.3693 40.4048 19.316 40.3408 19.316C38.3568 20.6387 37.1728 21.4493 36.7888 21.748C36.4261 22.0467 35.8181 22.5373 34.9648 23.22C34.1328 23.9027 33.5888 24.3293 33.3328 24.5C33.0768 24.6707 32.7994 24.756 32.5008 24.756C32.2021 24.756 32.0528 24.628 32.0528 24.372C32.0528 24.0733 32.6501 23.1347 33.8448 21.556C34.9968 19.9773 35.5728 19.092 35.5728 18.9C35.5728 18.8573 35.5301 18.836 35.4448 18.836C35.3808 18.836 34.4634 19.4867 32.6928 20.788L32.5648 20.308C34.0794 19.092 35.1034 18.3133 35.6368 17.972C36.1701 17.6307 36.5968 17.46 36.9168 17.46C37.2581 17.46 37.4288 17.62 37.4288 17.94C37.4288 18.1533 36.8208 19.028 35.6048 20.564C34.4101 22.0787 33.8128 22.9 33.8128 23.028C33.8128 23.1347 33.8448 23.188 33.9088 23.188C33.9941 23.188 35.2101 22.3347 37.5568 20.628C39.9248 18.9 41.3648 18.036 41.8768 18.036C42.0261 18.036 42.1648 18.1 42.2928 18.228C42.4421 18.3347 42.5168 18.4413 42.5168 18.548C42.5168 18.804 41.9514 19.6573 40.8208 21.108C39.6901 22.5373 39.1248 23.348 39.1248 23.54C39.1248 23.732 39.2528 23.828 39.5088 23.828C39.7861 23.828 40.3621 23.54 41.2368 22.964C42.8368 21.9187 44.3088 20.8413 45.6528 19.732L46.3568 19.156C46.5061 19.0493 46.6448 18.996 46.7728 18.996C46.9008 18.996 46.9648 19.06 46.9648 19.188V19.284ZM59.9485 19.284C55.4472 23.0387 52.6632 24.916 51.5965 24.916C50.9778 24.916 50.6685 24.66 50.6685 24.148C50.6685 23.636 50.8925 23.028 51.3405 22.324C51.8098 21.62 52.2685 21.0013 52.7165 20.468C53.1858 19.9133 53.4205 19.5827 53.4205 19.476C53.4205 19.3693 53.3885 19.316 53.3245 19.316C51.3405 20.6387 50.1565 21.4493 49.7725 21.748C49.4098 22.0467 48.8018 22.5373 47.9485 23.22C47.1165 23.9027 46.5725 24.3293 46.3165 24.5C46.0605 24.6707 45.7832 24.756 45.4845 24.756C45.1858 24.756 45.0365 24.628 45.0365 24.372C45.0365 24.0733 45.6338 23.1347 46.8285 21.556C47.9805 19.9773 48.5565 19.092 48.5565 18.9C48.5565 18.8573 48.5138 18.836 48.4285 18.836C48.3645 18.836 47.4472 19.4867 45.6765 20.788L45.5485 20.308C47.0632 19.092 48.0872 18.3133 48.6205 17.972C49.1538 17.6307 49.5805 17.46 49.9005 17.46C50.2418 17.46 50.4125 17.62 50.4125 17.94C50.4125 18.1533 49.8045 19.028 48.5885 20.564C47.3938 22.0787 46.7965 22.9 46.7965 23.028C46.7965 23.1347 46.8285 23.188 46.8925 23.188C46.9778 23.188 48.1938 22.3347 50.5405 20.628C52.9085 18.9 54.3485 18.036 54.8605 18.036C55.0098 18.036 55.1485 18.1 55.2765 18.228C55.4258 18.3347 55.5005 18.4413 55.5005 18.548C55.5005 18.804 54.9352 19.6573 53.8045 21.108C52.6738 22.5373 52.1085 23.348 52.1085 23.54C52.1085 23.732 52.2365 23.828 52.4925 23.828C52.7698 23.828 53.3458 23.54 54.2205 22.964C55.8205 21.9187 57.2925 20.8413 58.6365 19.732L59.3405 19.156C59.4898 19.0493 59.6285 18.996 59.7565 18.996C59.8845 18.996 59.9485 19.06 59.9485 19.188V19.284ZM63.2363 20.66C63.1083 20.66 63.0443 20.6173 63.0443 20.532C63.0443 20.4253 63.1189 20.308 63.2683 20.18C63.9723 19.604 64.3243 19.0813 64.3243 18.612C64.3243 18.3133 64.0576 18.1427 63.5243 18.1C62.5643 18.1213 61.4123 18.8147 60.0683 20.18C58.7456 21.5453 58.0843 22.5693 58.0843 23.252C58.0843 23.4867 58.2123 23.604 58.4683 23.604C58.7456 23.604 59.1083 23.4227 59.5563 23.06C59.9616 22.804 60.7189 22.164 61.8283 21.14C62.0843 20.884 62.3296 20.756 62.5643 20.756C62.8629 20.756 63.0123 20.8947 63.0123 21.172C63.0123 21.2787 62.9803 21.364 62.9163 21.428C62.8523 21.492 62.7349 21.6307 62.5643 21.844C62.3936 22.036 62.2443 22.2173 62.1163 22.388C61.7323 22.9427 61.5403 23.3053 61.5403 23.476C61.5403 23.9027 61.7109 24.116 62.0523 24.116C62.5003 24.116 63.3429 23.7107 64.5803 22.9C65.8176 22.068 66.9483 21.236 67.9723 20.404L69.5083 19.188C69.6576 19.0813 69.7963 19.028 69.9243 19.028C70.0523 19.028 70.1163 19.1027 70.1163 19.252V19.316C68.4736 20.7027 66.7349 22.004 64.9003 23.22C63.0869 24.436 61.8923 25.044 61.3163 25.044C60.6336 25.044 60.2923 24.6813 60.2923 23.956C60.2923 23.7853 60.3243 23.6253 60.3883 23.476C60.4523 23.3267 60.4843 23.22 60.4843 23.156C60.4843 23.092 60.4629 23.0493 60.4203 23.028C60.3563 23.028 59.9403 23.316 59.1723 23.892C58.4256 24.468 57.7643 24.756 57.1883 24.756C56.6336 24.756 56.3563 24.4573 56.3563 23.86C56.3563 23.2627 56.7509 22.4627 57.5403 21.46C58.3509 20.436 59.4283 19.508 60.7723 18.676C62.1163 17.844 63.4283 17.428 64.7083 17.428C65.0069 17.428 65.2523 17.5027 65.4443 17.652C65.6576 17.8013 65.7643 18.036 65.7643 18.356C65.7643 18.6547 65.4549 19.1133 64.8363 19.732C64.2176 20.3507 63.6843 20.66 63.2363 20.66Z" fill="white"/>
<path d="M22.86 31.62C22.8733 31.46 22.96 31.2733 23.12 31.06C23.28 30.8467 23.4467 30.6867 23.62 30.58C23.7933 30.46 23.9333 30.3867 24.04 30.36C24.28 30.2933 24.3933 30.3667 24.38 30.58L23.64 38.92L30.72 30.92C30.8933 30.72 31.08 30.5667 31.28 30.46C31.4933 30.34 31.6533 30.3067 31.76 30.36C31.8667 30.4 31.8933 30.5133 31.84 30.7C31.7867 30.8733 31.6667 31.0667 31.48 31.28L27.04 36.3L31.6 44.84C31.6533 44.9333 31.6267 45.0867 31.52 45.3C31.4133 45.5 31.26 45.6867 31.06 45.86C30.86 46.0467 30.6667 46.1667 30.48 46.22C30.2933 46.2867 30.1733 46.2667 30.12 46.16L25.68 37.84L23.52 40.28L23.1 44.98C23.0867 45.1267 23 45.3067 22.84 45.52C22.68 45.7333 22.5133 45.9 22.34 46.02C22.1667 46.14 22.0267 46.2133 21.92 46.24C21.68 46.3067 21.5667 46.2333 21.58 46.02L22.86 31.62ZM41.8416 45C41.8282 45.1467 41.7416 45.3267 41.5816 45.54C41.4216 45.7533 41.2549 45.9133 41.0816 46.02C40.9082 46.14 40.7616 46.2133 40.6416 46.24C40.4016 46.2933 40.2949 46.2133 40.3216 46L40.4616 44.7C40.0882 45.1267 39.6349 45.4933 39.1016 45.8C38.5682 46.1067 38.0216 46.26 37.4616 46.26C35.1816 46.2867 34.2082 44.7133 34.5416 41.54L35.0216 35.96C35.0349 35.8133 35.1216 35.6333 35.2816 35.42C35.4416 35.1933 35.6082 35.0267 35.7816 34.92C35.9549 34.8 36.0949 34.7267 36.2016 34.7C36.4416 34.6333 36.5549 34.7067 36.5416 34.92L36.0616 40.52C35.7549 43.3467 36.5816 44.7533 38.5416 44.74C38.9282 44.74 39.2149 44.6867 39.4016 44.58C39.8682 44.3133 40.3016 43.58 40.7016 42.38C40.7016 42.3667 40.7016 42.3467 40.7016 42.32L41.3816 35.94C41.3949 35.78 41.4816 35.6 41.6416 35.4C41.8016 35.1867 41.9682 35.0267 42.1416 34.92C42.3149 34.8 42.4616 34.7267 42.5816 34.7C42.8216 34.6467 42.9282 34.72 42.9016 34.92L41.8416 45ZM50.1373 43.88C50.3107 43.84 50.4107 43.8867 50.4373 44.02C50.464 44.14 50.4107 44.3067 50.2773 44.52C50.144 44.72 49.884 44.98 49.4973 45.3C49.1107 45.6067 48.684 45.86 48.2173 46.06C47.2973 46.4333 46.6107 46.34 46.1573 45.78C45.7307 45.2867 45.6173 44.3467 45.8173 42.96L46.3373 36.94H44.8173C44.6173 36.94 44.564 36.8133 44.6573 36.56C44.764 36.2267 44.964 35.9533 45.2573 35.74C45.564 35.5133 45.7907 35.4 45.9373 35.4H46.4773L46.7773 31.98C46.7907 31.8333 46.8773 31.6533 47.0373 31.44C47.1973 31.2267 47.364 31.06 47.5373 30.94C47.7107 30.82 47.8507 30.7467 47.9573 30.72C48.1973 30.6533 48.3107 30.7267 48.2973 30.94L47.9173 35.4C48.504 35.4 49.084 35.4 49.6573 35.4C49.8573 35.4 49.9107 35.5333 49.8173 35.8C49.7107 36.1333 49.504 36.4067 49.1973 36.62C48.904 36.8333 48.684 36.94 48.5373 36.94H47.7773L47.3373 41.94C47.3373 41.9533 47.3373 41.9667 47.3373 41.98C47.1507 43.18 47.2373 43.98 47.5973 44.38C47.9307 44.7933 48.3373 44.8933 48.8173 44.68C49.044 44.5733 49.2773 44.42 49.5173 44.22C49.7707 44.02 49.9773 43.9067 50.1373 43.88ZM60.6797 37.74C60.573 37.94 60.413 38.1333 60.1997 38.32C59.9997 38.4933 59.813 38.6 59.6397 38.64C59.4664 38.68 59.3597 38.6467 59.3197 38.54C59.093 37.9267 58.7264 37.4067 58.2197 36.98C57.7264 36.54 57.2064 36.28 56.6597 36.2C56.113 36.12 55.6864 36.1667 55.3797 36.34C55.113 36.9 55.1864 37.4933 55.5997 38.12C55.9597 38.6667 56.6797 39.1533 57.7597 39.58C58.493 39.8733 58.9797 40.0867 59.2197 40.22C60.2864 40.8733 60.8064 41.7133 60.7797 42.74C60.753 43.5533 60.3664 44.3333 59.6197 45.08C58.2597 46.4267 56.7197 46.68 54.9997 45.84C54.0264 45.36 53.2264 44.62 52.5997 43.62C52.5464 43.5267 52.5664 43.38 52.6597 43.18C52.7664 42.98 52.9197 42.7867 53.1197 42.6C53.3197 42.4133 53.513 42.2867 53.6997 42.22C53.8864 42.1533 54.0064 42.1667 54.0597 42.26C54.7797 43.3933 55.6997 44.16 56.8197 44.56C57.5397 44.8133 58.1864 44.8467 58.7597 44.66C58.9464 44.5933 59.0597 44.5333 59.0997 44.48C59.273 44.1867 59.3064 43.8067 59.1997 43.34C59.013 42.4867 58.273 41.8 56.9797 41.28C56.9264 41.2533 56.773 41.1933 56.5197 41.1C55.7997 40.82 55.3197 40.5867 55.0797 40.4C53.8664 39.52 53.4664 38.4667 53.8797 37.24C54.0397 36.7467 54.3064 36.3067 54.6797 35.92C55.6264 34.9333 56.653 34.52 57.7597 34.68C58.453 34.7733 59.073 35.06 59.6197 35.54C60.1664 36.0067 60.5597 36.58 60.7997 37.26C60.8397 37.3667 60.7997 37.5267 60.6797 37.74ZM69.1945 34.68C71.6479 34.8933 72.6345 36.9 72.1545 40.7C71.9545 42.22 71.5079 43.44 70.8145 44.36C69.7479 45.7733 68.4212 46.4067 66.8345 46.26C64.1412 46.02 63.0012 44.2867 63.4145 41.06C63.5345 40.14 63.7079 39.3333 63.9345 38.64C64.1745 37.9467 64.5279 37.3 64.9945 36.7C66.1279 35.2067 67.5279 34.5333 69.1945 34.68ZM68.0345 36.2C67.0212 36.1067 66.3345 36.3 65.9745 36.78C65.7745 37.0333 65.5745 37.4533 65.3745 38.04C65.1745 38.6133 65.0279 39.2867 64.9345 40.06C64.5612 42.9667 65.5812 44.5267 67.9945 44.74C68.9145 44.82 69.5212 44.6667 69.8145 44.28C69.9612 44.08 70.1145 43.7533 70.2745 43.3C70.4345 42.8333 70.5545 42.3 70.6345 41.7C71.0879 38.22 70.2212 36.3867 68.0345 36.2ZM74.6763 35.58C74.8096 35.3667 74.9763 35.1733 75.1763 35C75.3763 34.8267 75.5629 34.7267 75.7363 34.7C75.9096 34.66 76.0163 34.6933 76.0563 34.8L78.4563 43.36L81.6763 35.74C81.7563 35.5533 81.8896 35.36 82.0763 35.16C82.2763 34.96 82.4696 34.82 82.6563 34.74C82.8563 34.66 82.9963 34.66 83.0763 34.74C83.1563 34.8067 83.1563 34.94 83.0763 35.14L78.8363 45.2C78.6363 45.6667 78.3029 46 77.8363 46.2C77.5696 46.32 77.4163 46.2933 77.3763 46.12L74.5363 36.06C74.5096 35.94 74.5563 35.78 74.6763 35.58ZM90.6391 34.68C93.0924 34.8933 94.0791 36.9 93.5991 40.7C93.3991 42.22 92.9524 43.44 92.2591 44.36C91.1924 45.7733 89.8657 46.4067 88.2791 46.26C85.5857 46.02 84.4457 44.2867 84.8591 41.06C84.9791 40.14 85.1524 39.3333 85.3791 38.64C85.6191 37.9467 85.9724 37.3 86.4391 36.7C87.5724 35.2067 88.9724 34.5333 90.6391 34.68ZM89.4791 36.2C88.4657 36.1067 87.7791 36.3 87.4191 36.78C87.2191 37.0333 87.0191 37.4533 86.8191 38.04C86.6191 38.6133 86.4724 39.2867 86.3791 40.06C86.0057 42.9667 87.0257 44.5267 89.4391 44.74C90.3591 44.82 90.9657 44.6667 91.2591 44.28C91.4057 44.08 91.5591 43.7533 91.7191 43.3C91.8791 42.8333 91.9991 42.3 92.0791 41.7C92.5324 38.22 91.6657 36.3867 89.4791 36.2ZM97.1008 29.94C97.1141 29.78 97.2008 29.5933 97.3608 29.38C97.5208 29.1667 97.6875 29.0067 97.8608 28.9C98.0341 28.78 98.1741 28.7067 98.2808 28.68C98.5208 28.6133 98.6341 28.6867 98.6208 28.9L97.1408 44.98C97.1275 45.1267 97.0408 45.3067 96.8808 45.52C96.7208 45.7467 96.5541 45.9133 96.3808 46.02C96.2075 46.14 96.0675 46.2133 95.9608 46.24C95.7208 46.3067 95.6075 46.2333 95.6208 46.02L97.1008 29.94Z" fill="white"/>
</svg>
