<svg width="81" height="64" viewBox="0 0 81 64" fill="none" xmlns="http://www.w3.org/2000/svg">
<path d="M48.3951 3.28516C39.1471 11.7405 30.1879 20.5077 20.8533 28.8693C18.0136 31.413 15.0941 33.8825 12.3815 36.5648C11.2312 37.7022 9.97492 38.9528 9.17509 40.39C8.32974 41.909 13.028 40.8985 13.4054 40.8625C24.2424 39.8304 34.9227 37.4752 45.6274 35.5747C55.3026 33.857 65.0365 32.1219 74.7892 30.8944C75.6466 30.7865 78.2333 30.6216 77.3769 30.7369C75.6864 30.9644 73.8689 30.9227 72.1791 30.8044C62.3182 30.1141 52.4066 26.8858 42.9722 24.1665C30.9897 20.7126 19.1966 16.645 7.28498 12.9608C6.5087 12.7207 5.73113 12.4847 4.95608 12.2407C4.40509 12.0673 3.78286 11.4028 3.30222 11.7232C3.22708 11.7733 3.4357 11.845 3.50474 11.9032C4.33618 12.6044 4.46721 12.6632 5.34985 13.5458C11.0238 19.2197 15.3853 26.1967 19.6833 32.9195C24.8441 40.9922 29.7545 49.2273 35.7493 56.726C36.4343 57.5829 37.4529 59.1803 38.4719 59.7862C39.099 60.1591 39.0694 58.5555 39.0795 58.4361C39.6278 51.9712 39.5456 45.2901 39.417 38.8149C39.2508 30.4472 38.3411 22.0973 38.3594 13.7258C38.3653 11.0564 38.5651 8.61575 39.4845 6.12033" stroke="black" stroke-width="6.57" stroke-linecap="round"/>
</svg>
