<svg width="81" height="50" viewBox="0 0 81 50" fill="none" xmlns="http://www.w3.org/2000/svg">
<path fill-rule="evenodd" clip-rule="evenodd" d="M1.5339 47.8659C1.5339 47.8659 1.53381 47.8661 1.66465 47.9394C1.73604 48.0713 1.73613 48.0713 1.73613 48.0713L1.74347 48.0673L1.76596 48.0552L1.85451 48.0079C1.9324 47.9665 2.04729 47.9057 2.19504 47.8285C2.49054 47.6741 2.91741 47.4542 3.44246 47.1923C4.4927 46.6683 5.93498 45.9764 7.50384 45.3046C9.07324 44.6326 10.7664 43.9819 12.3189 43.539C13.8771 43.0945 15.2725 42.8659 16.2563 43.0196L16.3026 42.7232C15.25 42.5587 13.8005 42.8044 12.2366 43.2505C10.667 43.6982 8.96095 44.3543 7.38574 45.0288C5.80998 45.7036 4.3622 46.3981 3.30852 46.9238C2.78161 47.1867 2.35306 47.4075 2.05613 47.5626C2.04933 47.5661 2.0426 47.5697 2.03593 47.5732C2.081 47.4896 2.13172 47.395 2.1875 47.2902C2.43174 46.8311 2.77302 46.1756 3.16142 45.3893C3.93793 43.8172 4.90409 41.7196 5.65963 39.6222C6.41331 37.53 6.96483 35.4184 6.8963 33.8257C6.862 33.0284 6.67156 32.3407 6.25254 31.853C5.82884 31.3598 5.19156 31.094 4.31636 31.1025L4.31928 31.4025C5.12892 31.3946 5.67237 31.638 6.02498 32.0485C6.38226 32.4643 6.56371 33.0747 6.59658 33.8386C6.66241 35.3686 6.12942 37.4329 5.37738 39.5205C4.6272 41.6031 3.66644 43.6895 2.89245 45.2564C2.5056 46.0396 2.16573 46.6924 1.92265 47.1493C1.80112 47.3777 1.70379 47.5571 1.63691 47.6793C1.60346 47.7404 1.57763 47.7872 1.56019 47.8187L1.54042 47.8542L1.5339 47.8659ZM1.66465 47.9394L1.73613 48.0713L1.28052 48.3178L1.5339 47.8659L1.66465 47.9394Z" fill="white"/>
<path fill-rule="evenodd" clip-rule="evenodd" d="M39.9273 11.582C27.0438 18.5258 15.5458 28.2828 8.59493 39.534L8.85015 39.6917C15.7665 28.4964 27.2192 18.772 40.0696 11.8461C52.92 4.92008 67.1541 0.8 79.6239 0.8V0.5C67.0937 0.499999 52.8108 4.63813 39.9273 11.582Z" fill="white"/>
<path d="M1.66465 47.9394C1.53381 47.8661 1.5339 47.8659 1.5339 47.8659M1.66465 47.9394C1.73604 48.0713 1.73613 48.0713 1.73613 48.0713M1.5339 47.8659L1.66465 47.9394L1.73613 48.0713M1.5339 47.8659L1.28052 48.3178L1.73613 48.0713M1.5339 47.8659L1.54042 47.8542L1.56019 47.8187C1.57763 47.7872 1.60346 47.7404 1.63691 47.6793C1.70379 47.5571 1.80112 47.3777 1.92265 47.1493C2.16573 46.6924 2.5056 46.0396 2.89245 45.2564C3.66644 43.6895 4.6272 41.6031 5.37738 39.5205C6.12942 37.4329 6.66241 35.3686 6.59658 33.8386C6.56371 33.0747 6.38226 32.4643 6.02498 32.0485C5.67237 31.638 5.12892 31.3946 4.31928 31.4025L4.31636 31.1025C5.19156 31.094 5.82884 31.3598 6.25254 31.853C6.67156 32.3407 6.862 33.0284 6.8963 33.8257C6.96483 35.4184 6.41331 37.53 5.65963 39.6222C4.90409 41.7196 3.93793 43.8172 3.16142 45.3893C2.77302 46.1756 2.43174 46.8311 2.1875 47.2902C2.13172 47.395 2.081 47.4896 2.03593 47.5732C2.0426 47.5697 2.04933 47.5661 2.05613 47.5626C2.35306 47.4075 2.78161 47.1867 3.30852 46.9238C4.3622 46.3981 5.80998 45.7036 7.38574 45.0288C8.96095 44.3543 10.667 43.6982 12.2366 43.2505C13.8005 42.8044 15.25 42.5587 16.3026 42.7232L16.2563 43.0196C15.2725 42.8659 13.8771 43.0945 12.3189 43.539C10.7664 43.9819 9.07324 44.6326 7.50384 45.3046C5.93498 45.9764 4.4927 46.6683 3.44246 47.1923C2.91741 47.4542 2.49054 47.6741 2.19504 47.8285C2.04729 47.9057 1.9324 47.9665 1.85451 48.0079L1.76596 48.0552L1.74347 48.0673L1.73613 48.0713M8.59493 39.534C15.5458 28.2828 27.0438 18.5258 39.9273 11.582C52.8108 4.63813 67.0937 0.499999 79.6239 0.5V0.8C67.1541 0.8 52.92 4.92008 40.0696 11.8461C27.2192 18.772 15.7665 28.4964 8.85015 39.6917L8.59493 39.534Z" stroke="white"/>
</svg>
