<svg width="79" height="48" viewBox="0 0 79 48" fill="none" xmlns="http://www.w3.org/2000/svg">
<path fill-rule="evenodd" clip-rule="evenodd" d="M0.634238 47.396C0.634238 47.396 0.634153 47.3962 0.764991 47.4695C0.836378 47.6014 0.836472 47.6014 0.836472 47.6014L0.843816 47.5974L0.866302 47.5853L0.954856 47.538C1.03274 47.4966 1.14763 47.4358 1.29538 47.3586C1.59088 47.2042 2.01776 46.9843 2.5428 46.7224C3.59304 46.1984 5.03532 45.5065 6.60418 44.8347C8.17358 44.1627 9.8667 43.512 11.4192 43.0691C12.9774 42.6246 14.3729 42.396 15.3566 42.5497L15.403 42.2533C14.3504 42.0888 12.9008 42.3345 11.3369 42.7806C9.76734 43.2283 8.0613 43.8844 6.48609 44.5589C4.91033 45.2337 3.46254 45.9282 2.40886 46.4539C1.88195 46.7168 1.45341 46.9376 1.15647 47.0927C1.14967 47.0963 1.14294 47.0998 1.13627 47.1033C1.18134 47.0197 1.23206 46.9251 1.28784 46.8203C1.53209 46.3612 1.87336 45.7057 2.26176 44.9194C3.03827 43.3473 4.00443 41.2497 4.75997 39.1523C5.51365 37.0601 6.06517 34.9485 5.99664 33.3558C5.96234 32.5585 5.7719 31.8708 5.35288 31.3831C4.92918 30.8899 4.29191 30.6241 3.4167 30.6326L3.41962 30.9326C4.22926 30.9247 4.77271 31.1681 5.12532 31.5786C5.48261 31.9944 5.66405 32.6048 5.69692 33.3687C5.76275 34.8987 5.22976 36.963 4.47772 39.0507C3.72755 41.1332 2.76678 43.2196 1.99279 44.7865C1.60594 45.5697 1.26607 46.2225 1.02299 46.6794C0.901459 46.9078 0.804135 47.0872 0.737248 47.2094C0.703806 47.2705 0.677974 47.3173 0.660532 47.3488L0.640757 47.3843L0.634238 47.396ZM0.764991 47.4695L0.836472 47.6014L0.380859 47.8479L0.634238 47.396L0.764991 47.4695Z" fill="white"/>
<path fill-rule="evenodd" clip-rule="evenodd" d="M39.0276 11.1121C26.1441 18.0559 14.6462 27.8129 7.69527 39.0641L7.9505 39.2218C14.8668 28.0265 26.3196 18.3021 39.1699 11.3762C52.0203 4.45019 66.2545 0.330106 78.7242 0.330106V0.0301056C66.194 0.030105 51.9111 4.16824 39.0276 11.1121Z" fill="white"/>
</svg>
