<svg width="107" height="51" viewBox="0 0 107 51" fill="none" xmlns="http://www.w3.org/2000/svg">
<path d="M34.752 5.8242L34.368 6.6562L35.392 7.4242L35.712 8.1282L35.776 9.0242L36.288 9.6002V10.3042L36.736 10.8802L36.992 11.5842L37.568 12.5442L37.44 13.5042L38.016 13.8882L38.4 14.8482L38.272 15.2962L39.04 16.2562L39.168 17.0242L38.976 17.4082L39.296 17.7282L39.616 18.3682L40.064 18.4962V18.8802L40.384 19.9042L40.32 20.2242L40.896 21.0562V21.8242L41.024 22.4002L42.048 23.6162L42.24 24.2562L42.176 24.6402L42.368 25.3442L42.624 25.6642L42.56 26.3682L42.816 26.6242H43.264L43.328 27.5202L43.648 28.2242L44.16 28.6082L44.288 30.4002L45.696 32.7682V33.2162L46.784 35.2002L47.04 35.9682V36.4162L48.704 40.0002L48.576 40.4482L48.64 40.7682L49.152 41.1522V41.7282L49.6 42.3042L50.176 44.4802L51.008 45.7602L51.136 46.1442L51.072 46.7202L51.584 47.6802L51.904 48.9602L51.712 49.7282L51.52 50.0482L50.944 49.9202L50.432 50.2402L50.176 50.1122L49.856 50.3682L49.408 50.3042L48.64 50.4962L48.32 50.7522L46.72 50.4962L46.336 50.6242L45.824 50.0482L45.12 50.4962H44.48L43.328 50.7522L42.688 50.5602L42.432 50.2402L42.112 50.4322L41.472 50.3042L41.216 50.4962L40.768 50.1122L40.32 50.4962H39.104L38.592 49.4722L38.336 49.2162L37.952 49.0882V48.5762L37.632 48.3842L37.248 47.7442L36.8 46.2082L36.416 45.6322L36.48 45.1842L36.032 44.4802L34.944 43.3922L34.176 43.2642L31.744 43.3282L30.592 43.0722L29.888 43.2642L28.096 43.0722L27.52 43.2642L26.176 43.0082L25.856 42.8162L25.28 43.3922L24.64 43.1362L21.44 43.2002L20.8 42.9442L20.544 42.6882L19.84 43.2642L19.008 43.0722L19.136 42.5602L17.792 43.2642L17.344 43.2002L15.744 44.2242L15.68 44.7362L15.168 45.6962L15.232 46.1442L14.08 47.2962L14.272 47.5522L14.144 48.5762L14.208 48.9602L13.888 49.2162L13.12 49.3442L13.376 50.0482L12.672 50.1122L11.328 50.7522L10.688 50.4322L9.85597 50.3042L9.53597 50.3682L9.34397 50.6242L6.20797 50.3682L4.22397 50.6242L3.64797 50.3682L2.94397 50.4962L2.62397 50.3682L2.49597 50.0482L2.04797 50.2402L1.79197 50.4962L0.831966 50.3042L0.447966 50.3682L0.191965 50.0482L-3.45111e-05 49.4082V48.6402L0.255965 47.8082L0.959965 47.5522L0.703966 46.5922L1.47197 45.2482L1.66397 43.9682L2.11197 43.5202L2.36797 42.8802V42.4322L3.07197 42.1122L3.64797 41.6642L3.51997 41.2802L2.94397 40.8322L3.19997 40.5122L4.03197 40.1922L3.64797 38.9122L4.73597 38.0802L4.60797 37.2482L4.86397 36.5442L5.11997 36.3522L5.56797 36.2882L5.43997 35.2642L6.59197 32.6402L6.52797 32.1922L6.71997 31.6162L6.97597 31.4242L7.42397 31.3602L7.48797 30.4002L7.29597 30.1442L7.80797 29.2482V28.7362L8.25597 28.1602L9.21597 25.7282L9.47197 25.4722L9.40797 25.0242L9.59997 24.3202L9.98397 23.6802L10.176 22.8482L10.624 22.2722L11.456 20.1602L11.712 19.9042L11.648 19.3922L12.288 18.1122V17.6642L12.864 17.0882L13.248 15.4882L14.208 13.3762L14.528 12.2242L14.976 11.7122L14.912 11.1362L15.168 10.8802L15.488 9.7282L16.064 8.8962L16.32 7.4882L17.024 6.7842L16.896 6.2082L17.344 5.5682L18.432 2.4962L18.816 1.8562L19.392 1.4722L19.52 0.896198L20.16 0.576199L21.632 0.256195L23.296 0.384197L24.128 0.640198L24.32 0.192196H25.408L25.664 0.384197H27.52L28.032 0.192196L28.8 0.256195L30.72 0.0641975L31.488 0.320198L33.344 1.7922V2.7522L34.24 4.2242V5.1202L34.496 5.5042L34.752 5.8242ZM31.808 18.4962L31.552 19.3282L31.168 19.4562L30.656 20.0322L29.824 21.4402L29.504 21.5682H29.056L28.864 21.8882L28.48 22.1442L28.224 21.9522L28.096 21.3122L27.776 21.1842L27.2 20.6722V20.0322L27.648 20.4162L28.48 20.4802L28.352 19.9042L27.84 19.9682L27.52 20.1602L27.072 19.3282L26.368 19.5202L26.304 19.2002L26.432 18.8802L26.24 18.6882L25.408 19.4562L25.088 19.5842L24.704 19.3922L24.512 20.8002L24.576 21.1842L24.32 21.4402L23.744 23.2962L23.488 23.5522L23.424 24.4482L22.464 25.4722L22.336 25.7922L22.656 25.9202L21.76 26.6242H21.248L21.376 26.9442L22.08 27.0722L22.144 27.9682L22.016 28.2242L21.632 28.4162L20.928 27.9042L20.8 28.8002L20.864 29.6322L21.056 29.9522L21.376 30.1442V30.5282L21.248 30.7842L22.208 31.1042L22.336 31.8082H22.656L23.232 32.1282L24 32.3202L23.744 31.6802L23.936 31.4242L24.64 31.2322L25.408 31.2962L25.984 31.6162L25.92 32.0642L25.664 32.3202L25.536 32.7682L25.856 32.8322L26.944 32.5762L27.264 32.7682L27.008 31.8722L27.072 31.4882L27.392 31.6162L27.776 31.4882L28.096 31.6162L27.904 32.0002V32.3202H28.48L28.672 31.5522L29.312 31.2322L30.464 30.9762L30.976 30.5282L30.272 29.2482V28.7362L31.552 27.5842L31.104 27.2002L31.424 27.0082L32.64 27.3282V26.8802L33.088 26.0482L33.472 25.9842L34.176 25.2162L34.496 25.2802L34.752 24.8962L34.88 24.3842L34.368 24.1282L33.728 24.7042L32.96 25.6642L32.512 25.7282L31.68 26.2402L31.296 26.1762L31.168 26.5602L30.272 27.0722L30.144 27.4562H30.592L30.464 27.7762L30.144 27.9042L29.568 27.3282L29.696 26.9442L30.656 26.1762L30.848 25.7922H29.888L29.504 25.1522L29.184 24.9602L29.504 24.2562L29.312 23.9362L28.608 24.1282L28.48 23.7442L28.224 23.4882L28.096 23.1042L28.672 22.5282L29.312 22.1442L29.888 22.5922L30.144 22.4642L30.272 21.8882L30.144 21.5682L30.336 21.3762V20.9282L30.976 20.4162L32.512 18.6242L33.216 18.3682L33.344 17.8562L32.96 17.6642L32.704 17.7922L32.192 18.3682L31.808 18.4962ZM36.288 26.3682H36.736L36.992 26.4962L36.736 26.8162L35.328 27.8402L35.52 28.1602L35.2 28.6722L34.496 28.9922V29.4402L34.24 29.6962L33.984 29.6322L33.28 29.7602L32.96 29.5682L33.92 28.6082L33.728 28.3522L33.088 28.0322L32.512 28.4162L31.808 28.5442L31.68 28.8642L31.872 29.9522H31.296L31.36 30.4002L31.68 30.6562L31.808 30.4002L32.128 30.2722L32.32 30.5922L32.96 30.4002L33.024 30.7842L32.832 31.3602L33.088 31.6802L32.64 31.7442L31.36 32.6402H30.72L30.464 33.0242L29.568 33.7282L29.056 35.2642L29.76 35.1362L30.592 34.3042L31.296 33.9842L31.424 33.1522L31.872 32.9602L32.384 32.3202L33.088 32.4482L33.344 32.6402L33.088 32.8962L32.512 32.6402L32.64 33.7282L32 34.1122L30.592 35.7122L30.848 36.4162L30.4 36.2882H29.568V36.6722L29.824 37.0562L30.272 37.2482L30.72 36.8002L31.424 36.5442L31.296 35.9682L32 35.5842L32.384 35.5202L32.64 35.6482L32.704 35.9682L32 37.3762L31.424 37.5042L31.296 37.8882L30.336 38.5922L30.144 39.6162L31.424 38.4642H31.808L32.64 37.9522L32.512 37.1202L33.344 36.1602L33.792 36.2882L34.368 35.3922L35.008 35.1362L35.456 35.2642L35.072 35.8402L34.752 36.9282L35.2 36.8642L35.776 36.4802L36.288 36.4162L36.672 35.7122L37.696 34.6242L38.144 33.4722L37.824 33.5362L37.632 33.7922L37.312 33.8562L35.904 33.1522L34.304 34.2402L33.92 34.1762L34.048 34.5602L33.984 34.8802L33.536 35.3922L33.216 35.5202L32.256 34.6882L32.64 34.4962L33.088 34.5602L33.408 33.9842L34.048 33.4722L34.944 32.2562L35.52 31.7442L35.904 31.6162L35.776 30.6562L35.328 30.7202L34.624 31.1042L34.176 30.7202V30.2722H34.752L36.544 27.9042L36.864 27.2002L37.248 27.1362L37.696 26.6242L38.016 26.8802L38.208 26.4962L38.144 26.0482L37.76 26.1762L36.928 26.0482L36.608 26.1122L36.288 26.3682ZM16.064 28.5442L15.936 29.2482L15.552 28.9922H15.232L15.296 29.3122L15.616 29.4402L15.744 29.6962L15.488 29.9522L15.104 30.0802L15.232 30.7842L14.848 30.6562L14.464 30.7202L13.696 31.1682L13.312 31.8722L13.568 32.5122L14.016 31.8722L16.448 30.0802V29.6322L16.768 29.1202L17.024 29.4402L17.408 29.5682L17.6 29.9522L18.176 29.5042L18.304 29.1202L17.984 29.1842L17.856 29.4402H17.472L17.28 28.4162L17.6 28.1602L18.048 28.4162L17.856 28.0962H17.152L16.384 28.4802L16.064 28.5442ZM41.728 35.5202L41.216 36.0322L39.872 36.8642L38.976 37.0562L39.104 37.5042L38.784 38.2082L38.016 39.0402L37.888 39.3602L37.952 39.7442L38.4 39.6162L39.104 38.7202L39.552 38.5922L39.68 38.1442L40.768 37.0562L41.408 36.6082L41.92 35.9682L42.048 35.5842L41.728 35.5202ZM36.992 24.3842L36.288 24.1282V24.5762L35.456 26.1762V26.4962L34.624 26.6882L34.048 27.0082L33.792 27.7122H34.112L35.008 27.0722L35.456 27.2002L35.648 26.4962L36.032 26.3682V25.9202L36.992 24.9602V24.5122L38.08 24.0002L38.592 23.4882L38.784 23.1042L38.336 23.0402L38.016 23.1682L37.184 24.0642L36.992 24.3842ZM37.312 31.2322L37.184 31.6162L36.288 32.6402L36.608 33.1522L36.992 33.2162L37.44 32.7042V32.0642H38.016L38.208 31.6802L39.104 30.9762L39.36 30.2722L40.192 29.5682L39.936 29.2482L38.336 30.7202L37.696 31.1042L37.312 31.2322ZM35.776 38.2082L35.584 38.5922L34.88 39.1682L34.688 39.9362L34.24 40.4482L34.496 40.5762H34.88V40.0002L36.8 38.5282L37.12 37.8882V37.5042L36.608 37.6322L36.48 37.1202L35.776 37.2482L35.456 37.0562L35.392 37.5042L35.52 37.8882L35.776 38.2082ZM17.472 35.5202L17.536 35.5842L16.32 35.7122L16.064 35.9682L16.512 36.6722L16.768 36.4162L16.512 36.2882L16.64 36.0962L16.704 36.2882L17.024 36.2242L17.472 37.0562L17.6 36.5442L17.472 35.8402L17.6 35.6482L17.984 35.9042L18.304 35.9682L18.624 35.2642L19.968 34.1762L19.392 33.6002L17.472 35.5202ZM21.056 34.1762L20.736 33.9202L20.288 33.8562L20.096 34.1762L20.352 34.4322L21.504 34.6882L21.632 35.0082L20.672 35.3922L20.352 36.0962L20.992 35.9042L21.568 35.5202L21.824 35.2002L22.08 34.4322L22.592 34.3042L22.4 33.6642L22.08 33.4722L21.824 33.9842L21.504 34.1122L21.056 34.1762ZM41.344 40.4482L41.6 41.2802L40.64 41.5362L39.808 42.6882L40.128 42.8162L40.384 42.7522L41.216 41.9202L41.6 41.8562V41.4082L41.792 41.0242L43.264 40.0002L43.392 39.6162H43.008L41.728 40.5122L41.344 40.4482ZM26.56 36.5442L26.752 36.9282L27.2 37.1202L28.672 36.6722L29.12 36.0962L29.184 35.7122L28.8 35.5202H28.416L27.328 36.4802L26.944 36.6082L26.56 36.5442ZM27.904 38.4642L27.52 38.3362L27.584 38.7202L27.264 39.6162L27.776 39.8722L28.096 39.6162L28.032 39.2322L27.776 38.9122L29.632 37.8242V37.4402L29.44 37.1842L29.056 37.1202L28.928 37.5042L28.032 38.0802L27.904 38.4642ZM40.768 33.8562L39.68 34.1762L39.616 34.5602L39.04 35.4562L38.976 35.8402L39.36 35.9042L39.616 35.6482L39.936 34.8802L40.192 34.6242L40.64 34.5602L41.472 33.2802L41.6 32.8962H41.216L40.896 33.0882L40.768 33.4082V33.8562ZM14.08 37.9522L14.336 37.8242L14.72 37.8882L14.912 38.0802L14.784 38.4642L14.528 38.7202L13.76 38.9762L13.504 39.2322L13.376 39.6162L14.208 39.7442L15.296 38.7842L15.488 38.4642L15.232 38.1442L15.104 37.5042H14.656L14.208 37.6962L14.08 37.9522ZM9.34397 35.7122L9.27997 36.0962L8.89597 36.6722L8.63997 36.8642L8.25597 36.9282L7.93597 37.8242L8.38397 37.7602L8.95997 37.3122L9.66397 36.0962L10.688 35.3922L10.88 35.0082L10.368 34.7522L9.98397 35.3922L9.72797 35.5842L9.34397 35.7122ZM24.192 15.2962L24.832 15.7442L25.856 16.8322L26.24 16.9602L26.176 17.2802L26.496 17.5362L26.688 17.2162L26.496 16.5762L25.92 16.1922L25.536 16.1282V15.7442L25.664 15.5522L24.768 14.8482L24.512 14.9122L24.192 15.2962ZM20.352 37.7602L20.224 38.4642H20.544L21.504 37.7602L22.336 37.5042L22.656 37.2482L22.784 36.9282L22.464 36.6722H22.144L20.736 37.6322L20.352 37.7602ZM24.32 33.1522L24.448 33.9842H24.064L23.168 34.3042L23.424 34.6242L24.064 34.8802L23.872 35.1362L24.192 35.0722L24.32 34.4322L25.408 33.7282H25.728L24.768 33.0242L24.32 33.1522ZM31.168 24.7682L30.976 24.8322L30.848 24.5762L30.592 24.5122L30.528 24.8322L30.656 25.0882L31.296 25.4722L32.384 24.3842V23.9362H31.872L31.552 23.8082L31.296 24.1282V24.4482L31.168 24.7682ZM29.632 18.4962L29.376 18.4322L28.992 18.6242L28.352 19.3282L29.184 19.5202L29.632 18.8802L29.952 18.6242L30.336 18.6882L30.784 17.9842L30.848 17.5362L30.464 17.6642L29.888 18.1762L29.632 18.4962ZM34.24 37.7602L33.984 38.0802L33.152 38.4002L32.896 38.6562L32.96 39.0402L34.304 38.3362L34.816 37.7602L34.944 37.3762L34.56 37.2482H34.048L34.112 37.5042L34.24 37.7602ZM34.368 31.1042L34.752 31.4882L33.664 32.4482L33.28 32.1922L33.216 31.8722L33.6 31.2962L33.984 31.1042H34.368ZM31.552 21.6962L30.976 21.3122L31.104 22.2722L31.68 22.4642L31.808 22.0802L32.64 21.1842V20.8642L32.064 21.1202L31.808 21.3762L31.552 21.6962ZM40.32 31.6802H39.872L39.36 32.1922L38.912 32.8962L38.528 33.0242L38.272 32.6402V32.9602L38.464 33.2802L38.784 33.4722L39.808 32.4482L39.936 32.0642L40.512 31.7442L40.64 31.3602L40.32 31.6802ZM37.12 34.1762L36.736 34.8802L36.032 34.5602L35.904 34.9442L36.032 35.3922L35.584 35.1362L35.712 34.3682L35.904 34.0482L36.8 33.9842L37.12 34.1762ZM16.768 33.1522L17.216 33.2802L17.728 33.8562L18.176 33.2162L18.304 32.7682L17.6 32.6402L16.896 32.8322L16.768 33.1522ZM16.064 34.4322L15.872 33.7282L16.064 33.2162L15.68 33.4082L14.528 33.6002L14.592 33.9842L15.104 34.3042L15.424 34.1122L15.744 34.1762L16.064 34.4322ZM20.928 16.0002L20.736 16.4482L20.928 16.7042L21.632 16.3842L22.336 16.2562L22.784 16.3202L22.592 15.9362L22.336 15.8082L21.248 15.9362L20.928 16.0002ZM42.176 38.4642L43.264 37.0562L42.752 36.8002L42.24 37.3122L41.984 38.0802L42.176 38.4642ZM15.616 37.7602L16.512 38.2722L16.896 38.2082L16.704 37.8882L16.192 37.4402V36.9282L15.744 36.9922L15.488 37.3762L15.616 37.7602ZM17.984 30.4002H17.344L17.152 30.7842L18.048 30.9122L18.88 29.6322L18.688 29.3762L18.368 29.6322L17.984 30.4002ZM19.968 33.3442L20.672 33.4722L21.376 33.3442L21.632 33.1522L21.376 32.8962L20.288 32.7042L20.096 32.9602L19.968 33.3442ZM20.224 19.3922L20.672 19.4562L20.928 19.7762L21.696 19.0082L21.504 18.6882L21.312 19.0082L20.928 19.2002L20.544 18.6242L20.224 18.4962V19.3922ZM16.192 32.3202L16.64 32.2562L16.896 32.0642L17.152 31.3602L16.768 31.2322L16.384 31.2962L16.128 31.5522L16.064 31.9362L16.192 32.3202ZM38.144 41.9842L39.104 41.6002L39.36 40.8962L38.912 40.7682L38.592 40.8962L38.208 41.5362L38.144 41.9842ZM11.456 31.8082L12.032 31.9362L12.672 30.2722L11.968 30.7202L11.584 31.4242L11.456 31.8082ZM11.456 41.9842L11.84 42.0482L12.672 41.1522L11.84 40.8322L11.52 41.5362L11.456 41.9842ZM18.688 31.8082L18.816 32.1282L19.712 32.1922L19.776 31.3602L19.584 31.2322L18.88 31.5522L18.688 31.8082ZM21.504 15.0402L23.168 14.7842L22.976 14.4002L23.04 14.0802L22.016 14.5282L21.696 14.7842L21.504 15.0402ZM12.864 35.3922L13.248 35.8402L13.952 35.5842L14.08 35.2642L13.376 34.8802L13.12 34.9442L12.864 35.3922ZM33.792 19.9042L34.176 19.9682L34.496 19.7122L34.624 19.3282L34.432 19.1362L34.368 18.8162H33.92L33.792 19.4562V19.9042ZM25.664 40.8962L25.856 41.1522L26.56 40.7682L27.072 40.1282H26.368L25.792 40.5762L25.664 40.8962ZM23.424 18.4962L23.616 17.8562L23.552 17.5362L23.296 17.2802L22.976 17.3442L22.336 17.0882L23.168 18.1762L23.424 18.4962ZM17.856 25.3442L18.944 24.4482L19.136 24.1282H18.496L17.984 24.5762L17.856 24.9602V25.3442ZM24 12.8002L24.128 13.5042L24.768 13.3122L24.96 12.5442L24.704 12.4802L24.384 12.6722L24 12.8002ZM11.84 33.8562L12.224 33.7282L12.864 33.0242L12.8 32.7042L12.544 32.5122L12.096 33.0882L11.84 33.8562ZM29.44 23.5522L29.952 23.4882L30.592 23.1042L30.4 22.7202L30.144 22.6562L29.76 22.8482L29.504 23.1682L29.44 23.5522ZM44.416 46.2722L44.736 46.0802L44.992 45.5042L45.248 45.6322L45.44 45.3762L45.696 44.6082L45.056 44.9282L44.544 45.8882L44.416 46.2722ZM28.48 14.7202L28.8 15.0402L29.184 14.9122L29.568 14.2082L29.184 14.0802L28.608 14.4002L28.48 14.7202ZM31.808 40.3202L32.192 40.1282L32.832 39.1682L32.256 39.0402L31.808 40.0642V40.3202ZM39.552 40.0002L39.936 40.1282L40.384 40.0642L40.704 39.8082L40.768 39.3602L40.448 39.2962L39.808 39.7442L39.552 40.0002ZM8.95997 42.1122L10.048 41.0882L10.176 40.7042L9.79197 40.8322L9.08797 41.4082L8.95997 41.7282V42.1122ZM17.984 19.3282L18.24 19.5842L18.432 20.0322L18.88 19.9042L18.816 19.0722L18.176 19.1362L17.984 19.3282ZM26.688 34.4322L27.52 34.7522H27.904L28.224 34.5602L27.584 34.3682L27.392 34.0482L26.944 34.1762L26.688 34.4322ZM9.59997 39.2962L9.91997 38.3362L9.53597 38.2082L9.08797 38.7842L9.21597 39.1042L9.59997 39.2962ZM17.472 27.2002L18.304 27.4562L18.688 27.3922L18.816 27.0082H17.984L17.6 26.7522L17.472 27.2002ZM10.496 43.3922L10.88 43.2002L11.136 42.8162L10.944 42.4962L10.624 42.3682L10.432 42.6242L10.368 43.0722L10.496 43.3922ZM22.912 20.3522L22.976 20.7362L23.552 20.9922L23.872 20.9282L23.936 20.4802L23.744 20.1602L23.552 20.4162L23.232 20.4802L22.912 20.3522ZM29.184 16.8322L29.632 16.2562L29.76 15.8722L29.376 15.7442L29.12 15.8722L28.992 16.5122L29.184 16.8322ZM31.808 16.4482L32 16.5762L32.384 16.3842L32.704 15.6162L32.064 15.8082L31.872 16.0642L31.808 16.4482ZM22.208 7.6162L22.592 7.1042L22.656 6.7842H22.08L21.888 7.0402V7.4882L22.208 7.6162ZM25.408 14.0802V14.7202H25.984L26.112 14.0802L25.792 14.0162L25.408 14.0802ZM11.008 40.1282L11.2 39.7442L11.264 39.1682L11.136 38.9122L10.688 39.5522V39.9362L11.008 40.1282ZM24.128 18.1122H24.576L24.448 17.1522H24.128L24 17.5362L24.064 17.7922L24.128 18.1122ZM24.576 36.0962L24.768 36.4162H25.152L25.536 36.1602L25.728 35.8402L25.536 35.5202L24.96 36.1602L24.576 36.0962ZM6.84797 38.6562L7.48797 38.5282L7.74397 38.3362L7.80797 37.9522L7.10397 38.0802L6.91197 38.2722L6.84797 38.6562ZM28.352 6.4002L28.736 6.3362L28.992 6.0162L29.056 5.5682L28.672 5.6322L28.224 6.0802L28.352 6.4002ZM26.24 8.3202L27.008 8.1922L27.392 7.7442H26.624L26.368 7.9362L26.24 8.3202ZM28.032 12.0962L28.224 12.2242H28.608L28.736 11.3922L28.352 11.4562L28.16 11.7122L28.032 12.0962ZM37.248 43.0722L37.632 42.9442L37.888 42.6242L37.952 42.1762L37.824 41.9842L37.312 42.6242L37.248 43.0722ZM10.88 34.6882L11.584 34.5602L11.712 34.1762L11.584 33.9842L11.2 34.0482L11.008 34.3042L10.88 34.6882ZM11.904 38.7842L12.544 38.9122L12.288 38.1442L12.032 37.9522L11.904 38.4002V38.7842ZM13.824 34.5602H14.4V33.8562L14.016 33.9202L13.824 34.1122V34.5602ZM30.336 31.6802L30.4 32.0642L30.848 32.4482L31.104 31.9362L30.784 31.6802H30.336ZM15.104 21.7602L15.424 21.8242L15.744 21.6962L16.192 21.0562L15.808 21.1202L15.296 21.5042L15.104 21.7602ZM5.56797 42.8162L5.95197 42.7522L6.14397 42.4322V41.9842L5.75997 42.0482L5.63197 42.3682L5.56797 42.8162ZM18.176 40.5762L18.688 40.4482L19.008 40.1922V39.8722L18.56 39.9362L18.304 40.1922L18.176 40.5762ZM28.48 17.4082L29.12 17.4722L29.312 17.1522L28.992 16.8962L28.608 16.9602L28.48 17.4082ZM12.736 27.8402L13.12 27.7122L13.376 27.4562L13.44 27.0722L12.992 27.1362L12.8 27.3282L12.736 27.8402ZM41.6 43.5202L41.856 43.5842L42.112 43.3922L42.304 42.6882L41.92 42.8162L41.728 43.1362L41.6 43.5202ZM8.83197 44.6082L9.21597 44.6722L9.47197 44.5442L9.59997 44.0962L9.27997 44.0322L8.95997 44.2242L8.83197 44.6082ZM15.488 40.8322L15.872 40.3842L15.936 40.0002H15.488L15.296 40.3842L15.488 40.8322ZM28.096 9.8562L28.224 9.5362V9.0242L27.776 8.7682L27.84 9.5362L28.096 9.8562ZM30.592 17.4082L30.976 17.3442L31.424 16.8322L31.168 16.6402L30.656 17.0242L30.592 17.4082ZM14.656 41.6642L15.36 41.2802L15.488 40.8962L15.04 40.9602L14.72 41.2162L14.656 41.6642ZM13.568 36.9282H14.08L14.336 36.8002L14.528 36.4162L14.208 36.2882L13.568 36.9282ZM36.16 30.6562L36.672 30.5282L36.992 30.2722V29.9522L36.544 30.0162L36.16 30.6562ZM25.536 38.7842V37.9522L25.152 38.0162L25.024 38.3362L25.216 38.6562L25.536 38.7842ZM19.52 23.6802L19.712 23.4242V23.1042L19.264 22.9762L19.136 23.2962L19.2 23.6162L19.52 23.6802ZM13.824 29.8242L14.272 29.6962L14.528 29.3762L13.952 29.1202L13.824 29.3762V29.8242ZM15.104 32.8962H15.744L15.808 32.4482L15.552 32.3202L15.232 32.5122L15.104 32.8962ZM22.08 20.0322L22.592 20.1602L22.528 19.7122L22.208 19.4562L21.952 19.5202L22.08 20.0322ZM23.616 35.9682L23.744 35.6482L23.296 35.1362L23.104 35.4562L23.232 35.7762L23.616 35.9682ZM32.384 31.6802L32.576 31.3602L32.64 30.9122L32.256 30.9762L32.064 31.2322L32.128 31.4882L32.384 31.6802ZM16.768 23.2962L17.344 23.0402V22.5922L16.96 22.6562L16.768 22.9122V23.2962ZM19.136 12.5442L19.456 12.6722L19.84 12.5442L19.776 12.1602L19.52 12.0962L19.264 12.2242L19.136 12.5442ZM16.512 24.1282L16.704 23.8082L16.64 23.2962L16.192 23.5522V23.8722L16.512 24.1282ZM25.408 35.1362L25.92 35.0722L26.112 34.6882L25.792 34.5602L25.472 34.6882L25.408 35.1362ZM32.96 20.4802L33.28 20.5442L33.792 20.1602L33.472 19.9682L33.088 20.0962L32.96 20.4802ZM7.55197 40.3202L7.61597 40.7042L7.87197 40.7682L8.19197 40.6402L8.25597 40.3202L7.93597 40.2562L7.55197 40.3202ZM19.008 37.6322L19.136 37.3762V36.9282H18.688L18.624 37.3122L19.008 37.6322ZM26.368 37.9522L26.88 37.6322L26.944 37.2482L26.496 37.3122L26.304 37.6322L26.368 37.9522ZM32.96 36.9282L33.344 37.3762L33.536 36.9282V36.5442L33.216 36.6722L32.96 36.9282ZM20.672 40.1922L20.8 40.5762L21.056 40.7042L21.376 40.5762L21.248 40.2562L20.992 40.1282L20.672 40.1922ZM32.512 23.6802L33.216 23.5522L33.088 23.2322L32.704 23.1042L32.576 23.2962L32.512 23.6802ZM42.88 47.6802L43.328 47.5522L43.456 47.2322L43.264 46.9762L42.944 47.1682L42.88 47.6802ZM25.152 12.4802L25.472 12.2242L25.664 11.8402L25.28 11.7762L25.024 12.0962L25.152 12.4802ZM29.568 31.8082L29.44 32.1282L30.016 32.1922L30.144 31.8082L29.824 31.7442L29.568 31.8082ZM19.52 39.0402L19.648 39.3602L20.224 39.6162L20.096 39.2322L19.84 38.9762L19.52 39.0402ZM19.52 28.4162L20.352 28.6082L20.672 28.4162L19.84 28.2242L19.52 28.4162ZM22.08 9.8562L22.4 9.7282L22.592 9.1522L22.208 9.2802L22.016 9.5362L22.08 9.8562ZM34.368 21.0562L34.944 21.1842L34.88 20.7362L34.496 20.6082L34.368 21.0562ZM19.584 29.5682L19.904 29.6962L20.224 29.5682L20.096 29.2482L19.84 29.1202L19.584 29.5682ZM23.424 16.2562L23.872 16.3202L24 15.8722L23.616 15.7442L23.424 16.2562ZM22.784 22.9762L23.104 23.1042L23.424 23.0402L23.488 22.7202L23.04 22.6562L22.784 22.9762ZM44.288 43.7762L44.672 43.7122L44.928 43.0722L44.352 43.3922L44.288 43.7762ZM14.4 22.5922L14.72 22.7202L14.976 22.5922V22.2722L14.592 22.2082L14.4 22.5922ZM23.296 14.0802L23.616 13.9522V13.5682L23.424 13.3762L23.168 13.7602L23.296 14.0802ZM13.952 28.1602L14.272 28.0322V27.5842H13.952L13.824 27.9042L13.952 28.1602ZM21.056 32.5122L21.44 32.4482L21.504 32.0642L21.248 31.8082L21.12 32.1282L21.056 32.5122ZM14.528 25.3442L14.656 25.9202H14.912V25.4722L14.784 25.2162L14.528 25.3442ZM12.864 41.0242L13.376 40.4482L13.12 40.1922L12.8 40.7682L12.864 41.0242ZM26.368 10.4322H26.816L27.072 10.1762L26.496 9.9842L26.368 10.4322ZM33.344 12.5442H33.664L33.856 12.3522L33.92 11.9682L33.472 12.1602L33.344 12.5442ZM38.272 35.9682V36.2882L38.72 36.2242L38.848 35.8402H38.528L38.272 35.9682ZM43.008 45.0562L43.392 44.9282L43.456 44.4802L43.136 44.5442L42.944 44.8002L43.008 45.0562ZM23.04 33.6002L23.424 33.2162L22.912 33.0242L22.784 33.3442L23.04 33.6002ZM21.12 26.3042L21.056 25.9202L20.416 25.7922L20.672 26.1762L21.12 26.3042ZM28.928 39.0402L29.056 39.3602L29.184 39.2322L29.568 39.3602L29.632 39.0402L29.376 38.9762L28.928 39.0402ZM30.72 14.7842L31.104 14.7202L31.168 14.4002L30.848 14.2082L30.72 14.4642V14.7842ZM29.312 5.5042L29.696 5.4402L29.824 5.0562L29.568 4.8642L29.312 5.5042ZM17.728 38.2082L18.176 38.3362V37.7602L17.856 37.8882L17.728 38.2082ZM8.63997 42.9442L8.76797 42.4962L8.51197 42.2402L8.31997 42.6882L8.63997 42.9442ZM17.472 20.6082L17.6 20.0322H17.28L17.152 20.4162L17.472 20.6082ZM18.56 34.0482L18.432 33.6642L17.984 33.6002L18.112 33.9842L18.56 34.0482ZM23.616 8.7682L24.064 8.6402L24.128 8.1922L23.68 8.4482L23.616 8.7682ZM24.96 9.7282L25.408 9.4722L25.216 9.1522L24.896 9.4082L24.96 9.7282ZM23.744 40.1282L24.128 40.0002L24.192 39.4882L23.872 39.6802L23.744 40.1282ZM15.36 27.7122L15.68 27.5202L15.808 27.0722L15.424 27.2002L15.36 27.7122ZM39.104 43.2642L39.552 43.2002L39.68 42.8162H39.36L39.104 43.2642ZM8.06397 45.1842L8.44797 45.3122L8.63997 44.9282L8.25597 44.8642L8.06397 45.1842ZM20.224 6.9122L20.544 6.7842V6.3362L20.16 6.5282L20.224 6.9122ZM13.44 24.2562L13.824 24.0002L13.696 23.5522L13.44 23.8722V24.2562ZM11.456 29.1202L11.392 28.8002L11.008 28.7362L11.072 29.1842L11.456 29.1202ZM14.528 28.2882V28.5442L14.976 28.6082L14.912 28.1602L14.528 28.2882ZM32.256 19.7762L32.64 19.6482L32.704 19.2002L32.384 19.3282L32.256 19.7762ZM38.144 20.7362L38.528 20.6082L38.784 20.2242L38.208 20.4162L38.144 20.7362ZM32.256 13.6322L32.64 13.5682L32.704 13.1842L32.32 13.2482L32.256 13.6322ZM6.52797 41.6642L6.78397 41.5362L6.84797 41.2162L6.59197 41.0242L6.52797 41.3442V41.6642ZM19.392 18.2402L19.648 18.1122L19.776 17.7922L19.52 17.6642L19.392 17.9202V18.2402ZM21.504 36.8002L21.568 36.4802L21.12 36.2882L21.184 36.6722L21.504 36.8002ZM26.56 5.5682H27.072V5.2482H26.752L26.56 5.5682ZM19.264 32.8962L19.2 32.4482L18.816 32.3202L18.944 32.7042L19.264 32.8962ZM14.208 35.1362L14.336 35.3922L14.656 35.3282L14.784 35.0082L14.464 35.0722L14.208 35.1362ZM30.144 19.7762L30.08 19.4562L29.632 19.3922L29.76 19.7122L30.144 19.7762ZM27.776 16.0002L27.84 16.3202H28.224L28.096 15.9362L27.776 16.0002ZM27.392 12.9282L27.52 12.5442L27.072 12.4802L27.136 12.8002L27.392 12.9282ZM19.392 9.8562L19.712 10.1122L19.84 9.6002L19.52 9.6642L19.392 9.8562ZM9.08797 50.0482L9.21597 49.5362H8.83197L8.89597 49.8562L9.08797 50.0482ZM28.032 22.1442V22.5922L27.712 22.5282V22.2082L28.032 22.1442ZM19.84 25.3442H20.224V24.9602H19.968L19.84 25.3442ZM30.592 12.2242H30.848L30.976 11.8402H30.592V12.2242ZM16.64 39.4882L16.96 39.4242L17.024 39.0402L16.704 39.1042L16.64 39.4882ZM26.944 15.7442L27.264 15.6802L27.392 15.4242L27.072 15.2962L26.944 15.7442ZM43.968 40.8962L44.352 41.0882L44.544 40.8322L44.224 40.7042L43.968 40.8962ZM26.816 13.5042H27.2L27.136 13.1842L26.944 13.0562L26.816 13.5042ZM37.248 40.3202H37.568L37.504 40.0002L37.248 39.8722V40.3202ZM8.76797 34.1762L9.08797 34.3042L9.21597 34.0482L8.95997 33.8562L8.76797 34.1762ZM27.392 18.3682L27.712 18.4322L28.032 18.2402L27.648 18.1122L27.392 18.3682ZM35.584 23.6802L35.712 23.2322L35.328 23.2962V23.4882L35.584 23.6802ZM41.856 25.5362V25.2162H41.472L41.536 25.4722L41.856 25.5362ZM35.2 23.5522L35.008 23.9362L35.328 24.1282V23.8082L35.2 23.5522ZM27.904 33.4722L28.224 33.6002L28.352 33.2162L28.032 33.2802L27.904 33.4722ZM38.656 25.6642L38.848 25.5362L38.976 25.2162L38.592 25.3442L38.656 25.6642ZM22.336 4.4162H22.656L22.784 4.1602L22.528 4.0962L22.336 4.4162ZM10.176 40.5762L10.432 40.3202L10.368 40.0002L10.176 40.1922V40.5762ZM26.368 6.3362L26.496 5.8242L26.112 6.0162L26.368 6.3362ZM29.44 10.9442L29.76 10.8802L29.888 10.6882L29.568 10.6242L29.44 10.9442ZM20.8 22.1442L21.12 22.2082L21.248 21.8882L20.928 21.9522L20.8 22.1442ZM13.12 24.3842L12.8 24.5122L12.736 24.8322L12.992 24.7042L13.12 24.3842ZM24.448 32.4482L24.96 32.5122L24.704 32.1922L24.448 32.4482ZM10.624 37.7602H11.008L10.88 37.3762L10.624 37.7602ZM32.256 28.8642L32.448 29.0562L32.512 29.3762L32.256 29.2482V28.8642ZM31.552 23.2322V22.8482L31.296 22.7202L31.36 23.0402L31.552 23.2322ZM15.104 36.2242H15.36V35.9682H15.104V36.2242ZM18.88 10.9442H19.136V10.6882H18.88V10.9442ZM23.04 3.7122H23.296V3.4562H23.04V3.7122ZM17.6 12.0962H17.856V11.8402H17.6V12.0962ZM20.096 26.0482H20.352V25.7922H20.096V26.0482ZM23.616 33.4722H24L24.192 33.3442L23.872 33.2802L23.616 33.4722ZM15.936 24.1282L15.488 24.0002L15.68 24.3202L15.936 24.1282ZM17.152 17.9842L17.472 17.7922L17.28 17.5362L17.152 17.9842ZM43.456 36.5442V36.8002L43.712 36.6722L43.584 36.4162L43.456 36.5442ZM24.576 10.1122L24.704 9.7922L24.448 9.6002L24.576 10.1122ZM41.856 46.2722L42.048 45.8882L41.728 46.0162L41.856 46.2722ZM35.904 20.3522H36.16V20.1602H35.904V20.3522ZM1.40797 46.7202L1.47197 46.4642L1.15197 46.2722L1.40797 46.7202ZM35.584 42.1122L35.84 41.9202L35.712 41.6642L35.584 42.1122ZM40.512 23.5522L40.768 23.3602L40.64 23.1042L40.512 23.5522ZM34.368 13.7602L34.048 13.8882L34.24 14.0802L34.368 13.7602ZM25.664 3.7122H25.984L25.664 3.4562V3.7122ZM35.328 15.6162H35.584L35.456 15.4242L35.2 15.5522L35.328 15.6162ZM14.912 37.0562H15.232L14.912 36.8002V37.0562ZM39.808 26.8802H40.128L40.064 26.6242L39.808 26.8802ZM20.224 27.0082H20.544L20.224 26.7522V27.0082ZM19.136 22.4642L19.392 22.3362L19.136 22.1442V22.4642ZM19.264 30.5282H18.88L19.072 30.7202L19.264 30.5282ZM33.216 21.7602H33.408L33.28 21.5682L33.088 21.6962L33.216 21.7602ZM38.016 34.4322L38.272 34.5602L38.016 34.1762V34.4322ZM45.504 42.6882H45.696L45.632 42.3682L45.504 42.6882ZM15.616 35.5842H15.808L15.744 35.2642L15.616 35.5842ZM21.12 27.2002H20.672L20.928 27.3282L21.12 27.2002ZM30.272 24.3842L30.464 24.5122L30.272 24.1282V24.3842ZM28.352 35.9682L28.608 36.2242L28.48 36.2882L28.352 35.9682ZM16.448 18.6242L16.512 18.4962L16.32 18.2402L16.448 18.6242ZM17.6 35.6482L17.536 35.5842H17.6V35.6482ZM89.0945 5.8242L88.7745 6.5282L88.9665 6.7842L89.6705 7.1042L89.9265 7.4242L90.1185 8.1282L90.1825 8.9602L90.5025 9.2162L90.7585 10.0482L90.6945 10.4322L91.1425 10.9442L91.8465 12.4162V13.5042L92.6785 14.1442L92.8065 14.5282L92.6145 15.4242L92.6785 15.8082L93.3825 16.0642L93.6385 16.7042L93.5105 17.3442L93.8305 18.0482L93.6385 18.1762L93.9585 18.3682L94.4705 18.4322L94.7265 20.0962L95.3025 21.0562L95.3665 22.0162L95.6225 22.7842L96.5825 23.8722L96.4545 24.3202L96.7745 25.4082L97.0305 25.6642L96.9025 26.3682L97.1585 26.5602H97.6065L97.6705 27.5202L97.9905 28.1602L98.5665 28.6082L98.7585 30.2082L99.3345 31.6162L101.062 34.8162L101.446 36.4162L102.662 38.9122L102.726 39.3602L102.982 39.8082L102.854 40.3202L103.43 40.9602L104.006 42.1762L104.262 43.7122L104.582 44.4162L105.414 45.6962L105.542 46.4002L105.414 46.6562L105.99 47.6162L106.246 48.4482V49.2802L105.926 49.9842L105.158 49.9202L104.966 50.2402L104.71 49.9842L104.07 50.3042L103.558 50.2402L103.238 50.4962L102.534 50.5602L101.062 50.4322L100.678 50.5602L100.23 49.9842L99.5265 50.4322L97.3505 50.6882L97.0305 50.5602L96.7745 50.2402L96.3905 50.4322L96.0065 50.3042L95.6225 50.4322L95.3025 50.3682L95.1745 50.1122L94.9825 50.3682L93.7665 50.4322L92.8065 49.7282L92.3585 49.0242L92.2945 48.5762L91.9745 48.3842L91.1425 46.2082L90.7585 45.6322L90.8865 45.1202L90.5025 44.4802L89.4785 43.5842L88.7745 43.3282L87.4945 43.1362L87.3665 42.8162L87.4945 42.3042L87.1745 42.5602L86.9825 43.2642L86.6625 43.1362H85.1905L84.8705 42.4322L83.5905 43.1362L83.3345 43.3922L82.8865 43.2642L82.2465 42.7522L82.0545 42.4322L81.7985 42.6882L81.9265 43.1362L80.5185 43.0722L80.2625 42.7522L79.6865 43.3922L79.3665 43.2002L78.6625 43.0722L77.4465 43.2002L76.6145 43.0722L76.2305 42.8802L75.5265 43.1362L74.5665 42.6882L74.6305 42.8802L74.3745 43.2642L73.9265 43.2002L73.7345 42.8802L72.6465 43.2642L71.7505 43.1362L70.7265 43.6482L70.2145 43.5842V44.0322L69.5745 45.8242L69.6385 46.2082L68.4225 47.3602L68.5505 48.8322L68.3585 49.1522L67.5265 49.0242V49.4722L67.7185 49.7922L67.5905 50.1122L67.2705 49.6002L66.4385 50.3682L65.7345 50.6882L64.3265 50.1762L64.0705 49.9842L63.8145 50.2402L63.7505 50.5602L60.4865 50.3042L58.6305 50.5602L57.9265 50.3042L57.0945 50.4322L56.7745 49.8562L56.1345 50.4322L55.3665 50.3042L54.8545 50.3682L54.4065 49.6642L54.3425 48.9602L54.5985 47.7442L55.3025 47.4882L55.1105 46.9122V46.5282L55.8785 45.2482L56.0705 43.9682L56.5185 43.4562L56.6465 43.0722V42.5602L58.0545 41.6002L57.9265 41.2162L57.3505 40.7682L57.6065 40.4482L58.3745 40.1922V39.8082L58.0545 38.8482L59.1425 38.0802L59.0145 37.1842L59.2065 36.5442L59.4625 36.3522L59.9105 36.2882L59.8465 35.2002L60.4865 33.8562L60.9345 32.3842L60.9985 31.5522L61.8305 31.2962L61.8945 30.3362L61.7025 30.1442L62.2145 29.4402V28.7362L62.9825 27.4562L63.4305 26.0482L63.8145 25.4082V24.6402L64.5185 23.2322V22.7842L64.8385 22.5922L65.6705 20.4162L66.0545 19.8402V19.0082L66.5665 18.4962L66.6945 18.1122V17.6002L67.3985 16.4482L67.8465 14.9122L68.4865 13.4402L68.9345 12.8642V12.4162L69.2545 11.8402V11.1362L69.8305 10.1762L69.8945 9.6642L70.3425 9.4722L70.4065 8.6402L70.5985 7.9362L71.3025 6.5922V6.1442L71.7505 5.6322L72.8385 2.1762L73.7985 1.2162L73.8625 0.832195L74.5665 0.448196L76.4865 0.128197L78.4705 0.576199L78.7265 0.128197L79.8145 0.192196L80.0065 0.384197L80.7745 0.256195L83.9745 0.192196L84.9985 0.000198364L86.0865 0.384197L87.6865 1.7922V2.7522L88.4545 3.9042L88.7105 4.5442L88.6465 5.0562L88.8385 5.5042L89.0945 5.8242ZM81.0945 19.7122L80.5825 19.2642L80.2625 19.1362L79.9425 19.2642L79.4945 19.7122L79.1105 19.6482L79.1745 20.0962L78.8545 20.8002L78.9825 21.2482L78.5345 21.7602L78.2145 22.4002L78.2785 23.1682L77.8945 23.6162V24.3202L77.6385 24.5762L77.2545 25.8562L76.9985 26.1122L76.6145 26.2402L76.4865 27.5202L76.6145 27.9042L75.8465 29.1202L75.7825 29.8882L76.0385 30.5922L77.0625 31.6802L77.1905 31.1682L77.8305 31.3602L79.3665 31.1682L80.4545 31.2962L80.7105 31.5522L83.6545 31.2962L84.3585 31.0402L84.9985 30.5922L84.9345 29.8882L84.4225 27.7122L84.4865 27.3282L84.0385 27.3922L83.7825 26.6882L83.7185 25.9202L84.0385 25.2802L83.3345 25.0242L83.5905 24.2562H82.8865L82.3105 22.5282L82.0545 22.3362L82.1825 22.0162V21.5042L82.5665 21.4402L82.7585 21.1842L82.4385 20.9922L81.9265 21.0562L81.5425 20.3522V19.9682L81.9905 19.2642L82.6305 18.8162L82.5025 18.3042L81.7985 18.7522L81.3505 19.3922L81.0945 19.7122ZM92.9345 31.4242H92.1665L90.8865 33.4722L90.3105 33.5362L89.3505 34.8802L88.9025 35.0082L88.3905 35.5842L88.0705 36.2882L86.9185 37.3122L86.6625 37.9522L86.7905 38.2722L87.4305 37.8242L88.4545 36.7362L88.9025 36.0322L90.1185 35.1362L91.1425 34.1122L91.5905 33.4722L91.7185 33.0882L93.4465 31.6802L93.7025 31.0402L93.6385 30.5922L93.1265 30.7202L92.9985 31.0402L92.9345 31.4242ZM86.7905 32.2562L86.0865 32.7042L85.0625 33.9202L84.4225 34.3682L84.1665 35.2002L83.3345 35.5842L83.1425 35.9042L83.2065 36.2882L83.3345 35.9682L84.0385 36.1602L84.2305 35.7762L84.8065 35.1362L84.9985 34.7522V34.3682L85.7025 34.0482L86.2785 33.6002L87.1105 32.3842L86.7905 32.2562ZM90.0545 30.9762L89.8625 31.4882V31.9362L89.0305 32.3842L88.4545 33.4082L87.2385 34.3682L87.1105 34.6242V35.0082L87.8145 34.5602L88.3265 33.9842L89.0305 33.5362L89.4145 32.8962L90.5665 31.9362L91.0145 31.2962L90.5025 30.9762H90.0545ZM88.9025 29.7602L88.7745 30.4642L88.3905 30.6562L88.1345 30.9762L88.1985 31.2962L88.5185 31.1682L88.9665 30.5922L89.3505 30.4642L91.2705 28.2882L91.3985 27.9042L90.9505 27.9682L90.2465 28.4162L89.2225 29.5682L88.9025 29.7602ZM92.2945 29.4402L91.8465 29.5682L91.3985 30.2722L91.4625 30.5282L91.8465 30.7202L92.2945 29.8882L92.6785 29.8242L93.1265 29.4402L93.1905 29.0562L93.8305 28.3522V27.9042L93.6385 27.7762L93.1905 28.3522L92.4225 29.0562L92.2945 29.4402ZM91.4625 35.0082L91.2065 35.2002L90.5025 36.4802L90.2465 36.7362L89.8625 36.8642V37.5682L90.5665 37.1842L91.0785 36.6722L91.8465 35.0722L91.4625 35.0082ZM95.1745 37.3122L94.5345 37.5682L94.4705 37.9522H95.1745L95.6225 37.2482L96.5825 36.1602L96.2625 35.9042L95.5585 36.1602L95.1745 36.9282V37.3122ZM96.0065 39.6802L97.7345 37.3122L97.2865 37.2482L97.1585 37.5682L95.6865 38.9762V39.4242L96.0065 39.6802ZM83.7825 40.3842L84.2305 40.3202L84.9345 39.9362L86.1505 38.5282L85.8305 38.2722L84.0385 40.0642L83.7825 40.3842ZM97.5425 40.3202L98.4385 40.0002L99.0785 39.0402V38.6562L98.3745 39.0402L97.8625 39.5522L97.6705 39.9362L97.5425 40.3202ZM92.5505 37.5682L93.8305 36.5442L94.5345 35.5842H93.8305L93.7665 35.9682L92.6785 36.9922L92.5505 37.2482V37.5682ZM79.6865 33.6642L79.6225 34.1122L78.9825 35.2002L79.6865 34.7522L80.1985 34.1762L80.3905 33.7922L80.9665 33.4082L81.0945 32.9602L80.1345 33.6002L79.6865 33.6642ZM89.0945 24.2562L88.1985 25.6002L88.0705 25.9842L88.4545 25.9202L88.9025 25.0242L89.8625 24.9602L89.7985 24.5122L89.5425 24.3202L89.0945 24.2562ZM88.1985 28.8642L88.3265 28.6082H88.6465L88.7745 28.2242L89.6065 27.5202L89.7345 27.0722L89.0305 27.2002L88.4545 27.7762L88.1985 28.4802V28.8642ZM63.2385 40.3202L63.5585 40.3842L64.7745 39.6802V39.2962L64.5825 39.0402L64.1985 38.9762L63.4945 40.0002L63.2385 40.3202ZM80.5185 38.8482L79.8785 39.2322L79.4305 39.8082L80.1985 39.6162L80.7745 39.1682L81.5425 37.9522L81.0945 38.0162L80.5825 38.5922L80.5185 38.8482ZM86.7905 21.7602L86.3425 22.3362L84.9985 23.6162L84.8705 24.0002L86.0865 23.1682L87.2385 21.7602H86.7905ZM74.1185 18.8802L73.6065 18.9442L73.2865 19.1362V19.7122L74.5025 18.8162L75.3985 17.4722L74.6945 17.7922L74.2465 18.4962L74.1185 18.8802ZM93.3825 33.0882L93.5105 33.4082L94.3425 33.5362L94.8545 32.7682L94.9185 32.3842L94.5345 32.4482L93.7665 32.9602L93.3825 33.0882ZM88.3905 22.7842H88.1345L88.0705 23.1682L88.4545 23.0402L88.7105 22.7842H89.2225L89.6705 22.2082L89.7345 21.7602L89.2865 21.8242L88.9665 22.0162L88.5825 22.5922L88.3905 22.7842ZM93.8305 38.7842L93.0625 39.1042L92.8065 39.3602L92.6785 39.8082H93.0625L93.7025 39.3602L94.1505 38.6562V38.3362L93.9585 38.0802L93.7665 38.3362L93.8305 38.7842ZM84.7425 37.8242L84.9345 37.5042L85.7665 36.8002L85.7025 36.4162L84.6145 36.9282L84.4225 37.2482V37.5042L84.7425 37.8242ZM72.1985 23.1682L72.7105 23.0402L73.0305 22.7842L72.9665 22.5922L73.5425 22.7202L73.7345 21.6322L73.0945 22.0162L72.4545 22.8482L72.1985 23.1682ZM76.4865 11.4562L76.9985 10.8802L77.3185 10.1762L77.7025 10.0482L77.7665 9.6002H77.3185L77.1905 9.9842L76.6785 10.4962L76.3585 11.0722L76.4865 11.4562ZM71.6225 31.5522L72.4545 31.3602L73.0305 30.7842L73.1585 30.1442L72.5185 30.4642L71.8785 31.2962L71.6225 31.5522ZM90.7585 23.2962L90.3105 23.3602L90.0545 23.6162L90.1825 24.0002L90.5665 23.8722L90.8865 23.1682L91.3985 23.1042L91.5905 22.7202L91.3985 22.4642H91.0145L90.8225 22.8482L90.7585 23.2962ZM83.7825 16.4482L83.7185 16.8962L83.9105 17.2802L84.2945 17.0882L84.7425 16.4482L85.1265 16.1922L84.9985 15.9362L84.5505 16.3202L84.2305 16.3842L83.7825 16.4482ZM88.3905 19.8402L88.7745 19.9682L89.5425 19.7122L89.7985 19.3922L89.8625 19.0082L88.8385 19.3282L88.5825 19.5842L88.3905 19.8402ZM70.6625 32.7042L71.1105 32.8322L71.7505 32.2562L71.6225 31.8722L71.3025 31.6802L70.7905 32.3202L70.6625 32.7042ZM99.6545 43.4562L99.9745 43.5202L100.55 43.0722L100.934 42.3042V42.0482L99.7825 43.0722L99.6545 43.4562ZM61.4465 41.8562L62.1505 41.6002L62.7905 40.9602V40.5762L62.5345 40.3202L62.4065 40.7042L61.6385 41.5362L61.4465 41.8562ZM87.9425 39.2322H88.2625L88.8385 38.7842L89.3505 38.1442L88.5825 38.2722L88.0065 38.9122L87.9425 39.2322ZM79.3025 7.9362L79.5585 8.2562L79.7505 7.9362L80.5185 7.2322L80.6465 6.8482L80.1345 6.7202L80.0705 7.1682L79.3025 7.9362ZM78.3425 17.1522L78.9825 17.2802L79.2385 16.4482L79.5585 16.1922H79.1745L78.5985 16.5122L78.3425 17.1522ZM74.3745 34.8802L75.5265 33.5362L75.2705 33.3442L74.6945 33.7922L74.3745 34.5602V34.8802ZM87.3665 21.3762L88.0705 21.1202L88.2625 20.8642L88.3265 20.4162H87.9425L87.6225 20.6082L87.4305 20.9282L87.3665 21.3762ZM84.1665 14.4002L84.6785 13.8882L84.9985 13.2482L84.4225 13.1202L84.3585 13.5042L83.9745 14.2082L84.1665 14.4002ZM72.4545 14.9122L72.9025 14.9762L73.2225 14.7842L73.5425 13.9522L72.8385 14.2722L72.5825 14.5282L72.4545 14.9122ZM84.2945 10.6242L84.1025 11.3282L84.1665 11.5842L85.0625 10.8802L84.9985 10.4962L84.7425 10.6242H84.2945ZM87.6865 12.8642H88.6465L88.5185 12.0322L87.8145 12.4162L87.6865 12.8642ZM72.5825 17.9842L73.2225 17.0242L73.2865 16.6402L72.9665 16.7682L72.3905 17.3442V17.6642L72.5825 17.9842ZM73.5425 16.6402L74.3745 16.5122L74.5025 16.1922L74.3745 15.9362L73.6705 16.0002L73.5425 16.2562V16.6402ZM88.6465 41.4722L89.2865 40.8962L89.7345 40.7682V40.3202L89.6065 40.0642L88.6465 41.1522V41.4722ZM78.7265 14.2722L79.1745 14.1442L79.4945 13.8882L79.6865 13.5042L79.1105 13.2482L78.7905 13.9522L78.7265 14.2722ZM90.8865 38.6562L91.5265 38.4002L91.7825 38.1442L91.8465 37.6962L91.1425 37.8882L90.9505 38.2082L90.8865 38.6562ZM81.9265 16.4482L82.4385 16.1282L83.0145 15.4882L82.5025 15.3602L82.3745 15.6802L81.8625 16.1282L81.9265 16.4482ZM86.4065 16.4482L86.7265 16.9602L87.1105 17.0242L87.2385 16.1922L86.7265 16.2562L86.4065 16.4482ZM86.2785 14.9122L86.7905 14.4642L86.9825 13.6962L86.5985 13.8242L86.2145 14.5282L86.2785 14.9122ZM74.5025 12.6722L74.7585 12.9282H75.1425L75.2705 12.5442L75.1425 12.2882L74.8225 12.1602L74.5665 12.3522L74.5025 12.6722ZM64.1985 33.6642L64.3265 33.9202L64.7105 33.8562L64.9665 33.5362L65.0305 33.1522L64.7745 32.9602L64.5185 33.3442L64.1985 33.6642ZM64.9025 35.3282L64.8385 35.7762L64.5825 36.0322L64.7745 36.2882L64.9025 35.9682L65.4785 35.6482V35.2002L65.1585 35.2642L64.9025 35.3282ZM87.3665 32.2562L87.6865 32.0642L88.0705 31.2962H87.4945L87.3025 32.0002L87.3665 32.2562ZM91.4625 27.7762L91.8465 27.8402L92.1025 27.6482L92.1665 27.2002L91.7185 26.9442L91.5905 27.3282L91.4625 27.7762ZM72.1985 25.6642L73.0945 25.4082L73.1585 25.0242H72.7105L72.3905 25.1522L72.1985 25.4082V25.6642ZM83.7825 19.9682L84.5505 19.3922L84.6145 19.0082H84.2945L83.9745 19.2642L83.7825 19.6482V19.9682ZM65.9905 37.4402L66.8225 37.2482L66.5665 36.7362L66.1185 36.8642L65.9265 37.0562L65.9905 37.4402ZM65.4785 32.5122L65.8625 32.5762L66.4385 32.0002L66.0545 31.6802L65.6705 32.1922L65.4785 32.5122ZM67.5265 35.7762H67.9745L68.2305 35.5202L68.3585 35.0722L67.8465 35.1362L67.5905 35.3922L67.5265 35.7762ZM95.8785 31.1682L96.9025 30.9762L96.7105 30.5922L96.3905 30.5282L96.0065 30.7842L95.8785 31.1682ZM76.4865 8.1282L76.8065 8.2562L77.3185 7.8082L77.4465 7.4242L76.6145 7.7442L76.4865 8.1282ZM70.9185 35.3282L71.3025 35.5842L71.6865 34.9442L71.6225 34.6242L71.0465 35.0082L70.9185 35.3282ZM85.7025 28.3522L86.1505 28.2242L86.6625 27.3282L86.0225 27.6482L85.8305 27.9682L85.7025 28.3522ZM93.2545 41.7282L93.5745 41.6002H94.0865V41.1522H93.5745L93.2545 41.4082V41.7282ZM69.8945 30.4642H70.2145L71.0465 30.0162L70.6625 29.8882L70.2785 29.9522L70.0225 30.1442L69.8945 30.4642ZM98.3745 42.3042L98.8225 41.7282L98.5665 41.4722L98.1825 41.7282L98.0545 42.0482L98.3745 42.3042ZM90.3105 18.6882L90.6945 18.4322L90.8225 18.1122L90.7585 17.7282L90.4385 17.9202L90.2465 18.3042L90.3105 18.6882ZM71.8785 21.2482L72.2625 21.1842L72.5185 20.9282L72.5825 20.5442L72.1345 20.6082L71.9425 20.8642L71.8785 21.2482ZM67.0145 26.3682L67.2705 26.1122L67.1425 25.7282L66.8865 25.5362L66.6945 25.7922V26.1762L67.0145 26.3682ZM81.7985 39.9362L82.1825 40.0002L82.5025 39.8082L82.4385 39.3602L82.1825 39.2322L81.9905 39.6162L81.7985 39.9362ZM73.2865 27.7762L73.6705 27.7122L73.8625 27.4562L73.7985 27.1362L73.4145 27.0722L73.2865 27.3282V27.7762ZM82.6305 12.8642L82.8865 12.9922L83.2065 12.8002L83.5905 12.0962L83.2705 12.3522L82.8225 12.4802L82.6305 12.8642ZM94.4705 45.9522H94.8545L95.1745 45.6962L95.3025 45.2482L94.5985 45.5682L94.4705 45.9522ZM65.3505 40.3202L65.4785 40.6402L65.7345 40.7682L66.0545 40.6402L65.9905 40.1922H65.6705L65.3505 40.3202ZM80.7105 41.1522L81.1585 41.0242L81.4145 40.7042L81.3505 40.3202L80.8385 40.7042L80.7105 41.1522ZM88.5185 15.6162V15.2322L88.3905 14.9762L88.0705 14.9122L87.9425 15.2322L88.1345 15.5522L88.5185 15.6162ZM72.8385 33.2162L73.2865 33.1522L73.6705 32.6402H73.1585L72.9025 32.8322L72.8385 33.2162ZM83.7185 4.4802L84.1665 3.9682L84.2945 3.6482L83.9745 3.5842L83.7185 3.8402L83.6545 4.2242L83.7185 4.4802ZM80.0065 36.2882H80.3905L80.6465 36.0962L80.7105 35.7762L80.1345 35.7122V36.0322L80.0065 36.2882ZM70.0865 17.3442L70.5345 17.2162L70.8545 16.8962L70.6625 16.6402L70.1505 16.9602L70.0865 17.3442ZM72.1345 15.8082L72.3905 15.5522L72.5825 15.1042L72.1345 15.0402L71.9425 15.4882L72.1345 15.8082ZM98.8225 44.8002V44.5442L99.1425 43.9042L98.8225 43.7122V44.1602L98.3745 44.6722L98.8225 44.8002ZM89.3505 14.2082L89.6705 13.9522L89.8625 13.5682L89.4145 13.5042L89.1585 13.8882L89.3505 14.2082ZM89.8625 26.9442L90.3105 26.8802L90.5025 26.6242L90.4385 26.2402L89.9265 26.5602L89.8625 26.9442ZM86.7905 30.1442L87.3025 29.8242L87.3665 29.4402H86.9185L86.7905 29.7602V30.1442ZM64.9025 43.7122L65.3505 43.6482L65.6065 43.4562L65.7345 43.1362L65.2865 43.2002L65.0305 43.3922L64.9025 43.7122ZM86.2785 35.9042L86.7265 35.7762L86.9825 35.3922L86.7905 35.0722L86.4065 35.5842L86.2785 35.9042ZM93.9585 40.5122L94.0865 40.8962L94.4705 41.1522L94.5345 40.7042L94.2145 40.3842L93.9585 40.5122ZM86.6625 27.2002L87.3025 26.8802L87.4945 26.4962L86.6625 26.8162V27.2002ZM77.5745 12.6722L78.0225 12.5442L78.2785 12.1602H77.5745V12.6722ZM65.6065 34.4962L65.7345 34.8802L66.0545 35.0082L66.3105 34.6242L65.9265 34.4322L65.6065 34.4962ZM80.2625 10.4322H80.5825L80.9665 9.7922L80.5825 9.8562L80.3265 10.0482L80.2625 10.4322ZM83.0785 14.9122L83.7185 14.7842L83.5905 14.4642L83.3345 14.2722L83.1425 14.5282L83.0785 14.9122ZM71.8785 26.6882L72.0705 26.4322L72.1345 25.9842H71.7505L71.6225 26.4322L71.8785 26.6882ZM75.3985 20.2242L75.7825 20.1602L76.0385 19.9682L76.1025 19.6482L75.4625 19.8402L75.3985 20.2242ZM89.8625 39.8082L90.5665 39.5522L90.7585 39.2322H90.3745L90.0545 39.4882L89.8625 39.8082ZM78.4705 40.8962L79.1105 40.5762L79.1745 40.1922L78.7905 40.3202L78.5985 40.5762L78.4705 40.8962ZM95.3665 40.3842L95.3025 40.0642L94.9185 39.9362L94.7905 40.2562L95.0465 40.5122L95.3665 40.3842ZM72.5825 36.1602L72.9025 36.0322L72.9665 35.5842H72.5825L72.4545 35.9042L72.5825 36.1602ZM95.0465 34.7522H95.4305L95.8785 34.3682L95.4945 34.2402L95.2385 34.4962L95.0465 34.7522ZM95.1745 32.1282L95.6225 32.0642L95.8785 31.8082L95.1745 31.6802V32.1282ZM68.3585 30.0162L68.7425 29.8882L68.9345 29.5682L68.6145 29.4402L68.3585 29.6322V30.0162ZM91.5905 41.0242L91.9745 40.9602L92.2945 40.3842L91.9745 40.4482L91.7185 40.7042L91.5905 41.0242ZM67.3985 38.9762L67.8465 38.8482L68.0385 38.5282L67.8465 38.2722L67.5905 38.5922L67.3985 38.9762ZM70.0865 39.2322L70.2145 38.6562H69.7665V39.1042L70.0865 39.2322ZM90.7585 25.8562L91.1425 25.7922L91.4625 25.1522L91.0785 25.2802L90.9505 25.5362L90.7585 25.8562ZM80.7105 17.6002L81.0305 17.4722L81.2225 17.1522L81.0945 16.8962L80.7745 17.1522L80.7105 17.6002ZM84.4865 21.7602L85.0625 21.5042L85.1265 21.1842L84.5505 21.3762L84.4865 21.7602ZM65.4785 38.0802L65.7985 37.8882V37.6322L65.4785 37.4402L65.3505 37.7602L65.4785 38.0802ZM72.5825 38.8482L73.0305 38.7202L73.1585 38.2722L72.7105 38.4002L72.5825 38.8482ZM82.5025 4.7362V4.9922H83.0145V4.7362L82.8865 4.6082H82.6305L82.5025 4.7362ZM70.9185 19.5202L71.3665 19.0722L71.1745 18.8162L70.8545 19.0722L70.9185 19.5202ZM82.1825 10.4962L82.5025 10.3042L82.8865 9.6642L82.5025 9.8562L82.3105 10.1122L82.1825 10.4962ZM68.8065 27.0722L69.1905 26.9442L69.2545 26.4962H68.9345L68.8705 26.7522L68.8065 27.0722ZM73.7345 32.5122H74.1185L74.2465 32.1282H73.7345V32.5122ZM92.8065 34.3682L93.2545 34.2402L93.1265 33.9202L92.8065 33.7922V34.3682ZM76.9345 37.2482L77.3825 37.1202L77.5745 36.7362H77.1905L76.9345 37.2482ZM98.5665 47.0402L99.0145 46.8482L99.2705 46.4642L98.8865 46.5282L98.6945 46.7202L98.5665 47.0402ZM95.8785 25.6642H96.3265L96.1985 25.2802L95.8785 25.1522V25.6642ZM78.2785 8.9602L78.5985 8.8322L78.7265 8.5122L78.4065 8.4482L78.2145 8.6402L78.2785 8.9602ZM77.4465 18.1762L77.7665 18.0482L77.8945 17.7282L77.5745 17.6002L77.4465 17.8562V18.1762ZM82.3745 37.2482L82.6945 37.1202V36.8642L82.5025 36.6082L82.3105 36.9282L82.3745 37.2482ZM87.6865 4.8642L88.0705 4.9922L88.1345 4.6722L87.9425 4.3522L87.6865 4.8642ZM80.2625 14.6562V15.0402L80.3905 15.2322L80.5825 14.9122L80.5185 14.5282L80.2625 14.6562ZM77.7665 15.3602L78.0225 14.9122L77.5745 14.7842V15.1682L77.7665 15.3602ZM85.8305 20.3522L86.2145 20.2242L86.2785 19.8402L85.8945 19.9042L85.8305 20.3522ZM68.3585 40.6402L68.6785 40.5122L68.7425 40.1922L68.4225 40.0642L68.3585 40.3202V40.6402ZM81.5425 5.8242H81.9265V5.4402L81.6705 5.3122L81.5425 5.8242ZM95.1745 47.8722L95.6225 48.0002V47.4882L95.3025 47.6162L95.1745 47.8722ZM75.3985 15.3602L75.5265 15.0402L75.0785 14.6562L75.1425 15.1042L75.3985 15.3602ZM68.2305 22.0802L68.6145 22.0162L68.6785 21.6322L68.2945 21.6962L68.2305 22.0802ZM77.7665 35.7762L77.9585 36.1602L78.2145 36.0322L78.3425 35.7122L78.0865 35.7762H77.7665ZM94.3425 27.2002L94.7265 27.2642L94.9185 26.9442L94.5345 26.8802L94.3425 27.2002ZM76.6145 13.1202L76.7425 13.5682L77.0625 13.3122L76.8065 12.9922L76.6145 13.1202ZM85.4465 15.8082V15.3602H85.1265V15.7442L85.4465 15.8082ZM98.6945 36.5442L98.9505 36.4162V36.1602L98.6945 36.0322L98.5665 36.2882L98.6945 36.5442ZM81.7985 7.9362L82.1825 8.0002L82.3745 7.6802L82.0545 7.6162L81.7985 7.9362ZM69.8945 28.6082L69.3825 28.4802L69.4465 28.8002L69.7665 28.8642L69.8945 28.6082ZM71.1745 24.4482L71.6225 24.0002H71.2385L71.0465 24.1922L71.1745 24.4482ZM66.4385 42.4322H66.8225L66.7585 42.1122L66.5665 41.9202L66.4385 42.4322ZM91.9745 22.5922L92.1025 22.0802H91.7185L91.7825 22.4002L91.9745 22.5922ZM84.8705 18.4322L85.2545 18.5602L85.4465 18.3042L85.1265 18.1762L84.8705 18.4322ZM75.7825 28.4802L75.2705 27.9042L75.3345 28.2882L75.5265 28.5442L75.7825 28.4802ZM94.3425 30.4642L94.2785 30.1442H93.8305L93.9585 30.4002L94.3425 30.4642ZM60.1665 43.3922L59.7185 43.2642V43.5842L60.0385 43.6482L60.1665 43.3922ZM73.2865 37.6962L73.6065 37.8882L73.8625 37.5682L73.5425 37.5042L73.2865 37.6962ZM67.3985 25.6642H67.9745L67.7185 25.2802L67.3985 25.6642ZM80.2625 4.7362H80.5825L80.7105 4.3522L80.3905 4.4162L80.2625 4.7362ZM70.0865 27.7762L70.2785 28.0962L70.6625 27.6482L70.3425 27.7122L70.0865 27.7762ZM86.8545 11.5842L86.7905 11.2642L86.4065 11.2002L86.5345 11.5202L86.8545 11.5842ZM76.7425 19.3922L76.8065 19.0722L76.4865 18.8802V19.2642L76.7425 19.3922ZM62.0865 30.4002L62.4065 30.5922L62.5345 30.3362L62.2785 30.1442L62.0865 30.4002ZM70.6625 22.2082H70.9185L71.0465 21.8882H70.6625V22.2082ZM65.3505 46.3362L65.6705 46.2082L65.7345 45.8242L65.4145 46.0162L65.3505 46.3362ZM71.3025 16.6402L71.6225 16.5762L71.4945 16.1922L71.2385 16.4482L71.3025 16.6402ZM92.1665 26.4962L92.4865 26.5602L92.6785 26.2402H92.3585L92.1665 26.4962ZM68.3585 38.0802H68.5505L68.6785 37.6962H68.3585V38.0802ZM64.6465 41.8562H64.9025L65.0305 41.4722H64.7745L64.6465 41.8562ZM76.0385 35.3282H76.3585V35.0082H76.1025L76.0385 35.3282ZM83.3345 20.4162L83.5265 20.0962L83.3345 19.8402L83.2065 20.1602L83.3345 20.4162ZM78.3425 3.6482L78.6625 3.7762L78.8545 3.5202L78.5345 3.4562L78.3425 3.6482ZM78.5985 11.4562L78.9185 11.5202L79.1105 11.2002L78.7265 11.2642L78.5985 11.4562ZM75.2705 12.0322L75.5905 12.1602L75.7825 11.9682L75.4625 11.8402L75.2705 12.0322ZM81.0945 9.6002H81.3505L81.4145 9.2162H81.2225L81.0945 9.6002ZM71.4305 36.6082V36.9922L71.6225 37.1202L71.6865 36.8002L71.4305 36.6082ZM66.8865 28.7362L67.2065 28.6722L67.3985 28.4802L67.0785 28.4162L66.8865 28.7362ZM92.8065 21.2482H93.1265L93.0625 20.9922L92.8065 20.9282V21.2482ZM63.1105 43.2642L63.2385 42.7522H62.9185L63.1105 43.2642ZM69.8945 23.7442L69.9585 23.4882L69.7665 23.2962L69.6385 23.5522L69.8945 23.7442ZM97.7345 35.0082L97.9905 34.6242H97.6065L97.7345 35.0082ZM72.1345 18.8162V18.4322L71.8785 18.3042L71.9425 18.6242L72.1345 18.8162ZM92.1665 19.3922L92.3585 19.0722L92.2945 18.8162L92.1025 19.1362L92.1665 19.3922ZM70.7905 29.3122L71.2385 29.2482L71.3025 28.9282L70.7905 29.3122ZM85.5745 10.1762H85.8305V9.9202H85.5745V10.1762ZM62.2145 46.7842L62.2785 46.3362L61.9585 46.5282L62.2145 46.7842ZM68.6785 24.2562H68.9345V24.0002H68.6785V24.2562ZM74.6945 7.8082H74.9505V7.5522H74.6945V7.8082ZM78.5985 6.2722H78.8545V6.0162H78.5985V6.2722ZM82.8865 38.8482L83.2065 38.9762L83.3345 38.6562L82.8865 38.8482ZM71.8785 36.1602L71.6225 36.6082L71.9425 36.4802L71.8785 36.1602ZM72.8385 20.0962V20.3522L73.0945 20.1602L72.9665 19.9682L72.8385 20.0962ZM69.3825 34.0482L69.6385 33.8562L69.3825 33.6642V34.0482ZM72.1345 36.9922L71.7505 37.1202L71.9425 37.3122L72.1345 36.9922ZM79.9425 13.1202H80.1345V12.8642H79.9425V13.1202ZM71.8785 39.8082H72.1345V39.6162H71.8785V39.8082ZM80.8385 11.8402H81.2225L80.8385 11.5842V11.8402ZM76.7425 42.5602H76.9345V42.3042H76.7425V42.5602ZM62.6625 38.1442H62.9185V37.9522H62.6625V38.1442ZM68.8065 39.6802L68.3585 39.8082L68.6145 39.9362L68.8065 39.6802ZM86.4065 17.4722L86.1505 17.1522L86.0865 17.4082L86.4065 17.4722ZM76.3585 6.1442H76.6145L76.4865 5.8242L76.3585 6.1442ZM77.8945 4.4802L78.1505 4.3522L77.8945 4.1602V4.4802ZM69.3825 26.1122H69.6385L69.5105 25.7922L69.3825 26.1122ZM93.5105 25.8562H93.8305L93.5105 25.6642V25.8562ZM59.9105 38.0802L60.0385 37.9522L59.8465 37.6962L59.9105 38.0802ZM85.7025 12.2882L86.0225 12.0322H85.8305L85.7025 12.2882ZM87.1105 40.5122L87.1745 40.2562L86.9825 40.3202L87.1105 40.5122ZM97.5425 27.9042V27.5842L97.4145 27.6482L97.5425 27.9042Z" fill="black"/>
</svg>
