<svg width="65" height="52" viewBox="0 0 65 52" fill="none" xmlns="http://www.w3.org/2000/svg">
<path d="M25.7186 0L33.2499 50.5938H19.7811L19.1249 41.5H14.4061L13.6249 50.5938H-0.000106812L6.68739 0H25.7186ZM18.7499 32.5312C18.0832 26.8021 17.4166 19.7292 16.7499 11.3125C15.4166 20.9792 14.5832 28.0521 14.2499 32.5312H18.7499ZM47.6861 25.1875H35.8424V22.4062C35.8424 19.1979 36.207 16.7292 36.9361 15C37.6861 13.25 39.1757 11.7083 41.4049 10.375C43.6341 9.04167 46.5299 8.375 50.0924 8.375C54.3632 8.375 57.582 9.13542 59.7486 10.6562C61.9153 12.1562 63.2174 14.0104 63.6549 16.2188C64.0924 18.4062 64.3111 22.9271 64.3111 29.7812V50.5938H52.0299V46.9062C51.2591 48.3854 50.2591 49.5 49.0299 50.25C47.8216 50.9792 46.3736 51.3438 44.6861 51.3438C42.4778 51.3438 40.4466 50.7292 38.5924 49.5C36.7591 48.25 35.8424 45.5312 35.8424 41.3438V37.9375C35.8424 34.8333 36.332 32.7188 37.3111 31.5938C38.2903 30.4688 40.7174 29.1562 44.5924 27.6562C48.7382 26.0312 50.957 24.9375 51.2486 24.375C51.5403 23.8125 51.6861 22.6667 51.6861 20.9375C51.6861 18.7708 51.5195 17.3646 51.1861 16.7188C50.8736 16.0521 50.3424 15.7188 49.5924 15.7188C48.7382 15.7188 48.207 16 47.9986 16.5625C47.7903 17.1042 47.6861 18.5312 47.6861 20.8438V25.1875ZM51.6861 30.875C49.6653 32.3542 48.4882 33.5938 48.1549 34.5938C47.8424 35.5938 47.6861 37.0312 47.6861 38.9062C47.6861 41.0521 47.8216 42.4375 48.0924 43.0625C48.3841 43.6875 48.9466 44 49.7799 44C50.5716 44 51.082 43.7604 51.3111 43.2812C51.5611 42.7812 51.6861 41.4896 51.6861 39.4062V30.875Z" fill="black"/>
</svg>
