<svg width="84" height="46" viewBox="0 0 84 46" fill="none" xmlns="http://www.w3.org/2000/svg">
<path d="M-3.84748e-05 44.7998L20.16 -0.000198364H28.352L48.576 44.7998H39.872L22.528 4.4158H25.856L8.57596 44.7998H-3.84748e-05ZM9.27996 34.4318L11.52 27.9038H35.712L37.952 34.4318H9.27996ZM75.8415 44.7998V37.8878L75.3935 36.4158V24.3198C75.3935 21.9731 74.6895 20.1598 73.2815 18.8798C71.8735 17.5571 69.7401 16.8958 66.8815 16.8958C64.9615 16.8958 63.0628 17.1945 61.1855 17.7918C59.3508 18.3891 57.7935 19.2211 56.5135 20.2878L53.3775 14.4638C55.2121 13.0558 57.3881 12.0105 59.9055 11.3278C62.4655 10.6025 65.1108 10.2398 67.8415 10.2398C72.7908 10.2398 76.6095 11.4345 79.2975 13.8238C82.0281 16.1705 83.3935 19.8185 83.3935 24.7678V44.7998H75.8415ZM65.0895 45.2478C62.5295 45.2478 60.2895 44.8211 58.3695 43.9678C56.4495 43.0718 54.9561 41.8558 53.8895 40.3198C52.8655 38.7411 52.3535 36.9705 52.3535 35.0078C52.3535 33.0878 52.8015 31.3598 53.6975 29.8238C54.6361 28.2878 56.1508 27.0718 58.2415 26.1758C60.3321 25.2798 63.1055 24.8318 66.5615 24.8318H76.4815V30.1438H67.1375C64.4068 30.1438 62.5721 30.5918 61.6335 31.4878C60.6948 32.3411 60.2255 33.4078 60.2255 34.6878C60.2255 36.1385 60.8015 37.2905 61.9535 38.1438C63.1055 38.9971 64.7055 39.4238 66.7535 39.4238C68.7161 39.4238 70.4655 38.9758 72.0015 38.0798C73.5801 37.1838 74.7108 35.8611 75.3935 34.1118L76.7375 38.9118C75.9695 40.9171 74.5828 42.4745 72.5775 43.5838C70.6148 44.6931 68.1188 45.2478 65.0895 45.2478Z" fill="black"/>
</svg>
