<svg width="295" height="305" viewBox="0 0 295 305" fill="none" xmlns="http://www.w3.org/2000/svg">
<g clip-path="url(#clip0_102_201)">
<path d="M121.164 254.311L93.165 173.96L211.055 147.756L173.929 254.311H121.164Z" fill="white"/>
<path d="M53.9055 129.647C53.9157 129.271 53.9055 127.211 52.5106 126.479L39.6108 119.685L52.5666 112.998C53.1266 112.708 57.4282 110.532 63.649 108.467C63.5523 108.36 63.4607 108.269 63.3691 108.182L53.5593 98.9426L66.5456 95.322C67.0649 95.1796 71.7687 93.9185 77.9793 93.9185C84.1899 93.9185 89.6523 95.1338 94.4019 97.5239L100.49 100.59L96.937 110.11L96.4178 112.764L101.768 120.224L91.5918 123.301C84.7448 125.375 71.9825 130.573 66.902 135.704L51.1871 151.559L53.9106 129.652L53.9055 129.647Z" fill="white"/>
<path d="M212.572 218.353C209.609 218.353 206.621 217.753 203.831 217.108C189.338 213.741 182.623 199.482 182.348 198.877L180.618 195.119L184.614 184.827C179.762 187.135 174.697 187.42 170.253 187.486C168.899 187.507 167.529 187.517 166.18 187.517C163.956 187.517 161.695 187.486 159.456 187.43C159.232 187.435 159.013 187.451 158.794 187.461H158.728C158.208 187.491 157.699 187.517 157.15 187.527C157.15 187.527 156.864 187.527 156.859 187.527C156.528 187.527 156.228 187.517 155.933 187.491C155.841 187.68 155.836 187.685 155.744 187.873L163.788 196.457L160.402 197.702L164.73 202.233L142.809 202.9C142.59 202.905 142.366 202.91 142.137 202.91C141.277 202.91 140.416 202.864 139.566 202.777L119.733 200.693L115.1 204.756L114.637 204.537L114.607 204.567C114.108 205.071 102.231 216.858 86.8777 216.858C84.5462 216.858 82.2248 216.589 79.9849 216.06C70.9999 213.934 65.2729 206.408 65.7361 197.341C66.0823 190.588 69.6865 183.769 75.6629 178.506L77.6025 173.024C77.9079 172.165 78.6155 170.156 85.6916 159.665C86.8421 157.957 88.0995 156.472 89.4587 155.221C86.1548 151.758 84.0015 147.781 83.0292 143.362C81.2322 135.18 84.3069 127.14 86.3381 121.816C87.6515 118.384 88.1046 115.348 88.5475 112.414C89.1583 108.361 89.7845 104.17 92.7167 99.9548L97.0591 92.5558C103.972 81.2209 115.487 75.078 131.828 68.8435C133.33 68.2689 134.308 67.7451 134.918 67.3485L126.717 56.9289L131.401 55.6017C131.722 55.5102 139.296 53.3693 142.025 52.8303C144.27 52.3828 146.459 52.3472 148.694 52.3472C161.726 52.3472 172.864 57.9917 180.908 68.6656C183.748 72.4337 185.678 76.1662 186.905 78.9733C191.96 80.7887 196.292 83.4126 199.794 86.7892C203.969 90.8116 206.061 95.0527 207.084 97.9004L207.919 100.224C209.375 101.129 210.714 102.07 211.905 103.031L211.946 103.062C212.816 103.774 213.6 104.562 214.277 105.411C214.761 106.016 215.01 106.774 214.985 107.547L214.572 119.863C214.547 120.57 214.298 121.247 213.855 121.796C212.623 123.326 211.075 124.46 209.288 125.162C210.485 127.969 211.131 130.634 211.233 133.309C212.618 132.225 214.13 131.341 215.733 130.685C218.024 129.744 220.208 129.393 221.648 129.215C223.018 129.042 224.362 128.956 225.634 128.956C228.837 128.956 231.815 129.505 234.492 130.583C235.739 131.086 236.814 131.661 237.608 132.108C245.697 136.639 251.404 142.823 254.107 149.993C256.647 156.726 256.418 164.481 253.47 171.27L253.43 171.361L246.919 184.181C246.878 184.374 246.837 184.593 246.802 184.766C246.583 185.89 246.287 187.425 245.62 189.088C245.055 190.492 244.302 191.88 243.304 193.319C242.25 194.85 240.565 197.001 237.827 198.547L234.635 202.833C228.409 211.168 223.038 218.359 212.587 218.359L212.572 218.353Z" fill="white"/>
<path d="M206.051 152.205L97.4512 176.345L123.48 251.051H171.612L206.051 152.205Z" fill="black"/>
<path d="M93.0375 113.649C93.0171 113.512 93.0069 113.298 93.0222 113.136L93.7858 109.225L96.4126 102.187L92.9356 100.438C88.6442 98.2766 83.6095 97.1782 77.9792 97.1782C72.3489 97.1782 67.6095 98.4088 67.4211 98.4648L59.9989 100.534L65.6038 105.813C66.8968 107.033 68.0269 108.956 68.7193 110.334C60.5182 112.602 54.4552 115.693 54.0581 115.897L46.6562 119.721L54.0276 123.601C57.3772 125.365 57.1838 129.525 57.1532 129.932L55.5955 142.472L64.5755 133.41C70.7759 127.155 85.4931 121.74 90.6398 120.184L96.4584 118.429L93.0324 113.654L93.0375 113.649Z" fill="black"/>
<path d="M73.3521 109.993C73.3521 109.993 71.5143 105.406 68.5923 102.65C68.5923 102.65 80.871 99.2277 90.976 104.318L89.1383 109.24C89.1383 109.24 79.7002 107.069 73.3521 109.993Z" fill="#E30613"/>
<path d="M56.0586 119.752C56.0586 119.752 73.3466 110.822 88.7204 112.495C88.7204 112.495 88.3844 114.626 89.3873 116.019C89.3873 116.019 69.8442 121.923 61.4904 130.349C61.4904 130.349 62.2438 123.006 56.0586 119.752Z" fill="#E30613"/>
<path d="M250.462 169.968C253.023 164.069 253.313 157.158 251.042 151.137C248.609 144.695 243.411 139.096 235.999 134.946C235.287 134.55 234.335 134.036 233.26 133.604C230.975 132.678 228.404 132.21 225.624 132.21C224.484 132.21 223.283 132.292 222.046 132.444C220.788 132.602 218.895 132.902 216.96 133.695C213.005 135.317 209.762 138.582 207.746 142.95C207.186 142.757 206.611 142.63 206.02 142.564C206.178 142.208 206.326 141.852 206.458 141.511C208.983 134.911 208.072 130.1 205.71 125.188L205.623 123.179L205.929 122.665C207.573 122.472 209.008 121.877 210.184 120.896C210.897 120.306 211.315 119.431 211.345 118.506L211.671 108.752C211.701 107.857 211.371 106.978 210.729 106.347C210.459 106.083 210.174 105.828 209.879 105.589L209.848 105.564C208.443 104.43 206.886 103.382 205.231 102.411L204.009 98.9938C203.108 96.4767 201.25 92.7187 197.529 89.1336C194.052 85.7825 189.669 83.2552 184.466 81.5872C183.341 78.7751 181.392 74.7273 178.301 70.6235C170.9 60.7989 160.662 55.6069 148.699 55.6069C146.739 55.6069 144.693 55.6273 142.667 56.029C140.04 56.5477 132.297 58.7394 132.297 58.7394L138.416 66.5147C138.416 66.5147 138.925 67.4351 138.772 68.0046C138.579 68.7013 137.143 70.3082 132.999 71.8897C117.845 77.6716 106.482 83.3823 99.854 94.2544L95.471 101.72C90.981 108.081 92.7322 114.244 89.3927 122.976C87.1884 128.737 84.6991 135.714 86.2212 142.66C87.3055 147.598 90.0952 151.88 94.5597 155.475C92.5082 156.66 90.3905 158.542 88.4051 161.486C81.5632 171.636 80.9014 173.497 80.6876 174.112L78.463 180.413C72.5731 185.33 69.2998 191.717 69.0045 197.509C68.6176 205.071 73.2298 211.112 80.7487 212.892C82.7443 213.365 84.8111 213.604 86.8932 213.604C100.903 213.604 111.848 202.742 112.306 202.279L113.95 200.627L114.566 200.911L126.743 190.232L130.928 188.402L131.391 188.641C132.419 189.175 133.407 189.658 134.364 190.09L126.326 198.12L139.923 199.549C140.661 199.625 141.404 199.665 142.147 199.665C142.341 199.665 142.529 199.665 142.718 199.66L157.333 199.213L154.62 196.375L158.051 195.114L151.362 187.975C152.487 186.825 153.495 185.508 154.421 184.11L156.142 184.257C156.371 184.278 156.595 184.288 156.839 184.288H157.089C157.598 184.278 158.076 184.252 158.555 184.227C158.85 184.212 159.145 184.196 159.451 184.186C161.685 184.242 163.946 184.273 166.175 184.273C167.509 184.273 168.858 184.262 170.197 184.242C174.957 184.166 179.997 183.866 184.67 181.12C187.113 179.681 189.226 177.962 191.308 175.709L188.895 172.246C190.458 172.165 191.934 171.89 193.319 171.427L184.161 195.023L185.316 197.53C185.566 198.074 191.619 210.939 204.574 213.95C207.176 214.555 209.945 215.114 212.577 215.114C220.966 215.114 225.426 209.714 232.008 200.901L235.638 196.025C235.638 196.025 235.643 196.025 235.648 196.025C238.132 194.804 239.67 192.846 240.606 191.488C241.462 190.248 242.108 189.068 242.582 187.893C243.131 186.515 243.386 185.208 243.589 184.161C243.656 183.815 243.742 183.378 243.813 183.088L250.462 169.998V169.968ZM195.987 170.222C197.066 169.607 198.053 168.849 198.949 167.975C199.148 168.198 199.351 168.417 199.55 168.631L196.979 169.688C197 169.785 197.03 169.882 197.056 169.978C197.005 169.988 196.949 169.998 196.898 170.009L195.987 170.222Z" fill="black"/>
<path d="M181.636 179.945C178.653 183.571 175.557 187.09 172.381 190.527C171.719 191.249 171.052 191.966 170.375 192.683C166.445 196.868 162.403 200.942 158.305 204.974C157.694 205.574 157.083 206.174 156.467 206.774C156.381 206.856 156.294 206.937 156.213 207.018C151.906 211.163 147.564 215.251 143.115 219.228C142.305 219.955 141.491 220.672 140.676 221.384C136.853 224.74 132.938 227.995 128.901 231.122C132.134 227.191 135.504 223.388 138.966 219.67C139.729 218.852 140.498 218.033 141.272 217.219C145.344 212.922 149.529 208.737 153.764 204.598C153.866 204.496 153.968 204.4 154.07 204.298C154.716 203.677 155.358 203.057 156.004 202.442C160.092 198.531 164.215 194.672 168.451 190.924C169.235 190.227 170.024 189.536 170.818 188.849C174.341 185.788 177.94 182.808 181.646 179.945H181.636Z" fill="#E30613"/>
<path d="M145.991 192.566C145.293 193.238 144.596 193.904 143.899 194.57C139.684 198.587 135.412 202.544 131.029 206.383C130.133 207.166 129.237 207.944 128.336 208.712C125.369 211.249 122.345 213.726 119.25 216.121C121.744 213.095 124.315 210.141 126.947 207.242C127.736 206.368 128.535 205.503 129.334 204.639C132.999 200.698 136.772 196.848 140.6 193.055C140.915 192.739 141.231 192.424 141.547 192.114C141.867 192.449 142.193 192.79 142.514 193.131C143.766 193.095 144.922 192.897 145.991 192.566Z" fill="#E30613"/>
<path d="M142.433 242.498C147.661 234.367 153.708 226.901 159.975 219.589C166.308 212.332 172.829 205.274 180.129 198.938C174.906 207.069 168.858 214.539 162.587 221.847C156.249 229.103 149.728 236.157 142.433 242.498Z" fill="#E30613"/>
<path d="M164.984 244.425C156.676 236.955 148.567 229.271 140.671 221.384C140.096 220.815 139.526 220.24 138.961 219.665C135.372 216.055 131.829 212.404 128.336 208.707C127.873 208.219 127.41 207.725 126.947 207.237C124.238 204.359 121.556 201.46 118.903 198.526L121.235 196.482C123.958 199.177 126.662 201.893 129.334 204.639C129.899 205.218 130.464 205.798 131.024 206.383C134.476 209.953 137.892 213.563 141.262 217.219C141.878 217.886 142.494 218.557 143.104 219.228C150.618 227.43 157.908 235.841 164.979 244.43L164.984 244.425Z" fill="#E30613"/>
<path d="M174.117 223.54C167.937 218.246 162.006 212.704 156.213 207.018C155.393 206.215 154.573 205.406 153.759 204.598C150.435 201.292 147.151 197.941 143.893 194.575C143.776 194.458 143.664 194.336 143.547 194.219C143.201 193.858 142.855 193.497 142.514 193.136C143.766 193.1 144.922 192.902 145.991 192.571C146.123 192.444 146.255 192.317 146.388 192.19C146.444 192.251 146.505 192.317 146.566 192.378C149.742 195.709 152.894 199.055 156.004 202.442C156.773 203.286 157.546 204.13 158.315 204.974C163.772 211 169.077 217.153 174.127 223.545L174.117 223.54Z" fill="#E30613"/>
<path d="M182.389 202.478C178.179 199.442 174.208 196.141 170.38 192.683C169.734 192.099 169.087 191.514 168.446 190.919C166.399 189.027 164.378 187.095 162.383 185.142C160.886 183.652 159.4 182.147 157.933 180.626C157.893 180.586 157.857 180.545 157.816 180.504C160.8 180.713 163.284 181.196 164.811 182.691C166.842 184.72 168.853 186.764 170.818 188.849C171.347 189.403 171.872 189.963 172.391 190.527C175.919 194.336 179.289 198.282 182.394 202.478H182.389Z" fill="#E30613"/>
<path d="M127.374 190.898C128.031 190.898 128.897 191.086 129.543 191.168C131.574 191.473 133.784 191.87 135.8 192.175C139.964 192.81 144.113 193.532 148.012 191.468C151.794 189.591 154.365 186.042 156.549 182.533L156.844 182.711C156.468 185.737 155.317 188.625 153.276 191.137C150.557 194.494 146.337 196.421 142.015 196.263C137.546 195.923 133.275 194.427 129.329 192.348C129.044 192.185 128.148 191.697 127.878 191.514L127.639 191.371C127.548 191.32 127.532 191.285 127.451 191.229L127.364 190.893L127.374 190.898Z" fill="#E30613"/>
<path d="M200.359 139.182C198.562 143.886 193.084 150.98 193.084 150.98C196.21 153.471 198.043 156.492 196.597 159.975C192.148 170.68 178.708 163.204 178.708 163.204C180.505 161.155 180.251 158.073 180.251 158.073C176.321 165.066 168.517 168.051 158.58 168.254C158.493 166.866 158.234 165.742 157.964 164.903C157.602 153.914 146.734 145.955 136.394 144.781C135.504 144.679 134.613 144.633 133.747 144.633C125.755 144.633 121.051 148.783 119.275 150.751C118.791 150.99 118.333 151.295 117.925 151.676L111.903 157.245C110.228 156.573 108.564 155.882 106.899 155.17C81.858 144.481 95.2872 126.138 101.035 119.792C114.199 117.9 127.476 116.944 140.579 116.944C169.27 116.944 190.208 121.506 199.112 123.865L199.244 126.871C201.642 131.402 202.156 134.483 200.359 139.182Z" fill="#E30613"/>
<path d="M112.25 164.323L121.621 155.658C121.621 155.658 121.52 157.55 122.12 159.991C122.12 159.991 121.82 157.351 122.92 154.865C122.92 154.865 127.007 149.19 135.779 150.186C144.55 151.183 152.822 157.951 152.527 165.92C152.527 165.92 155.021 170.502 150.134 178.663C145.247 186.83 142.458 187.029 134.384 182.843C134.384 182.843 133.885 181.053 142.361 181.053C142.361 181.053 142.361 177.667 135.382 178.363C131.894 178.714 129.303 176.573 127.583 174.341C127.583 174.341 127.211 176.868 131.197 181.15L125.516 183.642C125.516 183.642 113.054 181.948 112.26 164.323H112.25Z" fill="#E30613"/>
<mask id="mask0_102_201" style="mask-type:luminance" maskUnits="userSpaceOnUse" x="112" y="150" width="42" height="36">
<path d="M112.25 164.323L121.621 155.658C121.621 155.658 121.52 157.55 122.12 159.991C122.12 159.991 121.82 157.351 122.92 154.865C122.92 154.865 127.007 149.19 135.779 150.186C144.55 151.183 152.822 157.951 152.527 165.92C152.527 165.92 155.021 170.502 150.134 178.663C145.247 186.83 142.458 187.029 134.384 182.843C134.384 182.843 133.885 181.053 142.361 181.053C142.361 181.053 142.361 177.667 135.382 178.363C131.894 178.714 129.303 176.573 127.583 174.341C127.583 174.341 127.211 176.868 131.197 181.15L125.516 183.642C125.516 183.642 113.054 181.948 112.26 164.323H112.25Z" fill="white"/>
</mask>
<g mask="url(#mask0_102_201)">
<path d="M127.257 151.554C127.257 151.554 143.175 148.483 149.371 161.75H156.101C156.101 161.75 141.215 139.757 127.257 151.554Z" fill="white"/>
<path d="M149.671 172.434C149.671 172.434 154.232 166.001 135.819 161.755C137.723 160.84 161.858 163.25 154.171 176.274L149.666 172.434H149.671Z" fill="white"/>
<path d="M139.582 171.031C139.582 171.031 149.172 173.207 148.974 180.504L151.753 182.539C151.753 182.539 154.268 172.027 139.582 171.031Z" fill="white"/>
</g>
<path d="M109.063 167.796C109.063 167.796 109.959 180.748 121.622 186.027L113.446 193.197C113.446 193.197 102.084 187.919 103.479 172.983L109.063 167.796Z" fill="#E30613"/>
<mask id="mask1_102_201" style="mask-type:luminance" maskUnits="userSpaceOnUse" x="103" y="167" width="19" height="27">
<path d="M109.063 167.796C109.063 167.796 109.959 180.748 121.622 186.027L113.446 193.197C113.446 193.197 102.084 187.919 103.479 172.983L109.063 167.796Z" fill="white"/>
</mask>
<g mask="url(#mask1_102_201)">
<path d="M103.479 172.983C103.479 172.983 104.217 191.488 117.707 190.39C131.192 189.292 124.498 198.074 124.498 198.074L109.389 195.877L100.429 181.028V174.026L103.484 172.983H103.479Z" fill="white"/>
</g>
<path d="M98.0975 178.958C98.0975 178.958 98.0975 190.609 107.668 197.677C107.668 197.677 95.7049 209.724 82.2502 206.541C68.7904 203.352 76.1719 181.847 98.0975 178.958Z" fill="#E30613"/>
<path d="M86.832 176.273L96.7029 173.385C96.7029 173.385 103.382 164.821 106.971 162.63C106.971 162.63 100.19 155.658 93.8114 165.121C87.4327 174.58 86.832 176.273 86.832 176.273Z" fill="#E30613"/>
<path d="M199.819 154C199.87 152.581 200.211 151.061 201.296 150.14C202.293 149.291 203.688 149.144 204.991 149.032C205.755 148.966 206.463 149.505 206.839 150.166C207.216 150.827 207.338 151.605 207.471 152.352C207.822 154.326 208.321 156.268 208.962 158.17C209.247 159.019 209.563 159.858 209.787 160.723C210.189 162.274 209.746 164.018 208.647 165.188C208.3 165.554 207.878 165.879 207.384 165.971C206.447 166.149 205.572 165.482 204.91 164.801C201.912 161.73 199.656 158.47 199.819 154Z" fill="#E30613"/>
<path d="M203.337 168.218C203.918 169.154 205.022 169.652 206.122 169.683C207.054 169.708 207.797 169.164 208.759 167.959C208.174 169.774 207.272 171.6 205.959 172.983C204.697 171.666 203.806 170.237 203.337 168.213V168.218Z" fill="#E30613"/>
<path d="M229.895 167.512C224.616 168.315 219.062 167.141 214.562 164.273C214.175 165.361 215.086 166.393 215.972 167.136C219.2 169.836 222.911 172.022 226.968 173.156C231.02 174.29 235.434 174.336 239.4 172.922C240.499 172.531 241.604 171.997 242.316 171.071C246.104 166.154 247.132 159.243 244.943 153.436C242.826 147.822 238.056 143.566 232.817 140.631C232.171 140.27 231.509 139.92 230.822 139.645C228.327 138.638 225.538 138.577 222.87 138.913C221.704 139.06 220.533 139.284 219.449 139.726C216.598 140.896 214.542 143.515 213.386 146.363C212.113 149.495 211.823 153.151 213.249 156.213C214.129 158.109 215.601 159.665 217.102 161.12C218.37 162.345 219.699 163.54 221.251 164.374C222.707 165.157 228.485 167.12 229.91 167.512H229.895Z" fill="#E30613"/>
<mask id="mask2_102_201" style="mask-type:luminance" maskUnits="userSpaceOnUse" x="212" y="138" width="35" height="36">
<path d="M229.895 167.512C224.616 168.315 219.062 167.141 214.562 164.273C214.175 165.361 215.086 166.393 215.972 167.136C219.2 169.836 222.911 172.022 226.968 173.156C231.02 174.29 235.434 174.336 239.4 172.922C240.499 172.531 241.604 171.997 242.316 171.071C246.104 166.154 247.132 159.243 244.943 153.436C242.826 147.822 238.056 143.566 232.817 140.631C232.171 140.27 231.509 139.92 230.822 139.645C228.327 138.638 225.538 138.577 222.87 138.913C221.704 139.06 220.533 139.284 219.449 139.726C216.598 140.896 214.542 143.515 213.386 146.363C212.113 149.495 211.823 153.151 213.249 156.213C214.129 158.109 215.601 159.665 217.102 161.12C218.37 162.345 219.699 163.54 221.251 164.374C222.707 165.157 228.485 167.12 229.91 167.512H229.895Z" fill="white"/>
</mask>
<g mask="url(#mask2_102_201)">
<path d="M224.789 138.008C224.789 138.008 252.966 157.667 233.881 161.755C233.881 161.755 244.368 166.439 247.168 156.365C249.962 146.291 234.879 132.195 224.794 138.008H224.789Z" fill="white"/>
</g>
<path d="M238.794 178.862C232.278 180.123 225.344 179.152 219.429 176.146C218.467 175.658 217.53 175.114 216.649 174.489C215.438 173.619 214.282 172.49 213.967 171.031C213.386 171.839 212.485 172.968 211.905 173.777C210.841 175.257 209.736 176.863 209.706 178.689C209.685 179.843 210.113 180.967 210.704 181.959C212.495 184.979 215.662 186.866 218.701 188.626C219.678 189.19 226.271 191.967 230.908 190.695C231.535 190.522 232.186 190.436 232.767 190.151C233.805 189.643 234.579 188.717 235.236 187.766C235.74 187.034 236.198 186.266 236.523 185.442C237.394 183.266 237.16 180.535 238.799 178.862H238.794Z" fill="#E30613"/>
<mask id="mask3_102_201" style="mask-type:luminance" maskUnits="userSpaceOnUse" x="209" y="171" width="30" height="21">
<path d="M238.794 178.862C232.278 180.123 225.344 179.152 219.429 176.146C218.467 175.658 217.53 175.114 216.649 174.489C215.438 173.619 214.282 172.49 213.967 171.031C213.386 171.839 212.485 172.968 211.905 173.777C210.841 175.257 209.736 176.863 209.706 178.689C209.685 179.843 210.113 180.967 210.704 181.959C212.495 184.979 215.662 186.866 218.701 188.626C219.678 189.19 226.271 191.967 230.908 190.695C231.535 190.522 232.186 190.436 232.767 190.151C233.805 189.643 234.579 188.717 235.236 187.766C235.74 187.034 236.198 186.266 236.523 185.442C237.394 183.266 237.16 180.535 238.799 178.862H238.794Z" fill="white"/>
</mask>
<g mask="url(#mask3_102_201)">
<path d="M239.471 177.753C239.471 177.753 231.031 199.472 209.93 179.518C188.829 159.563 221.791 198.938 221.791 198.938L238.794 192.887L239.471 177.753Z" fill="white"/>
</g>
<path d="M198.394 176.355L191.237 194.794C191.237 194.794 196.058 205.269 206.046 207.588C216.034 209.907 217.917 208.844 226.77 196.991C226.77 196.991 213.585 193.665 207.746 185.701C207.746 185.701 206.326 190.909 203.332 193.1C203.332 193.1 205.486 180.998 202.472 178.552C199.458 176.106 198.389 176.355 198.389 176.355H198.394Z" fill="#E30613"/>
<path d="M186.518 171.27C184.945 172.973 183.362 174.31 181.361 175.49C178.021 177.448 173.969 177.646 170.095 177.707C166.552 177.763 163.004 177.743 159.466 177.651C158.6 177.667 157.837 177.738 156.971 177.753C156.885 177.753 156.793 177.753 156.702 177.753C157.226 176.543 157.623 175.399 157.913 174.321C158.616 174.387 159.323 174.453 160 174.504C162.118 174.651 164.251 174.804 166.364 174.59C168.476 174.382 170.594 173.782 172.335 172.561C177.095 173.543 182.018 173.131 186.513 171.28L186.518 171.27Z" fill="#E30613"/>
<path d="M197.865 101.191C189.618 97.697 176.764 94.2289 157.093 92.8152C151.947 92.449 146.978 92.2609 142.315 92.2609C125.241 92.2609 113.726 94.7272 106.054 97.7021C111.746 88.3707 121.403 83.2855 135.321 77.9766C151.02 71.9913 143.542 62.4871 143.542 62.4871C171.805 58.6376 179.431 86.9621 179.431 86.9621C192.336 89.942 196.556 97.5444 197.865 101.196V101.191Z" fill="#E30613"/>
<mask id="mask4_102_201" style="mask-type:luminance" maskUnits="userSpaceOnUse" x="106" y="62" width="92" height="40">
<path d="M197.865 101.191C189.618 97.697 176.764 94.2289 157.093 92.8152C151.947 92.449 146.978 92.2609 142.315 92.2609C125.241 92.2609 113.726 94.7272 106.054 97.7021C111.746 88.3707 121.403 83.2855 135.321 77.9766C151.02 71.9913 143.542 62.4871 143.542 62.4871C171.805 58.6376 179.431 86.9621 179.431 86.9621C192.336 89.942 196.556 97.5444 197.865 101.196V101.191Z" fill="white"/>
</mask>
<g mask="url(#mask4_102_201)">
<path d="M154.069 62.1208C165.371 65.9347 184.924 90.6589 169.316 91.1979C169.316 91.1979 182.323 95.4085 178.825 83.0464C175.328 70.6843 157.119 60.7885 155.597 61.4546C154.074 62.1208 154.069 62.1208 154.069 62.1208Z" fill="white"/>
<path d="M184.654 87.6128C184.654 87.6128 195.864 95.5864 193.802 100.692L200.527 101.856L188.152 87.6128H184.654Z" fill="white"/>
</g>
<path d="M181.259 105.371C196.526 108.646 203.434 112.948 206.351 115.475C205.781 116.345 204.829 117.28 193.65 112.948C187.933 110.736 176.81 109.383 172.406 110.425C172.406 110.425 196.373 112.78 205.2 121.099C204.681 120.926 159.73 105.859 95.4604 116.238V113.227C99.8995 111.463 115.314 105.706 128.855 104.984C128.855 104.984 105.83 105.355 95.4604 109.866C95.4604 109.866 105.056 93.4307 156.778 97.1378C185.866 99.2278 199.875 105.894 205.75 110.629C206.086 110.903 206.366 111.188 206.605 111.488C197.3 108.635 183.713 105.854 181.259 105.366V105.371Z" fill="#E30613"/>
<mask id="mask5_102_201" style="mask-type:luminance" maskUnits="userSpaceOnUse" x="95" y="96" width="112" height="26">
<path d="M181.259 105.371C196.526 108.646 203.434 112.948 206.351 115.475C205.781 116.345 204.829 117.28 193.65 112.948C187.933 110.736 176.81 109.383 172.406 110.425C172.406 110.425 196.373 112.78 205.2 121.099C204.681 120.926 159.73 105.859 95.4604 116.238V113.227C99.8995 111.463 115.314 105.706 128.855 104.984C128.855 104.984 105.83 105.355 95.4604 109.866C95.4604 109.866 105.056 93.4307 156.778 97.1378C185.866 99.2278 199.875 105.894 205.75 110.629C206.086 110.903 206.366 111.188 206.605 111.488C197.3 108.635 183.713 105.854 181.259 105.366V105.371Z" fill="white"/>
</mask>
<g mask="url(#mask5_102_201)">
<path d="M206.605 111.493C206.605 111.493 157.277 89.856 106.054 101.857L121.021 91.1934H189.709L203.536 97.7838L206.605 111.488V111.493Z" fill="white"/>
</g>
<path d="M165.091 129.159C164.801 131.315 165.03 133.802 164.047 135.745C163.06 137.687 161.303 139.36 159.15 139.691C158.117 139.848 157.098 139.691 156.101 139.386C155.469 139.187 154.843 138.928 154.227 138.633C153.734 138.404 153.245 138.155 152.766 137.911C147.951 135.455 142.85 133.283 137.667 131.402C137.051 131.178 136.435 130.959 135.819 130.741C133.086 129.79 130.337 128.915 127.603 128.122C127.328 127.654 127.262 127.095 127.257 126.556C127.247 124.176 128.453 121.821 130.393 120.448C132.75 120.769 135.081 121.343 137.336 122.137C138.024 122.381 138.706 122.64 139.378 122.92C142.259 124.13 144.993 125.701 147.487 127.557C149.406 128.981 151.188 130.598 153.24 131.829C153.805 132.17 154.395 132.475 155.006 132.739C155.602 132.999 156.213 133.212 156.834 133.365C157.888 133.629 158.972 133.721 160.051 133.573C162.418 133.243 164.689 131.514 165.091 129.159Z" fill="black"/>
<path d="M196.623 131.925C194.994 131.824 193.37 132.017 191.786 132.414C190.987 132.617 190.193 132.871 189.419 133.166C188.64 133.461 187.872 133.797 187.128 134.168C184.181 135.622 181.483 137.519 178.698 139.273C177.991 139.721 177.232 140.163 176.453 140.504C176.005 140.697 175.547 140.855 175.089 140.962C174.336 141.14 173.562 141.175 172.798 140.982C171.383 140.626 170.253 139.528 169.53 138.262C168.807 136.995 168.441 135.561 168.079 134.153C168.878 135.907 172.065 136.243 174.025 135.78C174.106 135.76 174.183 135.739 174.259 135.719C174.519 135.643 174.773 135.556 175.023 135.449C176.616 134.793 177.98 133.629 179.375 132.592C182.078 130.578 185.158 129.123 188.396 128.091C189.231 127.822 190.081 127.588 190.931 127.369C192.555 126.957 194.204 126.647 195.844 126.403C196.974 127.939 197.529 130.252 196.612 131.92L196.623 131.925Z" fill="black"/>
<path d="M156.101 139.39C154.706 143.952 151.463 146.896 147.426 146.596C141.587 146.169 136.405 139.106 135.825 130.929C135.825 130.868 135.814 130.807 135.814 130.746C136.43 130.964 137.051 131.183 137.662 131.407C142.845 133.288 147.946 135.46 152.761 137.916C153.24 138.16 153.729 138.409 154.222 138.638C154.838 138.928 155.459 139.192 156.096 139.39H156.101Z" fill="white"/>
<path d="M154.227 138.638C152.98 142.086 150.404 144.277 147.233 144.043C142.478 143.693 138.253 138.033 137.667 131.407C142.85 133.288 147.951 135.46 152.766 137.916C153.245 138.16 153.734 138.409 154.227 138.638Z" fill="black"/>
<path d="M191.828 133.761C191.828 141.872 187.826 148.437 182.883 148.437C179.544 148.437 176.627 145.426 175.089 140.967C175.548 140.86 176.006 140.702 176.454 140.509C177.233 140.168 177.986 139.726 178.699 139.278C181.478 137.529 184.181 135.627 187.129 134.173C187.872 133.807 188.641 133.466 189.42 133.171C190.193 132.871 190.982 132.617 191.787 132.418C191.812 132.861 191.828 133.313 191.828 133.766V133.761Z" fill="white"/>
<path d="M189.43 133.761C189.43 139.848 186.187 144.786 182.186 144.786C179.859 144.786 177.782 143.113 176.458 140.504C177.237 140.163 177.991 139.721 178.703 139.273C181.483 137.524 184.186 135.622 187.134 134.168C187.877 133.802 188.646 133.461 189.424 133.166C189.424 133.359 189.435 133.558 189.435 133.756L189.43 133.761Z" fill="black"/>
<path d="M109.384 150.858C105.688 151.743 101.524 150.105 99.4262 146.937C97.3289 143.774 97.4459 139.299 99.7062 136.248C99.0851 139.147 100.964 142.833 102.939 145.045C104.914 147.258 106.828 149.353 109.384 150.853V150.858Z" fill="black"/>
<path d="M170.345 80.7686C170.345 80.7686 172.376 89.4897 163.335 90.4101L168.441 90.9644C168.441 90.9644 172.748 86.1741 170.345 80.7686Z" fill="black"/>
<path d="M197.361 291.885L197.269 292.15C197.554 292.043 197.839 291.931 198.124 291.824L198.007 291.575L197.356 291.88L197.361 291.885ZM146.846 7.65303C139.923 7.65303 133.111 8.13104 126.442 9.05655C126.687 9.64643 126.926 10.2414 127.155 10.8516C128.036 13.262 128.652 15.647 129.018 17.9963C134.857 17.2437 140.808 16.8522 146.851 16.8522C222.865 16.8522 284.488 78.4085 284.488 154.336C284.488 159.624 284.177 164.842 283.597 169.973L292.592 172.347C293.315 166.443 293.697 160.438 293.697 154.336C293.697 73.3233 227.956 7.64795 146.851 7.64795L146.846 7.65303ZM9.20905 154.341C9.20905 136.171 12.742 118.821 19.1512 102.945L11.3471 97.7068C4.042 115.134 0 134.264 0 154.341C0 220.672 44.0751 276.706 104.563 294.845L106.003 285.676C49.9294 268.295 9.20905 216.07 9.20905 154.341ZM98.8509 21.1898C98.8102 21.078 98.7694 20.9712 98.7287 20.8695L98.9578 21.5C98.9222 21.3983 98.8865 21.2966 98.8458 21.1847L98.8509 21.1898Z" fill="#E30613"/>
<path d="M119.881 284.151L125.007 292.587L132.444 286.114L136.089 286.683L133.3 304.471L128.988 303.795L130.729 292.699L124.452 297.957L123.928 297.876L119.509 290.945L117.768 302.041L113.456 301.364L116.246 283.576L119.891 284.146L119.881 284.151Z" fill="black"/>
<path d="M137.774 286.602L142.142 286.673L141.959 297.952C141.923 300.194 143.461 301.186 145.477 301.216C147.625 301.252 149.076 300.215 149.111 298.069L149.295 286.79L153.662 286.861L153.474 298.379C153.398 303.139 149.569 305.066 145.415 304.995C140.915 304.924 137.515 302.706 137.591 298.12L137.779 286.602H137.774Z" fill="black"/>
<path d="M161.624 300.754L160.825 304.181L156.187 304.766L160.998 286.012L166.134 285.366L175.455 302.345L170.818 302.93L169.194 299.808L161.619 300.759L161.624 300.754ZM167.534 296.589L164.123 290.014L162.438 297.229L167.534 296.589Z" fill="black"/>
<path d="M182.633 293.574L172.253 284.674L177.288 283.307L183.631 288.702L186.421 280.825L191.221 279.518L186.843 292.429L188.605 298.893L184.39 300.037L182.628 293.574H182.633Z" fill="black"/>
<path d="M202.711 278.572L197.88 280.84L196.281 277.443L209.873 271.066L211.472 274.463L206.651 276.721L212.719 289.627L208.779 291.478L202.711 278.572Z" fill="black"/>
<path d="M223.807 283.693L220.111 286.022L210.495 270.792L214.19 268.463L217.922 274.372L224.525 270.212L220.793 264.303L224.489 261.974L234.105 277.204L230.409 279.533L226.479 273.309L219.877 277.469L223.807 283.693Z" fill="black"/>
<path d="M238.865 269.246L240.066 272.556L236.498 275.567L230.308 257.219L234.263 253.883L251.342 263.052L247.774 266.062L244.709 264.328L238.875 269.246H238.865ZM241.553 262.538L235.108 258.877L237.628 265.849L241.553 262.538Z" fill="black"/>
<path d="M255.965 257.993L252.91 261.11L240.031 248.514L243.085 245.396L255.965 257.993Z" fill="black"/>
<path d="M254.274 238.155L251.052 242.406L248.059 240.143L257.12 228.188L260.113 230.451L256.901 234.692L268.279 243.296L265.652 246.764L254.274 238.16V238.155Z" fill="black"/>
<path d="M280.023 224.923L273.003 236.721L257.512 227.517L264.466 215.836L267.627 217.712L262.903 225.645L265.779 227.354L269.964 220.321L273.115 222.192L268.931 229.225L272.092 231.102L276.882 223.057L280.033 224.928L280.023 224.923Z" fill="black"/>
<path d="M280.426 216.441L282.971 218.877L281.108 223.159L267.409 209.459L269.47 204.715L288.846 205.361L286.982 209.642L283.465 209.444L280.42 216.436L280.426 216.441ZM279.85 209.236L272.448 208.814L277.804 213.944L279.85 209.236Z" fill="black"/>
<path d="M273.38 194.351L282.309 190.12L276.622 182.065L277.564 178.5L294.995 183.098L293.88 187.318L283.006 184.45L287.598 191.229L287.461 191.742L280.099 195.424L290.973 198.292L289.858 202.513L272.428 197.916L273.369 194.351H273.38Z" fill="black"/>
<path d="M119.881 284.151L125.007 292.587L132.444 286.114L136.089 286.683L133.3 304.471L128.988 303.795L130.729 292.699L124.452 297.957L123.928 297.876L119.509 290.945L117.768 302.041L113.456 301.364L116.246 283.576L119.891 284.146L119.881 284.151Z" fill="black"/>
<path d="M137.774 286.602L142.142 286.673L141.959 297.952C141.923 300.194 143.461 301.186 145.477 301.216C147.625 301.252 149.076 300.215 149.111 298.069L149.295 286.79L153.662 286.861L153.474 298.379C153.398 303.139 149.569 305.066 145.415 304.995C140.915 304.924 137.515 302.706 137.591 298.12L137.779 286.602H137.774Z" fill="black"/>
<path d="M161.624 300.754L160.825 304.181L156.187 304.766L160.998 286.012L166.134 285.366L175.455 302.345L170.818 302.93L169.194 299.808L161.619 300.759L161.624 300.754ZM167.534 296.589L164.123 290.014L162.438 297.229L167.534 296.589Z" fill="black"/>
<path d="M182.633 293.574L172.253 284.674L177.288 283.307L183.631 288.702L186.421 280.825L191.221 279.518L186.843 292.429L188.605 298.893L184.39 300.037L182.628 293.574H182.633Z" fill="black"/>
<path d="M202.711 278.572L197.88 280.84L196.281 277.443L209.873 271.066L211.472 274.463L206.651 276.721L212.719 289.627L208.779 291.478L202.711 278.572Z" fill="black"/>
<path d="M223.807 283.693L220.111 286.022L210.495 270.792L214.19 268.463L217.922 274.372L224.525 270.212L220.793 264.303L224.489 261.974L234.105 277.204L230.409 279.533L226.479 273.309L219.877 277.469L223.807 283.693Z" fill="black"/>
<path d="M238.865 269.246L240.066 272.556L236.498 275.567L230.308 257.219L234.263 253.883L251.342 263.052L247.774 266.062L244.709 264.328L238.875 269.246H238.865ZM241.553 262.538L235.108 258.877L237.628 265.849L241.553 262.538Z" fill="black"/>
<path d="M255.965 257.993L252.91 261.11L240.031 248.514L243.085 245.396L255.965 257.993Z" fill="black"/>
<path d="M254.274 238.155L251.052 242.406L248.059 240.143L257.12 228.188L260.113 230.451L256.901 234.692L268.279 243.296L265.652 246.764L254.274 238.16V238.155Z" fill="black"/>
<path d="M280.023 224.923L273.003 236.721L257.512 227.517L264.466 215.836L267.627 217.712L262.903 225.645L265.779 227.354L269.964 220.321L273.115 222.192L268.931 229.225L272.092 231.102L276.882 223.057L280.033 224.928L280.023 224.923Z" fill="black"/>
<path d="M280.426 216.441L282.971 218.877L281.108 223.159L267.409 209.459L269.47 204.715L288.846 205.361L286.982 209.642L283.465 209.444L280.42 216.436L280.426 216.441ZM279.85 209.236L272.448 208.814L277.804 213.944L279.85 209.236Z" fill="black"/>
<path d="M273.38 194.351L282.309 190.12L276.622 182.065L277.564 178.5L294.995 183.098L293.88 187.318L283.006 184.45L287.598 191.229L287.461 191.742L280.099 195.424L290.973 198.292L289.858 202.513L272.428 197.916L273.369 194.351H273.38Z" fill="black"/>
<path d="M42.3137 94.3051L36.5663 102.848L1.25732 79.1563L12.523 62.4006C17.6391 54.7881 26.726 52.4438 34.189 57.4527C38.7655 60.5242 41.1428 65.8534 40.8374 71.0759L58.6701 69.9216L51.7722 80.1835L36.7394 80.9921L32.3054 87.5876L42.3137 94.3051ZM14.2029 75.4441L25.097 82.7566L30.2131 75.1441C32.397 71.8997 31.3433 68.2486 28.299 66.2094C25.0206 64.0126 21.4317 64.694 19.3191 67.8367L14.2029 75.4492V75.4441Z" fill="black"/>
<path d="M31.2363 38.3119L39.3203 31.9249L55.8549 52.8149C59.1384 56.9644 63.4298 56.4864 67.1664 53.537C71.1473 50.3943 72.2469 46.3313 69.1008 42.3546L52.5663 21.4646L60.6503 15.0776L77.5361 36.41C84.5103 45.2227 80.3971 54.4574 72.705 60.5291C64.3767 67.1094 54.8418 68.1315 48.1221 59.6392L31.2414 38.3068L31.2363 38.3119Z" fill="black"/>
<path d="M87.3102 48.1263L72.7051 8.21766L90.2119 1.82557C103.01 -2.84773 113.313 1.52046 117.956 14.2182C122.624 26.9719 117.289 37.1829 104.812 41.7393L87.3052 48.1314L87.3102 48.1263ZM85.3656 12.8198L94.0198 36.4761L101.019 33.9183C108.788 31.0807 110.804 25.3802 108.04 17.8287C105.179 10.0127 99.9555 7.49048 92.3653 10.2619L85.3656 12.8198Z" fill="black"/>
<path d="M42.3137 94.3051L36.5663 102.848L1.25732 79.1563L12.523 62.4006C17.6391 54.7881 26.726 52.4438 34.189 57.4527C38.7655 60.5242 41.1428 65.8534 40.8374 71.0759L58.6701 69.9216L51.7722 80.1835L36.7394 80.9921L32.3054 87.5876L42.3137 94.3051ZM14.2029 75.4441L25.097 82.7566L30.2131 75.1441C32.397 71.8997 31.3433 68.2486 28.299 66.2094C25.0206 64.0126 21.4317 64.694 19.3191 67.8367L14.2029 75.4492V75.4441Z" fill="black"/>
<path d="M31.2363 38.3119L39.3203 31.9249L55.8549 52.8149C59.1384 56.9644 63.4298 56.4864 67.1664 53.537C71.1473 50.3943 72.2469 46.3313 69.1008 42.3546L52.5663 21.4646L60.6503 15.0776L77.5361 36.41C84.5103 45.2227 80.3971 54.4574 72.705 60.5291C64.3767 67.1094 54.8418 68.1315 48.1221 59.6392L31.2414 38.3068L31.2363 38.3119Z" fill="black"/>
<path d="M87.3102 48.1263L72.7051 8.21766L90.2119 1.82557C103.01 -2.84773 113.313 1.52046 117.956 14.2182C122.624 26.9719 117.289 37.1829 104.812 41.7393L87.3052 48.1314L87.3102 48.1263ZM85.3656 12.8198L94.0198 36.4761L101.019 33.9183C108.788 31.0807 110.804 25.3802 108.04 17.8287C105.179 10.0127 99.9555 7.49048 92.3653 10.2619L85.3656 12.8198Z" fill="black"/>
</g>
<defs>
<clipPath id="clip0_102_201">
<rect width="295" height="305" fill="white"/>
</clipPath>
</defs>
</svg>
