<svg width="546" height="52" viewBox="0 0 546 52" fill="none" xmlns="http://www.w3.org/2000/svg">
<path d="M0 0H9.3125C15.5208 0 19.7188 0.239583 21.9062 0.71875C24.1146 1.19792 25.9062 2.42708 27.2812 4.40625C28.6771 6.36458 29.375 9.5 29.375 13.8125C29.375 17.75 28.8854 20.3958 27.9062 21.75C26.9271 23.1042 25 23.9167 22.125 24.1875C24.7292 24.8333 26.4792 25.6979 27.375 26.7812C28.2708 27.8646 28.8229 28.8646 29.0312 29.7812C29.2604 30.6771 29.375 33.1667 29.375 37.25V50.5938H17.1562V33.7812C17.1562 31.0729 16.9375 29.3958 16.5 28.75C16.0833 28.1042 14.9688 27.7812 13.1562 27.7812V50.5938H0V0ZM13.1562 8.65625V19.9062C14.6354 19.9062 15.6667 19.7083 16.25 19.3125C16.8542 18.8958 17.1562 17.5729 17.1562 15.3438V12.5625C17.1562 10.9583 16.8646 9.90625 16.2812 9.40625C15.7188 8.90625 14.6771 8.65625 13.1562 8.65625ZM65.6862 0V33.8125C65.6862 37.6458 65.5612 40.3438 65.3112 41.9062C65.0612 43.4479 64.3217 45.0417 63.0925 46.6875C61.8633 48.3125 60.2383 49.5521 58.2175 50.4062C56.2175 51.2396 53.8529 51.6562 51.1237 51.6562C48.1029 51.6562 45.4362 51.1562 43.1237 50.1562C40.8112 49.1562 39.0821 47.8542 37.9362 46.25C36.7904 44.6458 36.1133 42.9583 35.905 41.1875C35.6967 39.3958 35.5925 35.6458 35.5925 29.9375V0H48.7487V37.9375C48.7487 40.1458 48.8633 41.5625 49.0925 42.1875C49.3425 42.7917 49.8321 43.0938 50.5612 43.0938C51.3946 43.0938 51.9258 42.7604 52.155 42.0938C52.405 41.4062 52.53 39.8021 52.53 37.2812V0H65.6862ZM72.06 0H81.9037C88.2579 0 92.5496 0.291667 94.7787 0.875C97.0287 1.45833 98.7371 2.41667 99.9037 3.75C101.07 5.08333 101.8 6.57292 102.091 8.21875C102.383 9.84375 102.529 13.0521 102.529 17.8438V35.5625C102.529 40.1042 102.31 43.1458 101.872 44.6875C101.456 46.2083 100.716 47.4062 99.6537 48.2812C98.5912 49.1354 97.2787 49.7396 95.7162 50.0938C94.1537 50.4271 91.7996 50.5938 88.6537 50.5938H72.06V0ZM85.2162 8.65625V41.9375C87.1121 41.9375 88.2787 41.5625 88.7162 40.8125C89.1537 40.0417 89.3725 37.9688 89.3725 34.5938V14.9375C89.3725 12.6458 89.2996 11.1771 89.1537 10.5312C89.0079 9.88542 88.6746 9.41667 88.1537 9.125C87.6329 8.8125 86.6537 8.65625 85.2162 8.65625ZM161.901 0V50.5938H150.401V16.4375L145.808 50.5938H137.651L132.808 17.2188V50.5938H121.308V0H138.339C138.839 3.04167 139.37 6.625 139.933 10.75L141.745 23.625L144.745 0H161.901ZM198.369 0V33.8125C198.369 37.6458 198.244 40.3438 197.994 41.9062C197.744 43.4479 197.004 45.0417 195.775 46.6875C194.546 48.3125 192.921 49.5521 190.9 50.4062C188.9 51.2396 186.535 51.6562 183.806 51.6562C180.785 51.6562 178.119 51.1562 175.806 50.1562C173.494 49.1562 171.765 47.8542 170.619 46.25C169.473 44.6458 168.796 42.9583 168.587 41.1875C168.379 39.3958 168.275 35.6458 168.275 29.9375V0H181.431V37.9375C181.431 40.1458 181.546 41.5625 181.775 42.1875C182.025 42.7917 182.515 43.0938 183.244 43.0938C184.077 43.0938 184.608 42.7604 184.837 42.0938C185.087 41.4062 185.212 39.8021 185.212 37.2812V0H198.369ZM227.461 0L234.992 50.5938H221.524L220.867 41.5H216.149L215.367 50.5938H201.742L208.43 0H227.461ZM220.492 32.5312C219.826 26.8021 219.159 19.7292 218.492 11.3125C217.159 20.9792 216.326 28.0521 215.992 32.5312H220.492ZM262.741 0L253.148 32.2812V50.5938H240.96V32.2812L231.71 0H243.804C245.7 9.85417 246.762 16.4896 246.991 19.9062C247.72 14.5104 248.939 7.875 250.648 0H262.741ZM305.395 0V10.125H297.582V50.5938H284.426V10.125H276.645V0H305.395ZM339.925 0V50.5938H326.769V29.3438H322.831V50.5938H309.675V0H322.831V18.0938H326.769V0H339.925ZM369.236 0L376.767 50.5938H363.299L362.642 41.5H357.924L357.142 50.5938H343.517L350.205 0H369.236ZM362.267 32.5312C361.601 26.8021 360.934 19.7292 360.267 11.3125C358.934 20.9792 358.101 28.0521 357.767 32.5312H362.267ZM393.454 0V50.5938H380.297V0H393.454ZM439.108 0V10.125H431.295V50.5938H418.139V10.125H410.358V0H439.108ZM443.388 0H465.325V10.125H456.544V19.7188H464.763V29.3438H456.544V40.4688H466.2V50.5938H443.388V0ZM494.011 0L501.543 50.5938H488.074L487.418 41.5H482.699L481.918 50.5938H468.293L474.98 0H494.011ZM487.043 32.5312C486.376 26.8021 485.709 19.7292 485.043 11.3125C483.709 20.9792 482.876 28.0521 482.543 32.5312H487.043ZM545.666 0V50.5938H534.166V16.4375L529.573 50.5938H521.416L516.573 17.2188V50.5938H505.073V0H522.104C522.604 3.04167 523.135 6.625 523.698 10.75L525.51 23.625L528.51 0H545.666Z" fill="black"/>
</svg>
