<svg width="14" height="13" viewBox="0 0 14 13" fill="none" xmlns="http://www.w3.org/2000/svg">
<path d="M1.24441 0.555714H13.1608V12.4443H1.24441V0.555714ZM0.70166 13H13.7017V0H0.70166V13ZM9.21666 4.63333C9.21666 4.58905 9.23291 4.56667 9.28166 4.56667H10.1322C10.1754 4.56667 10.1972 4.58333 10.1972 4.63333V9.01667C10.1972 9.06095 10.1866 9.08333 10.1322 9.08333H9.29327C9.23895 9.08333 9.2227 9.05571 9.2227 9.01095V4.63333H9.21712H9.21666ZM9.15723 3.37238C9.15723 3.22209 9.21544 3.07796 9.31905 2.97169C9.42267 2.86542 9.5632 2.80571 9.70973 2.80571C9.85626 2.80571 9.99679 2.86542 10.1004 2.97169C10.204 3.07796 10.2622 3.22209 10.2622 3.37238C10.2676 3.44915 10.2566 3.52621 10.23 3.59819C10.2035 3.67018 10.162 3.73538 10.1084 3.78929C10.0548 3.84319 9.99048 3.8845 9.91979 3.91036C9.84911 3.93622 9.77379 3.94601 9.69905 3.93905C9.62583 3.94376 9.55247 3.93223 9.48398 3.90525C9.41548 3.87827 9.35346 3.83647 9.30214 3.7827C9.25081 3.72893 9.21138 3.66445 9.18654 3.59364C9.16169 3.52283 9.15201 3.44737 9.15816 3.37238H9.15723ZM6.71973 6.46143C6.56791 5.84238 6.20902 4.50048 6.0753 3.85048H6.06462C5.95087 4.50048 5.66395 5.60048 5.43645 6.46143H6.71973ZM5.21405 7.36143L4.78598 9.0281C4.7753 9.07238 4.75905 9.08381 4.70473 9.08381H3.90941C3.85509 9.08381 3.84441 9.06714 3.85509 9.00048L5.39327 3.47667C5.43071 3.32607 5.44897 3.17113 5.44759 3.01571C5.44759 2.97667 5.46384 2.96 5.49077 2.96H6.62827C6.66634 2.96 6.68259 2.97095 6.69327 3.01571L8.41577 9.01C8.42645 9.05429 8.41577 9.08238 8.37259 9.08238H7.47327C7.43009 9.08238 7.4027 9.07143 7.39202 9.03476L6.9477 7.36238H5.21452L5.21405 7.36143Z" fill="url(#paint0_linear_3_976)"/>
<defs>
<linearGradient id="paint0_linear_3_976" x1="7.20166" y1="0" x2="7.20166" y2="13" gradientUnits="userSpaceOnUse">
<stop stop-color="#693B93" stop-opacity="0.53"/>
<stop offset="1" stop-color="#693B93"/>
</linearGradient>
</defs>
</svg>
