<svg width="21" height="13" viewBox="0 0 21 13" fill="none" xmlns="http://www.w3.org/2000/svg">
<path d="M14.8599 6.81002C15.9458 6.07524 17.0289 5.33447 18.1185 4.60738C19.1527 3.91696 20.3695 4.55362 20.604 5.89705C20.7397 6.6742 20.4452 7.51374 19.8496 7.92264C17.8971 9.26313 15.9417 10.5983 13.9766 11.913C13.3684 12.3199 12.7419 12.2451 12.1876 11.7464C11.6245 11.2402 11.4471 10.5419 11.5791 9.72911C11.7299 9.1104 12.075 8.69675 12.5456 8.3873C13.3236 7.87572 14.0891 7.33717 14.8599 6.81002" fill="url(#paint0_linear_3_967)"/>
<path d="M15.6577 6.27647C14.5745 5.53599 13.4886 4.8013 12.4092 4.05331C11.3846 3.34323 11.2443 1.78343 12.1146 0.872358C12.618 0.345492 13.3824 0.226099 13.9808 0.629299C15.9425 1.95117 17.9016 3.27864 19.8506 4.62615C20.4538 5.04322 20.712 5.71997 20.6227 6.53482C20.532 7.36231 20.1075 7.8925 19.444 8.16424C18.9138 8.31982 18.4372 8.1745 17.9744 7.84909C17.2093 7.31102 16.4306 6.79925 15.6577 6.27647" fill="url(#paint1_linear_3_967)"/>
<path d="M5.78485 5.75261C5.08979 6.21783 4.39434 6.6822 3.69993 7.14885C3.29384 7.42183 2.89209 7.70411 2.4839 7.97253C1.6613 8.51346 0.68399 8.19641 0.217586 7.24364C-0.227533 6.33447 0.0282834 5.15574 0.820485 4.61092C2.75745 3.27899 4.69942 1.95674 6.6484 0.649214C7.24614 0.248294 7.86629 0.29873 8.41904 0.778105C9.00243 1.28408 9.19342 1.99606 9.06241 2.83067C8.98114 3.0327 8.93261 3.26949 8.81087 3.42858C8.61302 3.68741 8.38808 3.93522 8.13767 4.11721C7.36272 4.68017 6.57036 5.20998 5.78485 5.75261" fill="url(#paint2_linear_3_967)"/>
<path d="M4.98723 6.27367C5.6768 6.7501 6.36588 7.22758 7.05609 7.70268C7.45977 7.9806 7.86813 8.2493 8.26955 8.53149C9.07852 9.10044 9.33418 10.256 8.86697 11.2082C8.42112 12.117 7.4268 12.4454 6.63016 11.9094C4.68255 10.5992 2.73962 9.2791 0.804023 7.94431C0.210396 7.53494 -0.062593 6.877 0.0134345 6.07335C0.0936543 5.22507 0.52152 4.67426 1.20061 4.39055C1.38967 4.3726 1.588 4.30364 1.76586 4.34829C2.05505 4.42085 2.34973 4.52638 2.60869 4.69089C3.41 5.19999 4.19559 5.74348 4.98723 6.27367" fill="url(#paint3_linear_3_967)"/>
<defs>
<linearGradient id="paint0_linear_3_967" x1="16.0871" y1="4.32593" x2="16.0871" y2="12.1753" gradientUnits="userSpaceOnUse">
<stop stop-color="#693B93" stop-opacity="0.53"/>
<stop offset="1" stop-color="#693B93"/>
</linearGradient>
<linearGradient id="paint1_linear_3_967" x1="16.091" y1="0.388916" x2="16.091" y2="8.22684" gradientUnits="userSpaceOnUse">
<stop stop-color="#693B93" stop-opacity="0.53"/>
<stop offset="1" stop-color="#693B93"/>
</linearGradient>
<linearGradient id="paint2_linear_3_967" x1="4.55091" y1="0.380127" x2="4.55091" y2="8.23574" gradientUnits="userSpaceOnUse">
<stop stop-color="#693B93" stop-opacity="0.53"/>
<stop offset="1" stop-color="#693B93"/>
</linearGradient>
<linearGradient id="paint3_linear_3_967" x1="4.55025" y1="4.3335" x2="4.55025" y2="12.1679" gradientUnits="userSpaceOnUse">
<stop stop-color="#693B93" stop-opacity="0.53"/>
<stop offset="1" stop-color="#693B93"/>
</linearGradient>
</defs>
</svg>
