<svg width="13" height="19" viewBox="0 0 13 19" fill="none" xmlns="http://www.w3.org/2000/svg">
<path d="M3.02344 0.562012H4.80227V1.4104H3.76726V2.25879H4.80227V3.10718H3.02344V0.562012ZM5.15763 0.562012H6.93715V1.30022H5.90214V1.44739H6.93715V3.14417H5.15763V2.36976H6.19263V2.2218H5.15763V0.562012ZM7.29319 0.562012H9.07134V1.30022H8.03633V1.44739H9.07134V3.14417H7.29319V2.36976H8.3282V2.2218H7.29319V0.562012Z" fill="url(#paint0_linear_3_973)"/>
<path fill-rule="evenodd" clip-rule="evenodd" d="M6.11378 18.9595L1.39194 17.4911L0 4.27344H12.2398L10.8485 17.4896L6.11378 18.9595ZM2.75191 10.2566L2.88179 11.8773H7.89807L7.73011 13.9793L6.11582 14.4683H6.11446L4.50288 13.9808L4.39953 12.6884H2.94639L3.14903 15.2337L6.11378 16.1552L9.08329 15.2337L9.44504 10.6915L9.4804 10.2566L9.74152 6.97485H2.49148L2.6234 8.5963H8.15578L8.02387 10.2566H2.75191V10.2566Z" fill="url(#paint1_linear_3_973)"/>
<defs>
<linearGradient id="paint0_linear_3_973" x1="6.04739" y1="0.562012" x2="6.04739" y2="3.14417" gradientUnits="userSpaceOnUse">
<stop stop-color="#693B93" stop-opacity="0.53"/>
<stop offset="1" stop-color="#693B93"/>
</linearGradient>
<linearGradient id="paint1_linear_3_973" x1="6.1199" y1="4.27344" x2="6.1199" y2="18.9595" gradientUnits="userSpaceOnUse">
<stop stop-color="#693B93" stop-opacity="0.53"/>
<stop offset="1" stop-color="#693B93"/>
</linearGradient>
</defs>
</svg>
