<svg width="13" height="21" viewBox="0 0 13 21" fill="none" xmlns="http://www.w3.org/2000/svg">
<path fill-rule="evenodd" clip-rule="evenodd" d="M4.00373 0.778076C2.29429 0.778076 0.919478 2.46771 0.919478 4.53756C0.919478 5.79594 1.42805 6.91358 2.20976 7.59585C1.80688 7.95146 1.48031 8.41332 1.25624 8.94442C1.03217 9.47551 0.916837 10.0611 0.919478 10.6541C0.919478 11.9133 1.42805 13.0302 2.20976 13.7124C1.80688 14.068 1.48031 14.5299 1.25624 15.061C1.03217 15.5921 0.916837 16.1776 0.919478 16.7707C0.919478 18.8406 2.29429 20.5302 4.00373 20.5302C5.71247 20.5302 7.08798 18.8406 7.08798 16.7707V13.5923C7.62822 14.1229 8.30919 14.4138 9.01258 14.4144C10.722 14.4136 12.0968 12.724 12.0968 10.6541C12.0996 10.061 11.9844 9.47541 11.7603 8.94429C11.5362 8.41316 11.2096 7.95133 10.8065 7.59585C11.2094 7.24024 11.536 6.77838 11.7601 6.24728C11.9841 5.71619 12.0995 5.13064 12.0968 4.53756C12.0968 2.46771 10.722 0.778076 9.01258 0.778076H4.00373V0.778076ZM2.07843 4.53756C2.07843 3.22816 2.94607 2.17965 4.00373 2.17965H5.92833V6.89547H4.00373C2.94607 6.89547 2.07843 5.84614 2.07843 4.53756V4.53756ZM9.01258 6.89465H7.08798V2.17883H9.01258C10.0709 2.17883 10.9379 3.22816 10.9379 4.53756C10.9379 5.84614 10.0709 6.89465 9.01258 6.89465ZM2.07913 10.6541C2.07913 9.34556 2.94677 8.29623 4.00443 8.29623H5.92903V13.012H4.00373C2.94537 13.012 2.07843 11.9627 2.07843 10.6541H2.07913ZM7.08798 10.6541C7.08798 9.34556 7.95562 8.29623 9.01328 8.29623C10.0716 8.29623 10.9386 9.34474 10.9386 10.6541C10.9386 11.9627 10.0716 13.012 9.01328 13.012C7.95562 13.012 7.08868 11.9635 7.08868 10.6541H7.08798ZM2.07913 16.7707C2.07913 15.4621 2.94677 14.4136 4.00443 14.4136H5.92903V16.7707C5.92903 18.0801 5.06278 19.1286 4.00443 19.1286C2.94677 19.1286 2.07913 18.0801 2.07913 16.7707Z" fill="url(#paint0_linear_3_961)"/>
<defs>
<linearGradient id="paint0_linear_3_961" x1="6.50816" y1="0.778076" x2="6.50816" y2="20.5302" gradientUnits="userSpaceOnUse">
<stop stop-color="#693B93" stop-opacity="0.53"/>
<stop offset="1" stop-color="#693B93"/>
</linearGradient>
</defs>
</svg>
