<svg width="15" height="16" viewBox="0 0 15 16" fill="none" xmlns="http://www.w3.org/2000/svg">
<path fill-rule="evenodd" clip-rule="evenodd" d="M7.5 0C3.3575 0 0 3.582 0 8C0 12.418 3.3575 16 7.5 16C11.6419 16 15 12.418 15 8C15 3.582 11.6419 0 7.5 0ZM7.5875 12.6787C5.17 12.6787 3.2125 10.5853 3.2125 8C3.2125 5.41467 5.17 3.32133 7.5875 3.32133C8.76875 3.32133 9.75625 3.786 10.5138 4.54067L9.28 5.85933V5.85667C8.82062 5.38867 8.23813 5.14867 7.5875 5.14867C6.14375 5.14867 4.97063 6.45267 4.97063 7.99733C4.97063 9.54067 6.14375 10.8487 7.5875 10.8487C8.8975 10.8487 9.78875 10.0473 9.9725 8.94733H7.5875V7.12267H11.7031C11.7581 7.436 11.7875 7.76267 11.7875 8.10533C11.7875 10.7787 10.1144 12.6787 7.5875 12.6787V12.6787Z" fill="url(#paint0_linear_3_972)"/>
<defs>
<linearGradient id="paint0_linear_3_972" x1="7.5" y1="0" x2="7.5" y2="16" gradientUnits="userSpaceOnUse">
<stop stop-color="#693B93" stop-opacity="0.53"/>
<stop offset="1" stop-color="#693B93"/>
</linearGradient>
</defs>
</svg>
