<svg width="13" height="15" viewBox="0 0 13 15" fill="none" xmlns="http://www.w3.org/2000/svg">
<path fill-rule="evenodd" clip-rule="evenodd" d="M0.841797 1.89691C0.841797 1.59726 0.946002 1.30989 1.13149 1.09801C1.31698 0.886125 1.56855 0.767091 1.83087 0.767091H11.6904C11.8204 0.766849 11.9491 0.795898 12.0693 0.852575C12.1894 0.909253 12.2986 0.992446 12.3906 1.09739C12.4826 1.20234 12.5555 1.32697 12.6053 1.46417C12.655 1.60136 12.6806 1.74841 12.6805 1.89691V13.1594C12.6807 13.3079 12.6552 13.455 12.6055 13.5923C12.5558 13.7295 12.4829 13.8543 12.391 13.9593C12.2991 14.0644 12.19 14.1477 12.0698 14.2045C11.9497 14.2613 11.8209 14.2905 11.6909 14.2904H1.83087C1.70094 14.2904 1.57228 14.2612 1.45224 14.2044C1.33221 14.1476 1.22315 14.0643 1.1313 13.9593C1.03945 13.8543 0.966605 13.7297 0.916931 13.5926C0.867257 13.4554 0.841726 13.3084 0.841797 13.16V1.89691ZM5.52778 5.92318H7.13085V6.84277C7.36224 6.31413 7.95418 5.83835 8.84369 5.83835C10.549 5.83835 10.9531 6.89133 10.9531 8.82332V12.4021H9.22738V9.26345C9.22738 8.16314 8.99598 7.54229 8.40835 7.54229C7.59309 7.54229 7.25408 8.2117 7.25408 9.26345V12.4021H5.52778V5.92318ZM2.5681 12.3179H4.2944V5.83835H2.5681V12.3173V12.3179ZM4.5414 3.72502C4.54465 3.89386 4.51835 4.06174 4.46404 4.21881C4.40972 4.37589 4.32849 4.51898 4.2251 4.63971C4.12172 4.76043 3.99827 4.85635 3.86199 4.92184C3.72571 4.98733 3.57936 5.02106 3.43152 5.02106C3.28367 5.02106 3.13732 4.98733 3.00104 4.92184C2.86477 4.85635 2.74131 4.76043 2.63793 4.63971C2.53454 4.51898 2.45331 4.37589 2.399 4.21881C2.34468 4.06174 2.31838 3.89386 2.32164 3.72502C2.32803 3.39361 2.44776 3.07823 2.65521 2.84642C2.86266 2.61462 3.14132 2.48481 3.43152 2.48481C3.72171 2.48481 4.00037 2.61462 4.20782 2.84642C4.41527 3.07823 4.53501 3.39361 4.5414 3.72502V3.72502Z" fill="url(#paint0_linear_3_978)"/>
<defs>
<linearGradient id="paint0_linear_3_978" x1="6.76116" y1="0.76709" x2="6.76116" y2="14.2904" gradientUnits="userSpaceOnUse">
<stop stop-color="#693B93" stop-opacity="0.53"/>
<stop offset="1" stop-color="#693B93"/>
</linearGradient>
</defs>
</svg>
