<svg width="15" height="17" viewBox="0 0 15 17" fill="none" xmlns="http://www.w3.org/2000/svg">
<path d="M7.49664 17C7.27171 17 7.04342 16.9393 6.84535 16.8246L4.77395 15.5933C4.46508 15.4179 4.61616 15.3572 4.71688 15.3234C5.12981 15.1784 5.21374 15.148 5.65354 14.895C5.70054 14.868 5.76097 14.8782 5.80797 14.9085L7.39928 15.8564C7.45636 15.8902 7.53693 15.8902 7.59064 15.8564L13.7914 12.2604C13.8485 12.2267 13.8854 12.1592 13.8854 12.0918V4.89979C13.8854 4.82895 13.8485 4.76486 13.788 4.72775L7.59064 1.13513C7.53357 1.1014 7.45636 1.1014 7.39928 1.13513L1.20524 4.73112C1.14481 4.76486 1.10788 4.83232 1.10788 4.90316V12.0918C1.10788 12.1592 1.14481 12.2267 1.20524 12.2571L2.90398 13.2421C3.82722 13.7042 4.39123 13.1611 4.39123 12.6113V5.51374C4.39123 5.41254 4.4718 5.33495 4.57252 5.33495H5.3581C5.45546 5.33495 5.53939 5.41254 5.53939 5.51374V12.6146C5.53939 13.8493 4.86795 14.5577 3.703 14.5577C3.34378 14.5577 3.06177 14.5577 2.27619 14.1664L0.651298 13.2252C0.248433 12.9925 0 12.5573 0 12.0884V4.89979C0 4.43427 0.248433 3.99573 0.651298 3.76297L6.84535 0.166981C7.23814 -0.0556603 7.75851 -0.0556603 8.14794 0.166981L14.3487 3.76635C14.7516 3.99911 15 4.43427 15 4.90316V12.0918C15 12.5573 14.7516 12.9925 14.3487 13.2286L8.14794 16.8246C7.94987 16.9393 7.72493 17 7.49664 17ZM12.5022 9.91259C12.5022 8.56662 11.5958 8.20905 9.69226 7.95605C7.76522 7.69967 7.5705 7.56811 7.5705 7.11608C7.5705 6.74164 7.735 6.24239 9.16182 6.24239C10.4342 6.24239 10.9042 6.519 11.0989 7.38258C11.1157 7.46354 11.1896 7.52426 11.2735 7.52426H12.0792C12.1296 7.52426 12.1766 7.50402 12.2102 7.46691C12.2437 7.4298 12.2605 7.3792 12.2572 7.3286C12.1329 5.84096 11.1493 5.14942 9.16182 5.14942C7.39257 5.14942 6.33841 5.8983 6.33841 7.15656C6.33841 8.5194 7.38921 8.89721 9.0846 9.06588C11.1157 9.26491 11.2735 9.56514 11.2735 9.96657C11.2735 10.6615 10.7162 10.9583 9.41025 10.9583C7.76858 10.9583 7.40936 10.5434 7.2885 9.72368C7.27507 9.63598 7.20121 9.57188 7.11056 9.57188H6.30819C6.20748 9.57188 6.13026 9.65284 6.13026 9.75067C6.13026 10.7998 6.69763 12.0513 9.41361 12.0513C11.3742 12.0479 12.5022 11.2687 12.5022 9.91259V9.91259Z" fill="url(#paint0_linear_3_960)"/>
<defs>
<linearGradient id="paint0_linear_3_960" x1="7.5" y1="0" x2="7.5" y2="17" gradientUnits="userSpaceOnUse">
<stop stop-color="#693B93" stop-opacity="0.53"/>
<stop offset="1" stop-color="#693B93"/>
</linearGradient>
</defs>
</svg>
