<svg width="15" height="16" viewBox="0 0 15 16" fill="none" xmlns="http://www.w3.org/2000/svg">
<path d="M15 7.62724C15 6.51135 13.7556 5.45371 11.8475 4.79821C12.2881 2.61484 12.0925 0.877138 11.23 0.320594C11.021 0.189158 10.7845 0.122998 10.545 0.128997V0.893981C10.6856 0.893981 10.7988 0.925563 10.8938 0.983814C11.3094 1.25191 11.49 2.27095 11.3494 3.58265C11.3156 3.90549 11.2606 4.24517 11.1931 4.59187C10.5541 4.41897 9.90563 4.294 9.25188 4.2178C8.86241 3.61444 8.43751 3.04095 7.98 2.50115C8.97687 1.46105 9.9125 0.891174 10.5488 0.891174V0.125488C9.7075 0.125488 8.60687 0.798534 7.49375 1.96566C6.38125 0.806254 5.28 0.139525 4.43938 0.139525V0.904508C5.0725 0.904508 6.01125 1.47158 7.00813 2.50466C6.58 3.00997 6.15188 3.58265 5.745 4.2178C5.0899 4.29316 4.44022 4.41932 3.80062 4.59538C3.73303 4.26678 3.67984 3.93466 3.64125 3.6002C3.4975 2.2878 3.675 1.26875 4.08812 0.997851C4.17937 0.93609 4.29875 0.908018 4.43938 0.908018V0.143034C4.18313 0.143034 3.95 0.204794 3.74875 0.334631C2.88938 0.891174 2.69688 2.62467 3.14 4.80172C1.23813 5.46143 0 6.51486 0 7.62724C0 8.74314 1.24438 9.80078 3.1525 10.4556C2.71188 12.6396 2.9075 14.3773 3.77 14.9332C3.96875 15.0637 4.20125 15.1255 4.4575 15.1255C5.29875 15.1255 6.39938 14.4524 7.5125 13.2853C8.625 14.4454 9.72562 15.1115 10.5669 15.1115C10.8082 15.1172 11.0465 15.0508 11.2575 14.9192C12.1169 14.3633 12.3094 12.6298 11.8663 10.4528C13.7619 9.79727 15 8.73963 15 7.62724ZM11.0187 5.3372C10.9 5.79609 10.7623 6.24855 10.6062 6.69312C10.3507 6.135 10.0702 5.5918 9.76562 5.0656C10.2 5.13789 10.6188 5.22702 11.0194 5.3372H11.0187ZM9.61875 8.99369C9.38983 9.44248 9.14398 9.88011 8.88188 10.3054C7.96453 10.3962 7.0419 10.3974 6.12437 10.3089C5.59809 9.46473 5.13783 8.57103 4.74875 7.63777C5.13724 6.70232 5.59554 5.80546 6.11875 4.95682C7.03587 4.86584 7.95829 4.86443 8.87563 4.95261C9.12938 5.36107 9.3775 5.7976 9.61563 6.25799C9.84813 6.70716 10.0594 7.16334 10.2519 7.62373C10.0572 8.08971 9.84603 8.54673 9.61875 8.99369V8.99369ZM10.6062 8.54733C10.7712 9.00702 10.9125 9.46742 11.0281 9.91377C10.6281 10.024 10.2056 10.1166 9.76875 10.1882C10.072 9.6572 10.3515 9.10957 10.6062 8.54733V8.54733ZM7.50625 12.2108C7.22188 11.881 6.9375 11.5139 6.65625 11.1118C6.93125 11.1258 7.2125 11.1363 7.49687 11.1363C7.78437 11.1363 8.06875 11.1293 8.34687 11.1118C8.07187 11.5139 7.7875 11.881 7.50625 12.2108ZM5.23125 10.1882C4.80984 10.1196 4.39148 10.0292 3.9775 9.91728C4.09062 9.47443 4.23125 9.01755 4.39 8.56137C4.51563 8.83508 4.6475 9.11019 4.79125 9.3853C4.935 9.65971 5.08125 9.92781 5.23125 10.1882ZM7.49062 3.04366C7.775 3.37351 8.05938 3.74056 8.34063 4.14271C8.06563 4.12867 7.78438 4.11814 7.5 4.11814C7.2125 4.11814 6.92813 4.12516 6.65 4.14271C6.925 3.74056 7.20937 3.37351 7.49062 3.04366ZM5.22812 5.0663C4.92492 5.59613 4.64541 6.14259 4.39063 6.70365C4.23013 6.25621 4.08934 5.80018 3.96875 5.3372C4.36875 5.23053 4.79125 5.13789 5.22812 5.0663ZM2.46125 9.36425C1.37875 8.8463 0.67875 8.16624 0.67875 7.62724C0.67875 7.08825 1.37875 6.40467 2.46125 5.89024C2.72375 5.76321 3.01125 5.64951 3.30813 5.54354C3.4825 6.21588 3.71188 6.9163 3.99563 7.63426C3.72773 8.30954 3.50116 9.00455 3.3175 9.71446C3.02716 9.61351 2.7414 9.49663 2.46125 9.36425V9.36425ZM4.10625 14.27C3.69063 14.0033 3.51 12.9828 3.65063 11.6718C3.68438 11.349 3.73938 11.0086 3.80688 10.6619C4.40563 10.8268 5.06 10.9539 5.74812 11.0367C6.13761 11.64 6.56251 12.2135 7.02 12.7533C6.02313 13.7934 5.0875 14.3633 4.45125 14.3633C4.33121 14.3648 4.21271 14.333 4.10625 14.2707V14.27ZM11.3587 11.6543C11.5025 12.966 11.325 13.9857 10.9119 14.2566C10.8206 14.3184 10.7012 14.3458 10.5606 14.3458C9.9275 14.3458 8.98875 13.7794 7.99187 12.7456C8.44745 12.2081 8.8695 11.6359 9.255 11.0332C9.9101 10.9578 10.5598 10.8317 11.1994 10.6556C11.27 11.0023 11.3244 11.335 11.3587 11.6543V11.6543ZM12.5356 9.36425C12.2731 9.49128 11.9856 9.60497 11.6887 9.71095C11.5019 8.99742 11.2722 8.29891 11.0012 7.62022C11.2825 6.90647 11.5081 6.20957 11.6794 5.54003C11.9706 5.64131 12.2574 5.75818 12.5388 5.89024C13.6213 6.40818 14.3212 7.08825 14.3212 7.62724C14.3181 8.16624 13.6181 8.84981 12.5356 9.36425V9.36425Z" fill="url(#paint0_linear_3_955)"/>
<path d="M7.49711 9.19616C7.86775 9.19616 8.22321 9.03082 8.48529 8.73653C8.74737 8.44223 8.89461 8.04308 8.89461 7.62689C8.89461 7.21069 8.74737 6.81154 8.48529 6.51725C8.22321 6.22295 7.86775 6.05762 7.49711 6.05762C7.12647 6.05762 6.77101 6.22295 6.50893 6.51725C6.24685 6.81154 6.09961 7.21069 6.09961 7.62689C6.09961 8.04308 6.24685 8.44223 6.50893 8.73653C6.77101 9.03082 7.12647 9.19616 7.49711 9.19616V9.19616Z" fill="url(#paint1_linear_3_955)"/>
<defs>
<linearGradient id="paint0_linear_3_955" x1="7.5" y1="0.125488" x2="7.5" y2="15.1255" gradientUnits="userSpaceOnUse">
<stop stop-color="#693B93" stop-opacity="0.53"/>
<stop offset="1" stop-color="#693B93"/>
</linearGradient>
<linearGradient id="paint1_linear_3_955" x1="7.49711" y1="6.05762" x2="7.49711" y2="9.19616" gradientUnits="userSpaceOnUse">
<stop stop-color="#693B93" stop-opacity="0.53"/>
<stop offset="1" stop-color="#693B93"/>
</linearGradient>
</defs>
</svg>
