<svg width="15" height="16" viewBox="0 0 15 16" fill="none" xmlns="http://www.w3.org/2000/svg">
<path d="M12.5098 0H2.49023C1.11492 0 0 1.20927 0 2.70097V13.1617C0 14.6534 1.11492 15.8626 2.49023 15.8626H12.5098C13.8851 15.8626 15 14.6534 15 13.1617V2.70097C15 1.20927 13.8851 0 12.5098 0Z" fill="url(#paint0_linear_3_964)"/>
<path d="M7.88567 4.17241L6.01401 7.52308L8.01645 11.0811C8.02934 11.106 8.03292 11.1352 8.02653 11.1629C8.02343 11.1747 8.01675 11.1777 8.00649 11.1781L7.99512 11.1779L7.9813 11.1775C7.9738 11.1775 7.96542 11.1779 7.9561 11.1796H6.51235L6.48399 11.1791C6.40618 11.1768 6.35011 11.1648 6.31595 11.1029C6.18236 10.8206 6.04818 10.5386 5.91341 10.257C5.79285 10.0059 5.66901 9.75657 5.54192 9.50922L5.48579 9.40029C5.33378 9.10727 5.18452 8.81258 5.03802 8.51628H5.02794C4.89265 8.80948 4.75343 9.10054 4.61034 9.38936C4.46602 9.68043 4.32346 9.96972 4.18266 10.257C4.04178 10.5446 3.89755 10.8302 3.75001 11.1138C3.72628 11.1716 3.68684 11.1837 3.63194 11.1857L3.60909 11.186H2.23055L2.22458 11.1862L2.20489 11.1881C2.19393 11.1888 2.18737 11.1863 2.18526 11.1684C2.18148 11.1418 2.18686 11.1146 2.20038 11.092L4.14241 7.6322L2.25065 4.16161C2.23055 4.13263 2.22721 4.10899 2.24057 4.09069C2.248 4.08136 2.25732 4.07404 2.26781 4.0693C2.27829 4.06455 2.28965 4.06252 2.30098 4.06336H3.71977C3.75071 4.06152 3.78165 4.06712 3.81036 4.07975C3.83438 4.09456 3.85507 4.11509 3.87071 4.13981C3.99147 4.43088 4.12565 4.72195 4.27325 5.01289C4.4197 5.302 4.56897 5.58942 4.72102 5.87511C4.87075 6.15637 5.01006 6.444 5.13862 6.73732H5.1487C5.28045 6.44407 5.41631 6.15301 5.55622 5.86424C5.69362 5.58048 5.83454 5.29481 5.9788 5.00743C6.12122 4.72373 6.26043 4.43815 6.39639 4.15074C6.40413 4.1238 6.41796 4.09939 6.43665 4.07975C6.4615 4.06611 6.48943 4.06042 6.51716 4.06336H7.83534C7.84746 4.06008 7.86023 4.06116 7.87173 4.06644C7.88324 4.07171 7.89285 4.08089 7.89913 4.09261C7.90541 4.10432 7.90801 4.11792 7.90654 4.13138C7.90508 4.14483 7.89963 4.1574 7.891 4.1672L7.88573 4.17254L7.88567 4.17241ZM10.8429 11.3203L10.7735 11.3212C10.3104 11.3288 9.85145 11.2244 9.43014 11.0156C9.03767 10.8186 8.70959 10.497 8.4893 10.0933C8.26718 9.6932 8.15315 9.19457 8.14741 8.59762L8.14718 8.549C8.14341 8.04809 8.26143 7.55495 8.48936 7.11927C8.71747 6.68805 9.05003 6.33276 9.451 6.09188L9.48552 6.07155C9.92145 5.80958 10.4481 5.6786 11.0653 5.6786L11.0923 5.67892L11.1231 5.68L11.1577 5.68165L11.1961 5.68407L11.2607 5.68903L11.3338 5.69538L11.3873 5.70046V3.55036C11.3873 3.49952 11.4074 3.47397 11.4476 3.47397H12.7156C12.7238 3.4727 12.7321 3.47351 12.74 3.47635C12.7478 3.47919 12.755 3.48397 12.7608 3.49033C12.7667 3.49668 12.7711 3.50443 12.7737 3.51295C12.7763 3.52147 12.7771 3.53054 12.7759 3.53943V9.98967C12.7759 10.098 12.7798 10.2146 12.7875 10.3395L12.8063 10.6226L12.8162 10.7864C12.8175 10.809 12.8124 10.8316 12.8016 10.8511C12.7908 10.8706 12.7748 10.8861 12.7558 10.8955C12.4287 11.0435 12.088 11.1532 11.7395 11.2229C11.4436 11.2821 11.1437 11.3147 10.8429 11.3203V11.3203ZM11.3873 9.96781V6.98829C11.3329 6.97232 11.2774 6.96137 11.2213 6.95556C11.1527 6.94808 11.0839 6.94443 11.015 6.94463C10.7708 6.94201 10.5295 7.00184 10.3106 7.11927C10.0974 7.23421 9.91541 7.4072 9.78235 7.62133C9.64952 7.83207 9.58079 8.10725 9.57628 8.44688L9.57604 8.48355C9.57115 8.72144 9.60697 8.95826 9.68169 9.18199C9.74252 9.36229 9.83867 9.52614 9.96352 9.66225C10.083 9.78745 10.2277 9.88085 10.3861 9.93508C10.5535 9.99386 10.7284 10.0234 10.9043 10.0225C10.9982 10.0225 11.0854 10.0188 11.1659 10.0115C11.2302 10.0062 11.2939 9.99474 11.3562 9.97715L11.3873 9.96781V9.96781Z" fill="black"/>
<defs>
<linearGradient id="paint0_linear_3_964" x1="7.5" y1="0" x2="7.5" y2="15.8626" gradientUnits="userSpaceOnUse">
<stop stop-color="#693B93" stop-opacity="0.53"/>
<stop offset="1" stop-color="#693B93"/>
</linearGradient>
</defs>
</svg>
